<?xml version="1.0" encoding="UTF-8"?>
<svg xmlns="http://www.w3.org/2000/svg" width="800.000" height="600.000" viewBox="0.0 0.0 800.000 600.000" version="1.1">
  <title>Produce by Acme CAD Converter</title>
  <desc>Produce by Acme CAD Converter</desc>
<path d="M466.08 209.56L466.08 207.23 463.74 205.21 466.08 209.56Z"
fill-rule="evenodd" fill="black"/>
<path d="M466.08 209.56L466.09 209.58 466.08 208.12 466.08 209.56Z"
fill-rule="evenodd" fill="black"/>
<path d="M466.08 208.12L466.09 208.12 466.08 207.23 466.08 208.12Z"
fill-rule="evenodd" fill="black"/>
<path d="M466.09 208.12L466.09 207.24 466.08 207.23 466.09 208.12Z"
fill-rule="evenodd" fill="black"/>
<path d="M466.09 208.12L467.26 208.25 466.09 207.24 466.09 208.12Z"
fill-rule="evenodd" fill="black"/>
<path d="M468.55 207.6L468.55 205.28 466.21 203.26 468.55 207.6Z"
fill-rule="evenodd" fill="black"/>
<path d="M468.55 207.6L468.56 207.62 468.55 206.16 468.55 207.6Z"
fill-rule="evenodd" fill="black"/>
<path d="M468.55 206.16L468.56 206.16 468.55 205.28 468.55 206.16Z"
fill-rule="evenodd" fill="black"/>
<path d="M468.56 206.16L468.56 205.28 468.55 205.28 468.56 206.16Z"
fill-rule="evenodd" fill="black"/>
<path d="M468.56 206.16L469.73 206.29 468.56 205.28 468.56 206.16Z"
fill-rule="evenodd" fill="black"/>
<path d="M350.61 338.14L238.56 338.14"
fill="none" stroke="black" stroke-width="0.5"/>
<path d="M238.56 338.14L215.69 325.48"
fill="none" stroke="black" stroke-width="0.5"/>
<path d="M215.69 338.14L197.01 338.14"
fill="none" stroke="black" stroke-width="0.5"/>
<path d="M197.01 338.14L197.01 325.48"
fill="none" stroke="black" stroke-width="0.5"/>
<path d="M197.01 338.14L197.01 349.34"
fill="none" stroke="black" stroke-width="0.5"/>
<path d="M197.01 325.48L197.01 349.34"
fill="none" stroke="RGB(1,1,1)" stroke-width="0.5"/>
<path d="M350.61 389.02L238.56 389.02"
fill="none" stroke="black" stroke-width="0.5"/>
<path d="M238.56 389.02L215.69 376.36"
fill="none" stroke="black" stroke-width="0.5"/>
<path d="M215.69 389.02L197.01 389.02"
fill="none" stroke="black" stroke-width="0.5"/>
<path d="M197.01 376.36L197.01 400.22"
fill="none" stroke="RGB(1,1,1)" stroke-width="0.5"/>
<path d="M480.72 350.56L548.55 350.56"
fill="none" stroke="black" stroke-width="0.5"/>
<path d="M548.55 350.56L548.55 219.84"
fill="none" stroke="black" stroke-width="0.5"/>
<path d="M548.55 219.84L529.88 219.84"
fill="none" stroke="black" stroke-width="0.5"/>
<path d="M496.27 219.54L463.14 219.54"
fill="none" stroke="black" stroke-width="0.5"/>
<path d="M463.14 213.94L463.14 225.14"
fill="none" stroke="RGB(1,1,1)" stroke-width="0.5"/>
<path d="M470.77 213.94L470.77 225.14"
fill="none" stroke="black" stroke-width="0.5"/>
<path d="M479.71 219.69L479.71 213.94"
fill="none" stroke="black" stroke-width="0.5"/>
<path d="M479.71 219.69L479.71 225.14"
fill="none" stroke="black" stroke-width="0.5"/>
<path d="M479.71 225.14L470.77 219.54"
fill="none" stroke="black" stroke-width="0.5"/>
<path d="M470.77 219.54L479.71 213.94"
fill="none" stroke="black" stroke-width="0.5"/>
<path d="M470.77 213.94L463.74 205.21"
fill="none" stroke="black" stroke-width="0.5"/>
<path d="M463.74 205.21L466.09 209.58"
fill="none" stroke="black" stroke-width="0.5"/>
<path d="M463.74 205.21L467.26 208.25"
fill="none" stroke="black" stroke-width="0.5"/>
<path d="M463.74 205.21L466.09 209.58"
fill="none" stroke="RGB(1,1,1)" stroke-width="0.5"/>
<path d="M463.74 205.21L467.26 208.25"
fill="none" stroke="RGB(1,1,1)" stroke-width="0.5"/>
<path d="M466.09 209.58L466.08 208.12"
fill="none" stroke="RGB(1,1,1)" stroke-width="0.5"/>
<path d="M466.08 208.12L467.26 208.25"
fill="none" stroke="RGB(1,1,1)" stroke-width="0.5"/>
<path d="M473.24 211.98L466.21 203.26"
fill="none" stroke="black" stroke-width="0.5"/>
<path d="M466.21 203.26L468.56 207.62"
fill="none" stroke="RGB(1,1,1)" stroke-width="0.5"/>
<path d="M466.21 203.26L469.73 206.29"
fill="none" stroke="RGB(1,1,1)" stroke-width="0.5"/>
<path d="M468.56 207.62L468.55 206.16"
fill="none" stroke="RGB(1,1,1)" stroke-width="0.5"/>
<path d="M468.55 206.16L469.73 206.29"
fill="none" stroke="RGB(1,1,1)" stroke-width="0.5"/>
<path d="M399.16 350.56L432.16 350.56"
fill="none" stroke="black" stroke-width="0.5"/>
<path d="M350.61 320.54L399.16 320.54"
fill="none" stroke="black" stroke-width="0.5"/>
<path d="M399.16 320.54L399.16 398.97"
fill="none" stroke="black" stroke-width="0.5"/>
<path d="M399.16 398.97L350.61 398.97"
fill="none" stroke="black" stroke-width="0.5"/>
<path d="M350.61 398.97L350.61 320.54"
fill="none" stroke="black" stroke-width="0.5"/>
<path d="M529.88 225.14L496.27 225.14"
fill="none" stroke="black" stroke-width="0.5"/>
<path d="M496.27 225.14L496.27 213.94"
fill="none" stroke="black" stroke-width="0.5"/>
<path d="M496.27 213.94L529.88 213.94"
fill="none" stroke="black" stroke-width="0.5"/>
<path d="M529.88 213.94L529.88 225.14"
fill="none" stroke="black" stroke-width="0.5"/>
<path d="M432.16 320.54L480.72 320.54"
fill="none" stroke="black" stroke-width="0.5"/>
<path d="M480.72 320.54L480.72 398.97"
fill="none" stroke="black" stroke-width="0.5"/>
<path d="M480.72 398.97L432.16 398.97"
fill="none" stroke="black" stroke-width="0.5"/>
<path d="M432.16 398.97L432.16 320.54"
fill="none" stroke="black" stroke-width="0.5"/>
<path d="M7.84 577.31L7.84 22.69"
fill="none" stroke="black" stroke-width="0.5"/>
<path d="M7.84 22.69L792.16 22.69"
fill="none" stroke="black" stroke-width="0.5"/>
<path d="M792.16 22.69L792.16 577.31"
fill="none" stroke="black" stroke-width="0.5"/>
<path d="M792.16 577.31L7.84 577.31"
fill="none" stroke="black" stroke-width="0.5"/>
<path d="M370.59 323.99L371.75 323.99M371.75 323.99L372.74 324.61M372.74 324.61L373.15 325.24M373.15 325.24L374.61 337.06M373.47 328.35L367.66 337.06"
fill="none" stroke="black" stroke-width="0.5"/>
<path d="M361.03 393.19L364.53 380.12M364.53 380.12L368.58 380.12M368.58 380.12L370.15 380.74M370.15 380.74L370.98 381.99M370.98 381.99L371.22 383.23M371.22 383.23L371.3 385.1M371.3 385.1L370.47 388.21M370.47 388.21L369.39 390.08M369.39 390.08L368.48 391.32M368.48 391.32L366.98 392.57M366.98 392.57L365.08 393.19M365.08 393.19L361.03 393.19M377.85 380.12L384.21 380.12M384.21 380.12L379.41 385.1M379.41 385.1L381.14 385.1M381.14 385.1L382.13 385.72M382.13 385.72L382.55 386.35M382.55 386.35L382.62 388.21M382.62 388.21L382.29 389.46M382.29 389.46L381.21 391.32M381.21 391.32L379.72 392.57M379.72 392.57L377.82 393.19M377.82 393.19L376.08 393.19M376.08 393.19L374.51 392.57M374.51 392.57L374.1 391.95M374.1 391.95L373.85 390.7M385.68 391.95L384.93 392.57M384.93 392.57L385.34 393.19M385.34 393.19L386.09 392.57M393.39 382.61L394.71 381.99M394.71 381.99L396.95 380.12M396.95 380.12L393.45 393.19"
fill="none" stroke="black" stroke-width="0.5"/>
<path d="M454.15 195.58L457.65 182.5M465.75 182.5L462.25 195.58M455.98 188.73L464.09 188.73M470.39 182.5L466.88 195.58M466.88 195.58L473.83 195.58M479.56 184.99L480.88 184.37M480.88 184.37L483.12 182.5M483.12 182.5L479.62 195.58"
fill="none" stroke="black" stroke-width="0.5"/>
<path d="M249.67 319.9L248.85 318.66M248.85 318.66L247.28 318.03M247.28 318.03L244.96 318.03M244.96 318.03L243.06 318.66M243.06 318.66L241.57 319.9M241.57 319.9L241.23 321.15M241.23 321.15L241.48 322.39M241.48 322.39L241.89 323.01M241.89 323.01L242.88 323.64M242.88 323.64L246.02 324.88M246.02 324.88L247.01 325.5M247.01 325.5L247.42 326.13M247.42 326.13L247.67 327.37M247.67 327.37L247.17 329.24M247.17 329.24L245.68 330.48M245.68 330.48L243.77 331.11M243.77 331.11L241.46 331.11M241.46 331.11L239.89 330.48M239.89 330.48L239.06 329.24M250.14 331.11L258.28 318.03M258.28 318.03L259.4 331.11M253.05 326.75L258.83 326.75M265.71 320.52L267.04 319.9M267.04 319.9L269.27 318.03M269.27 318.03L265.77 331.11"
fill="none" stroke="black" stroke-width="0.5"/>
<path d="M249.67 370.78L248.85 369.54M248.85 369.54L247.28 368.92M247.28 368.92L244.96 368.92M244.96 368.92L243.06 369.54M243.06 369.54L241.57 370.78M241.57 370.78L241.23 372.03M241.23 372.03L241.48 373.27M241.48 373.27L241.89 373.9M241.89 373.9L242.88 374.52M242.88 374.52L246.02 375.76M246.02 375.76L247.01 376.39M247.01 376.39L247.42 377.01M247.42 377.01L247.67 378.25M247.67 378.25L247.17 380.12M247.17 380.12L245.68 381.37M245.68 381.37L243.77 381.99M243.77 381.99L241.46 381.99M241.46 381.99L239.89 381.37M239.89 381.37L239.06 380.12M250.14 381.99L258.28 368.92M258.28 368.92L259.4 381.99M253.05 377.63L258.83 377.63M266.12 372.03L266.29 371.41M266.29 371.41L267.2 370.16M267.2 370.16L267.95 369.54M267.95 369.54L269.27 368.92M269.27 368.92L271.59 368.92M271.59 368.92L272.58 369.54M272.58 369.54L272.99 370.16M272.99 370.16L273.24 371.41M273.24 371.41L272.9 372.65M272.9 372.65L271.99 373.9M271.99 373.9L270.33 375.76M270.33 375.76L262.88 381.99M262.88 381.99L270.98 381.99"
fill="none" stroke="black" stroke-width="0.5"/>
<path d="M452.14 323.99L453.3 323.99M453.3 323.99L454.29 324.61M454.29 324.61L454.7 325.24M454.7 325.24L456.17 337.06M455.03 328.35L449.22 337.06"
fill="none" stroke="black" stroke-width="0.5"/>
<path d="M442.58 393.19L446.09 380.12M446.09 380.12L450.14 380.12M450.14 380.12L451.71 380.74M451.71 380.74L452.53 381.99M452.53 381.99L452.78 383.23M452.78 383.23L452.86 385.1M452.86 385.1L452.02 388.21M452.02 388.21L450.94 390.08M450.94 390.08L450.03 391.32M450.03 391.32L448.54 392.57M448.54 392.57L446.64 393.19M446.64 393.19L442.58 393.19M457.99 383.23L458.15 382.61M458.15 382.61L459.07 381.37M459.07 381.37L459.81 380.74M459.81 380.74L461.14 380.12M461.14 380.12L463.45 380.12M463.45 380.12L464.44 380.74M464.44 380.74L464.86 381.37M464.86 381.37L465.1 382.61M465.1 382.61L464.77 383.86M464.77 383.86L463.86 385.1M463.86 385.1L462.2 386.97M462.2 386.97L454.74 393.19M454.74 393.19L462.84 393.19M467.23 391.95L466.49 392.57M466.49 392.57L466.9 393.19M466.9 393.19L467.64 392.57M475.35 383.23L475.52 382.61M475.52 382.61L476.43 381.37M476.43 381.37L477.18 380.74M477.18 380.74L478.5 380.12M478.5 380.12L480.82 380.12M480.82 380.12L481.81 380.74M481.81 380.74L482.22 381.37M482.22 381.37L482.47 382.61M482.47 382.61L482.13 383.86M482.13 383.86L481.22 385.1M481.22 385.1L479.56 386.97M479.56 386.97L472.11 393.19M472.11 393.19L480.21 393.19"
fill="none" stroke="black" stroke-width="0.5"/>
</svg>
