<?xml version="1.0" encoding="UTF-8" standalone="no"?>
<svg
   xmlns:dc="http://purl.org/dc/elements/1.1/"
   xmlns:cc="http://creativecommons.org/ns#"
   xmlns:rdf="http://www.w3.org/1999/02/22-rdf-syntax-ns#"
   xmlns:svg="http://www.w3.org/2000/svg"
   xmlns="http://www.w3.org/2000/svg"
   xmlns:sodipodi="http://sodipodi.sourceforge.net/DTD/sodipodi-0.dtd"
   xmlns:inkscape="http://www.inkscape.org/namespaces/inkscape"
   width="800.000"
   height="600.000"
   viewBox="0.0 0.0 800.000 600.000"
   version="1.1"
   id="svg138"
   sodipodi:docname="1-4.svg"
   inkscape:version="0.92.3 (2405546, 2018-03-11)">
  <metadata
     id="metadata144">
    <rdf:RDF>
      <cc:Work
         rdf:about="">
        <dc:format>image/svg+xml</dc:format>
        <dc:type
           rdf:resource="http://purl.org/dc/dcmitype/StillImage" />
      </cc:Work>
    </rdf:RDF>
  </metadata>
  <defs
     id="defs142" />
  <sodipodi:namedview
     pagecolor="#ffffff"
     bordercolor="#666666"
     borderopacity="1"
     objecttolerance="10"
     gridtolerance="10"
     guidetolerance="10"
     inkscape:pageopacity="0"
     inkscape:pageshadow="2"
     inkscape:window-width="1920"
     inkscape:window-height="1017"
     id="namedview140"
     showgrid="false"
     inkscape:zoom="2.87"
     inkscape:cx="416.62922"
     inkscape:cy="274.10704"
     inkscape:window-x="-8"
     inkscape:window-y="-8"
     inkscape:window-maximized="1"
     inkscape:current-layer="svg138" />
  <title
     id="title2">Produce by Acme CAD Converter</title>
  <desc
     id="desc4">Produce by Acme CAD Converter</desc>
  <path
     d="m 480.01728,240.22202 v -2.33 l -2.34,-2.02 z"
     id="path6"
     inkscape:connector-curvature="0"
     style="fill:#000000;fill-rule:evenodd"
     inkscape:export-xdpi="300"
     inkscape:export-ydpi="300" />
  <path
     d="m 480.01728,240.22202 0.01,0.02 -0.01,-1.46 z"
     id="path8"
     inkscape:connector-curvature="0"
     style="fill:#000000;fill-rule:evenodd"
     inkscape:export-xdpi="300"
     inkscape:export-ydpi="300" />
  <path
     d="m 480.01728,238.78202 h 0.01 l -0.01,-0.89 z"
     id="path10"
     inkscape:connector-curvature="0"
     style="fill:#000000;fill-rule:evenodd"
     inkscape:export-xdpi="300"
     inkscape:export-ydpi="300" />
  <path
     d="m 480.02728,238.78202 v -0.88 l -0.01,-0.01 z"
     id="path12"
     inkscape:connector-curvature="0"
     style="fill:#000000;fill-rule:evenodd"
     inkscape:export-xdpi="300"
     inkscape:export-ydpi="300" />
  <path
     d="m 480.02728,238.78202 1.17,0.13 -1.17,-1.01 z"
     id="path14"
     inkscape:connector-curvature="0"
     style="fill:#000000;fill-rule:evenodd"
     inkscape:export-xdpi="300"
     inkscape:export-ydpi="300" />
  <path
     d="m 482.48728,238.26202 v -2.32 l -2.34,-2.02 z"
     id="path16"
     inkscape:connector-curvature="0"
     style="fill:#000000;fill-rule:evenodd"
     inkscape:export-xdpi="300"
     inkscape:export-ydpi="300" />
  <path
     d="m 482.48728,238.26202 0.01,0.02 -0.01,-1.46 z"
     id="path18"
     inkscape:connector-curvature="0"
     style="fill:#000000;fill-rule:evenodd"
     inkscape:export-xdpi="300"
     inkscape:export-ydpi="300" />
  <path
     d="m 482.48728,236.82202 h 0.01 l -0.01,-0.88 z"
     id="path20"
     inkscape:connector-curvature="0"
     style="fill:#000000;fill-rule:evenodd"
     inkscape:export-xdpi="300"
     inkscape:export-ydpi="300" />
  <path
     d="m 482.49728,236.82202 v -0.88 h -0.01 z"
     id="path22"
     inkscape:connector-curvature="0"
     style="fill:#000000;fill-rule:evenodd"
     inkscape:export-xdpi="300"
     inkscape:export-ydpi="300" />
  <path
     d="m 482.49728,236.82202 1.17,0.13 -1.17,-1.01 z"
     id="path24"
     inkscape:connector-curvature="0"
     style="fill:#000000;fill-rule:evenodd"
     inkscape:export-xdpi="300"
     inkscape:export-ydpi="300" />
  <path
     d="m 364.54728,368.80202 h -112.05"
     id="path26"
     inkscape:connector-curvature="0"
     style="fill:none;stroke:#000000;stroke-width:0.5"
     inkscape:export-xdpi="300"
     inkscape:export-ydpi="300" />
  <path
     d="m 252.49728,368.80202 -22.87,-12.66"
     id="path28"
     inkscape:connector-curvature="0"
     style="fill:none;stroke:#000000;stroke-width:0.5"
     inkscape:export-xdpi="300"
     inkscape:export-ydpi="300" />
  <path
     d="m 229.62728,368.80202 h -18.68"
     id="path30"
     inkscape:connector-curvature="0"
     style="fill:none;stroke:#000000;stroke-width:0.5"
     inkscape:export-xdpi="300"
     inkscape:export-ydpi="300" />
  <path
     d="m 210.94728,368.80202 v -12.66"
     id="path32"
     inkscape:connector-curvature="0"
     style="fill:none;stroke:#000000;stroke-width:0.5"
     inkscape:export-xdpi="300"
     inkscape:export-ydpi="300" />
  <path
     d="m 210.94728,368.80202 v 11.2"
     id="path34"
     inkscape:connector-curvature="0"
     style="fill:none;stroke:#000000;stroke-width:0.5"
     inkscape:export-xdpi="300"
     inkscape:export-ydpi="300" />
  <path
     d="m 210.94728,356.14202 v 23.86"
     stroke="RGB(1,1,1)"
     id="path36"
     inkscape:connector-curvature="0"
     style="fill:none;stroke-width:0.5"
     inkscape:export-xdpi="300"
     inkscape:export-ydpi="300" />
  <path
     d="m 364.54728,419.68202 h -112.05"
     id="path38"
     inkscape:connector-curvature="0"
     style="fill:none;stroke:#000000;stroke-width:0.5"
     inkscape:export-xdpi="300"
     inkscape:export-ydpi="300" />
  <path
     d="m 252.49728,419.68202 -22.87,-12.66"
     id="path40"
     inkscape:connector-curvature="0"
     style="fill:none;stroke:#000000;stroke-width:0.5"
     inkscape:export-xdpi="300"
     inkscape:export-ydpi="300" />
  <path
     d="m 229.62728,419.68202 h -18.68"
     id="path42"
     inkscape:connector-curvature="0"
     style="fill:none;stroke:#000000;stroke-width:0.5"
     inkscape:export-xdpi="300"
     inkscape:export-ydpi="300" />
  <path
     d="m 210.94728,407.02202 v 23.86"
     stroke="RGB(1,1,1)"
     id="path44"
     inkscape:connector-curvature="0"
     style="fill:none;stroke-width:0.5"
     inkscape:export-xdpi="300"
     inkscape:export-ydpi="300" />
  <path
     d="m 494.65728,381.22202 h 67.83"
     id="path46"
     inkscape:connector-curvature="0"
     style="fill:none;stroke:#000000;stroke-width:0.5"
     inkscape:export-xdpi="300"
     inkscape:export-ydpi="300" />
  <path
     d="m 562.48728,381.22202 v -130.72"
     id="path48"
     inkscape:connector-curvature="0"
     style="fill:none;stroke:#000000;stroke-width:0.5"
     inkscape:export-xdpi="300"
     inkscape:export-ydpi="300" />
  <path
     d="m 562.48728,250.50202 h -18.67"
     id="path50"
     inkscape:connector-curvature="0"
     style="fill:none;stroke:#000000;stroke-width:0.5"
     inkscape:export-xdpi="300"
     inkscape:export-ydpi="300" />
  <path
     d="m 510.20728,250.20202 h -33.13"
     id="path52"
     inkscape:connector-curvature="0"
     style="fill:none;stroke:#000000;stroke-width:0.5"
     inkscape:export-xdpi="300"
     inkscape:export-ydpi="300" />
  <path
     d="m 477.07728,244.60202 v 11.2"
     stroke="RGB(1,1,1)"
     id="path54"
     inkscape:connector-curvature="0"
     style="fill:none;stroke-width:0.5"
     inkscape:export-xdpi="300"
     inkscape:export-ydpi="300" />
  <path
     d="m 484.70728,244.60202 v 11.2"
     id="path56"
     inkscape:connector-curvature="0"
     style="fill:none;stroke:#000000;stroke-width:0.5"
     inkscape:export-xdpi="300"
     inkscape:export-ydpi="300" />
  <path
     d="m 493.64728,250.35202 v -5.75"
     id="path58"
     inkscape:connector-curvature="0"
     style="fill:none;stroke:#000000;stroke-width:0.5"
     inkscape:export-xdpi="300"
     inkscape:export-ydpi="300" />
  <path
     d="m 493.64728,250.35202 v 5.45"
     id="path60"
     inkscape:connector-curvature="0"
     style="fill:none;stroke:#000000;stroke-width:0.5"
     inkscape:export-xdpi="300"
     inkscape:export-ydpi="300" />
  <path
     d="m 493.64728,255.80202 -8.94,-5.6"
     id="path62"
     inkscape:connector-curvature="0"
     style="fill:none;stroke:#000000;stroke-width:0.5"
     inkscape:export-xdpi="300"
     inkscape:export-ydpi="300" />
  <path
     d="m 484.70728,250.20202 8.94,-5.6"
     id="path64"
     inkscape:connector-curvature="0"
     style="fill:none;stroke:#000000;stroke-width:0.5"
     inkscape:export-xdpi="300"
     inkscape:export-ydpi="300" />
  <path
     d="m 484.70728,244.60202 -7.03,-8.73"
     id="path66"
     inkscape:connector-curvature="0"
     style="fill:none;stroke:#000000;stroke-width:0.5"
     inkscape:export-xdpi="300"
     inkscape:export-ydpi="300" />
  <path
     d="m 477.67728,235.87202 2.35,4.37"
     id="path68"
     inkscape:connector-curvature="0"
     style="fill:none;stroke:#000000;stroke-width:0.5"
     inkscape:export-xdpi="300"
     inkscape:export-ydpi="300" />
  <path
     d="m 477.67728,235.87202 3.52,3.04"
     id="path70"
     inkscape:connector-curvature="0"
     style="fill:none;stroke:#000000;stroke-width:0.5"
     inkscape:export-xdpi="300"
     inkscape:export-ydpi="300" />
  <path
     d="m 477.67728,235.87202 2.35,4.37"
     stroke="RGB(1,1,1)"
     id="path72"
     inkscape:connector-curvature="0"
     style="fill:none;stroke-width:0.5"
     inkscape:export-xdpi="300"
     inkscape:export-ydpi="300" />
  <path
     d="m 477.67728,235.87202 3.52,3.04"
     stroke="RGB(1,1,1)"
     id="path74"
     inkscape:connector-curvature="0"
     style="fill:none;stroke-width:0.5"
     inkscape:export-xdpi="300"
     inkscape:export-ydpi="300" />
  <path
     d="m 480.02728,240.24202 -0.01,-1.46"
     stroke="RGB(1,1,1)"
     id="path76"
     inkscape:connector-curvature="0"
     style="fill:none;stroke-width:0.5"
     inkscape:export-xdpi="300"
     inkscape:export-ydpi="300" />
  <path
     d="m 480.01728,238.78202 1.18,0.13"
     stroke="RGB(1,1,1)"
     id="path78"
     inkscape:connector-curvature="0"
     style="fill:none;stroke-width:0.5"
     inkscape:export-xdpi="300"
     inkscape:export-ydpi="300" />
  <path
     d="m 487.17728,242.64202 -7.03,-8.72"
     id="path80"
     inkscape:connector-curvature="0"
     style="fill:none;stroke:#000000;stroke-width:0.5"
     inkscape:export-xdpi="300"
     inkscape:export-ydpi="300" />
  <path
     d="m 480.14728,233.92202 2.35,4.36"
     stroke="RGB(1,1,1)"
     id="path82"
     inkscape:connector-curvature="0"
     style="fill:none;stroke-width:0.5"
     inkscape:export-xdpi="300"
     inkscape:export-ydpi="300" />
  <path
     d="m 480.14728,233.92202 3.52,3.03"
     stroke="RGB(1,1,1)"
     id="path84"
     inkscape:connector-curvature="0"
     style="fill:none;stroke-width:0.5"
     inkscape:export-xdpi="300"
     inkscape:export-ydpi="300" />
  <path
     d="m 482.49728,238.28202 -0.01,-1.46"
     stroke="RGB(1,1,1)"
     id="path86"
     inkscape:connector-curvature="0"
     style="fill:none;stroke-width:0.5"
     inkscape:export-xdpi="300"
     inkscape:export-ydpi="300" />
  <path
     d="m 482.48728,236.82202 1.18,0.13"
     stroke="RGB(1,1,1)"
     id="path88"
     inkscape:connector-curvature="0"
     style="fill:none;stroke-width:0.5"
     inkscape:export-xdpi="300"
     inkscape:export-ydpi="300" />
  <path
     d="m 413.09728,381.22202 h 33"
     id="path90"
     inkscape:connector-curvature="0"
     style="fill:none;stroke:#000000;stroke-width:0.5"
     inkscape:export-xdpi="300"
     inkscape:export-ydpi="300" />
  <path
     d="m 364.54728,351.20202 h 48.55"
     id="path92"
     inkscape:connector-curvature="0"
     style="fill:none;stroke:#000000;stroke-width:0.5"
     inkscape:export-xdpi="300"
     inkscape:export-ydpi="300" />
  <path
     d="m 413.09728,351.20202 v 78.43"
     id="path94"
     inkscape:connector-curvature="0"
     style="fill:none;stroke:#000000;stroke-width:0.5"
     inkscape:export-xdpi="300"
     inkscape:export-ydpi="300" />
  <path
     d="m 413.09728,429.63202 h -48.55"
     id="path96"
     inkscape:connector-curvature="0"
     style="fill:none;stroke:#000000;stroke-width:0.5"
     inkscape:export-xdpi="300"
     inkscape:export-ydpi="300" />
  <path
     d="m 364.54728,429.63202 v -78.43"
     id="path98"
     inkscape:connector-curvature="0"
     style="fill:none;stroke:#000000;stroke-width:0.5"
     inkscape:export-xdpi="300"
     inkscape:export-ydpi="300" />
  <path
     d="m 543.81728,255.80202 h -33.61"
     id="path100"
     inkscape:connector-curvature="0"
     style="fill:none;stroke:#000000;stroke-width:0.5"
     inkscape:export-xdpi="300"
     inkscape:export-ydpi="300" />
  <path
     d="m 510.20728,255.80202 v -11.2"
     id="path102"
     inkscape:connector-curvature="0"
     style="fill:none;stroke:#000000;stroke-width:0.5"
     inkscape:export-xdpi="300"
     inkscape:export-ydpi="300" />
  <path
     d="m 510.20728,244.60202 h 33.61"
     id="path104"
     inkscape:connector-curvature="0"
     style="fill:none;stroke:#000000;stroke-width:0.5"
     inkscape:export-xdpi="300"
     inkscape:export-ydpi="300" />
  <path
     d="m 543.81728,244.60202 v 11.2"
     id="path106"
     inkscape:connector-curvature="0"
     style="fill:none;stroke:#000000;stroke-width:0.5"
     inkscape:export-xdpi="300"
     inkscape:export-ydpi="300" />
  <path
     d="m 446.09728,351.20202 h 48.56"
     id="path108"
     inkscape:connector-curvature="0"
     style="fill:none;stroke:#000000;stroke-width:0.5"
     inkscape:export-xdpi="300"
     inkscape:export-ydpi="300" />
  <path
     d="m 494.65728,351.20202 v 78.43"
     id="path110"
     inkscape:connector-curvature="0"
     style="fill:none;stroke:#000000;stroke-width:0.5"
     inkscape:export-xdpi="300"
     inkscape:export-ydpi="300" />
  <path
     d="m 494.65728,429.63202 h -48.56"
     id="path112"
     inkscape:connector-curvature="0"
     style="fill:none;stroke:#000000;stroke-width:0.5"
     inkscape:export-xdpi="300"
     inkscape:export-ydpi="300" />
  <path
     d="m 446.09728,429.63202 v -78.43"
     id="path114"
     inkscape:connector-curvature="0"
     style="fill:none;stroke:#000000;stroke-width:0.5"
     inkscape:export-xdpi="300"
     inkscape:export-ydpi="300" />
  <path
     d="M7.84 577.31L7.84 22.69"
     fill="none"
     stroke="black"
     stroke-width="0.5"
     id="path116" />
  <path
     d="M7.84 22.69L792.16 22.69"
     fill="none"
     stroke="black"
     stroke-width="0.5"
     id="path118" />
  <path
     d="M792.16 22.69L792.16 577.31"
     fill="none"
     stroke="black"
     stroke-width="0.5"
     id="path120" />
  <path
     d="M792.16 577.31L7.84 577.31"
     fill="none"
     stroke="black"
     stroke-width="0.5"
     id="path122" />
  <path
     d="m 384.52728,354.65202 h 1.16 m 0,0 0.99,0.62 m 0,0 0.41,0.63 m 0,0 1.46,11.82 m -1.14,-8.71 -5.81,8.71"
     id="path124"
     inkscape:connector-curvature="0"
     style="fill:none;stroke:#000000;stroke-width:0.5"
     inkscape:export-xdpi="300"
     inkscape:export-ydpi="300" />
  <path
     d="m 374.96728,423.85202 3.5,-13.07 m 0,0 h 4.05 m 0,0 1.57,0.62 m 0,0 0.83,1.25 m 0,0 0.24,1.24 m 0,0 0.08,1.87 m 0,0 -0.83,3.11 m 0,0 -1.08,1.87 m 0,0 -0.91,1.24 m 0,0 -1.5,1.25 m 0,0 -1.9,0.62 m 0,0 h -4.05 m 14.99,-10.58 1.33,-0.62 m 0,0 2.23,-1.87 m 0,0 -3.5,13.07 m 7.28,-1.24 -0.75,0.62 m 0,0 0.42,0.62 m 0,0 0.74,-0.62 m 7.3,-9.96 1.33,-0.62 m 0,0 2.23,-1.87 m 0,0 -3.5,13.07"
     id="path126"
     inkscape:connector-curvature="0"
     style="fill:none;stroke:#000000;stroke-width:0.5"
     inkscape:export-xdpi="300"
     inkscape:export-ydpi="300" />
  <path
     d="m 468.08728,226.24202 3.5,-13.08 m 8.1,0 -3.5,13.08 m -6.27,-6.85 h 8.11 m 6.3,-6.23 -3.51,13.08 m 0,0 h 6.95 m 5.73,-10.59 1.32,-0.62 m 0,0 2.24,-1.87 m 0,0 -3.5,13.08"
     id="path128"
     inkscape:connector-curvature="0"
     style="fill:none;stroke:#000000;stroke-width:0.5"
     inkscape:export-xdpi="300"
     inkscape:export-ydpi="300" />
  <path
     d="m 263.60728,350.56202 -0.82,-1.24 m 0,0 -1.57,-0.63 m 0,0 h -2.32 m 0,0 -1.9,0.63 m 0,0 -1.49,1.24 m 0,0 -0.34,1.25 m 0,0 0.25,1.24 m 0,0 0.41,0.62 m 0,0 0.99,0.63 m 0,0 3.14,1.24 m 0,0 0.99,0.62 m 0,0 0.41,0.63 m 0,0 0.25,1.24 m 0,0 -0.5,1.87 m 0,0 -1.49,1.24 m 0,0 -1.91,0.63 m 0,0 h -2.31 m 0,0 -1.57,-0.63 m 0,0 -0.83,-1.24 m 11.08,1.87 8.14,-13.08 m 0,0 1.12,13.08 m -6.35,-4.36 h 5.78 m 6.88,-6.23 1.33,-0.62 m 0,0 2.23,-1.87 m 0,0 -3.5,13.08"
     id="path130"
     inkscape:connector-curvature="0"
     style="fill:none;stroke:#000000;stroke-width:0.5"
     inkscape:export-xdpi="300"
     inkscape:export-ydpi="300" />
  <path
     d="m 263.60728,401.44202 -0.82,-1.24 m 0,0 -1.57,-0.62 m 0,0 h -2.32 m 0,0 -1.9,0.62 m 0,0 -1.49,1.24 m 0,0 -0.34,1.25 m 0,0 0.25,1.24 m 0,0 0.41,0.63 m 0,0 0.99,0.62 m 0,0 3.14,1.24 m 0,0 0.99,0.63 m 0,0 0.41,0.62 m 0,0 0.25,1.24 m 0,0 -0.5,1.87 m 0,0 -1.49,1.25 m 0,0 -1.91,0.62 m 0,0 h -2.31 m 0,0 -1.57,-0.62 m 0,0 -0.83,-1.25 m 11.08,1.87 8.14,-13.07 m 0,0 1.12,13.07 m -6.35,-4.36 h 5.78 m 7.29,-5.6 0.17,-0.62 m 0,0 0.91,-1.25 m 0,0 0.75,-0.62 m 0,0 1.32,-0.62 m 0,0 h 2.32 m 0,0 0.99,0.62 m 0,0 0.41,0.62 m 0,0 0.25,1.25 m 0,0 -0.34,1.24 m 0,0 -0.91,1.25 m 0,0 -1.66,1.86 m 0,0 -7.45,6.23 m 0,0 h 8.1"
     id="path132"
     inkscape:connector-curvature="0"
     style="fill:none;stroke:#000000;stroke-width:0.5"
     inkscape:export-xdpi="300"
     inkscape:export-ydpi="300" />
  <path
     d="m 466.07728,354.65202 h 1.16 m 0,0 0.99,0.62 m 0,0 0.41,0.63 m 0,0 1.47,11.82 m -1.14,-8.71 -5.81,8.71"
     id="path134"
     inkscape:connector-curvature="0"
     style="fill:none;stroke:#000000;stroke-width:0.5"
     inkscape:export-xdpi="300"
     inkscape:export-ydpi="300" />
  <path
     d="m 456.51728,423.85202 3.51,-13.07 m 0,0 h 4.05 m 0,0 1.57,0.62 m 0,0 0.82,1.25 m 0,0 0.25,1.24 m 0,0 0.08,1.87 m 0,0 -0.84,3.11 m 0,0 -1.08,1.87 m 0,0 -0.91,1.24 m 0,0 -1.49,1.25 m 0,0 -1.9,0.62 m 0,0 h -4.06 m 15,-10.58 1.32,-0.62 m 0,0 2.24,-1.87 m 0,0 -3.51,13.07 m 7.29,-1.24 -0.75,0.62 m 0,0 0.41,0.62 m 0,0 0.75,-0.62 m 7.71,-9.34 0.17,-0.62 m 0,0 0.91,-1.24 m 0,0 0.74,-0.63 m 0,0 1.33,-0.62 m 0,0 h 2.31 m 0,0 1,0.62 m 0,0 0.41,0.63 m 0,0 0.24,1.24 m 0,0 -0.33,1.25 m 0,0 -0.91,1.24 m 0,0 -1.66,1.87 m 0,0 -7.46,6.22 m 0,0 h 8.11"
     id="path136"
     inkscape:connector-curvature="0"
     style="fill:none;stroke:#000000;stroke-width:0.5"
     inkscape:export-xdpi="300"
     inkscape:export-ydpi="300" />
</svg>
