<?xml version="1.0" encoding="UTF-8"?>
<svg xmlns="http://www.w3.org/2000/svg" width="800.000" height="600.000" viewBox="0.0 0.0 800.000 600.000" version="1.1">
  <title>Produce by Acme CAD Converter</title>
  <desc>Produce by Acme CAD Converter</desc>
<path d="M376.45 97.52L376.45 95.19 374.11 93.17 376.45 97.52Z"
fill-rule="evenodd" fill="black"/>
<path d="M376.45 97.52L376.45 97.53 376.45 96.07 376.45 97.52Z"
fill-rule="evenodd" fill="black"/>
<path d="M376.45 96.07L376.45 96.07 376.45 95.19 376.45 96.07Z"
fill-rule="evenodd" fill="black"/>
<path d="M376.45 96.07L376.45 95.2 376.45 95.19 376.45 96.07Z"
fill-rule="evenodd" fill="black"/>
<path d="M376.45 96.07L377.62 96.21 376.45 95.2 376.45 96.07Z"
fill-rule="evenodd" fill="black"/>
<path d="M378.91 95.56L378.91 93.23 376.57 91.21 378.91 95.56Z"
fill-rule="evenodd" fill="black"/>
<path d="M378.91 95.56L378.92 95.57 378.91 94.11 378.91 95.56Z"
fill-rule="evenodd" fill="black"/>
<path d="M378.91 94.11L378.92 94.12 378.91 93.23 378.91 94.11Z"
fill-rule="evenodd" fill="black"/>
<path d="M378.92 94.12L378.92 93.24 378.91 93.23 378.92 94.12Z"
fill-rule="evenodd" fill="black"/>
<path d="M378.92 94.12L380.09 94.25 378.92 93.24 378.92 94.12Z"
fill-rule="evenodd" fill="black"/>
<path d="M343.14 208.49L391.69 208.49"
fill="none" stroke="black" stroke-width="0.5"/>
<path d="M391.69 208.49L391.69 286.93"
fill="none" stroke="black" stroke-width="0.5"/>
<path d="M391.69 286.93L343.14 286.93"
fill="none" stroke="black" stroke-width="0.5"/>
<path d="M343.14 286.93L343.14 208.49"
fill="none" stroke="black" stroke-width="0.5"/>
<path d="M343.14 226.09L231.09 226.09"
fill="none" stroke="black" stroke-width="0.5"/>
<path d="M231.09 226.09L208.22 213.43"
fill="none" stroke="black" stroke-width="0.5"/>
<path d="M208.22 226.09L189.54 226.09"
fill="none" stroke="black" stroke-width="0.5"/>
<path d="M189.54 226.09L189.54 213.43"
fill="none" stroke="black" stroke-width="0.5"/>
<path d="M189.54 226.09L189.54 237.3"
fill="none" stroke="black" stroke-width="0.5"/>
<path d="M189.54 213.43L189.54 237.3"
fill="none" stroke="RGB(1,1,1)" stroke-width="0.5"/>
<path d="M343.14 276.97L231.09 276.97"
fill="none" stroke="black" stroke-width="0.5"/>
<path d="M231.09 276.97L208.22 264.31"
fill="none" stroke="black" stroke-width="0.5"/>
<path d="M208.22 276.97L189.54 276.97"
fill="none" stroke="black" stroke-width="0.5"/>
<path d="M189.54 264.31L189.54 288.18"
fill="none" stroke="RGB(1,1,1)" stroke-width="0.5"/>
<path d="M391.69 238.51L458.92 238.51"
fill="none" stroke="black" stroke-width="0.5"/>
<path d="M458.92 238.51L458.92 107.79"
fill="none" stroke="black" stroke-width="0.5"/>
<path d="M458.92 107.79L440.24 107.79"
fill="none" stroke="black" stroke-width="0.5"/>
<path d="M440.24 113.1L406.63 113.1"
fill="none" stroke="black" stroke-width="0.5"/>
<path d="M406.63 113.1L406.63 101.89"
fill="none" stroke="black" stroke-width="0.5"/>
<path d="M406.63 101.89L440.24 101.89"
fill="none" stroke="black" stroke-width="0.5"/>
<path d="M440.24 101.89L440.24 113.1"
fill="none" stroke="black" stroke-width="0.5"/>
<path d="M406.63 107.5L373.51 107.79"
fill="none" stroke="black" stroke-width="0.5"/>
<path d="M373.51 101.89L373.51 113.1"
fill="none" stroke="RGB(1,1,1)" stroke-width="0.5"/>
<path d="M381.14 101.89L381.14 113.1"
fill="none" stroke="black" stroke-width="0.5"/>
<path d="M390.07 107.64L390.07 101.89"
fill="none" stroke="black" stroke-width="0.5"/>
<path d="M390.07 107.64L390.07 113.1"
fill="none" stroke="black" stroke-width="0.5"/>
<path d="M390.07 113.1L381.14 107.5"
fill="none" stroke="black" stroke-width="0.5"/>
<path d="M381.14 107.5L390.07 101.89"
fill="none" stroke="black" stroke-width="0.5"/>
<path d="M381.14 101.89L374.11 93.17"
fill="none" stroke="black" stroke-width="0.5"/>
<path d="M374.11 93.17L376.45 97.53"
fill="none" stroke="black" stroke-width="0.5"/>
<path d="M374.11 93.17L377.62 96.21"
fill="none" stroke="black" stroke-width="0.5"/>
<path d="M374.11 93.17L376.45 97.53"
fill="none" stroke="RGB(1,1,1)" stroke-width="0.5"/>
<path d="M374.11 93.17L377.62 96.21"
fill="none" stroke="RGB(1,1,1)" stroke-width="0.5"/>
<path d="M376.45 97.53L376.45 96.07"
fill="none" stroke="RGB(1,1,1)" stroke-width="0.5"/>
<path d="M376.45 96.07L377.62 96.21"
fill="none" stroke="RGB(1,1,1)" stroke-width="0.5"/>
<path d="M383.6 99.94L376.57 91.21"
fill="none" stroke="black" stroke-width="0.5"/>
<path d="M376.57 91.21L378.92 95.57"
fill="none" stroke="RGB(1,1,1)" stroke-width="0.5"/>
<path d="M376.57 91.21L380.09 94.25"
fill="none" stroke="RGB(1,1,1)" stroke-width="0.5"/>
<path d="M378.92 95.57L378.91 94.11"
fill="none" stroke="RGB(1,1,1)" stroke-width="0.5"/>
<path d="M378.91 94.11L380.09 94.25"
fill="none" stroke="RGB(1,1,1)" stroke-width="0.5"/>
<path d="M363.1 212.65L364.3 212.65M364.3 212.65L365.33 213.27M365.33 213.27L365.77 213.89M365.77 213.89L367.4 225.72M366.13 217L360.19 225.72"
fill="none" stroke="black" stroke-width="0.5"/>
<path d="M353.56 281.85L357.06 268.78M357.06 268.78L361.27 268.78M361.27 268.78L362.9 269.4M362.9 269.4L363.77 270.64M363.77 270.64L364.04 271.89M364.04 271.89L364.14 273.76M364.14 273.76L363.3 276.87M363.3 276.87L362.2 278.74M362.2 278.74L361.27 279.98M361.27 279.98L359.73 281.23M359.73 281.23L357.76 281.85M357.76 281.85L353.56 281.85M370.88 268.78L377.48 268.78M377.48 268.78L372.55 273.76M372.55 273.76L374.35 273.76M374.35 273.76L375.38 274.38M375.38 274.38L375.82 275M375.82 275L375.92 276.87M375.92 276.87L375.58 278.11M375.58 278.11L374.48 279.98M374.48 279.98L372.95 281.23M372.95 281.23L370.98 281.85M370.98 281.85L369.18 281.85M369.18 281.85L367.54 281.23M367.54 281.23L367.11 280.6M367.11 280.6L366.84 279.36M379.12 280.6L378.35 281.23M378.35 281.23L378.79 281.85M378.79 281.85L379.56 281.23M387.03 271.27L388.4 270.64M388.4 270.64L390.7 268.78M390.7 268.78L387.2 281.85"
fill="none" stroke="black" stroke-width="0.5"/>
<path d="M364.51 84.23L368.01 71.16M376.42 71.16L372.92 84.23M366.35 77.39L374.76 77.39M381.23 71.16L377.73 84.23M377.73 84.23L384.94 84.23M390.77 73.65L392.14 73.03M392.14 73.03L394.44 71.16M394.44 71.16L390.94 84.23"
fill="none" stroke="black" stroke-width="0.5"/>
<path d="M242.51 208.56L241.64 207.31M241.64 207.31L240 206.69M240 206.69L237.6 206.69M237.6 206.69L235.63 207.31M235.63 207.31L234.1 208.56M234.1 208.56L233.76 209.8M233.76 209.8L234.03 211.05M234.03 211.05L234.46 211.67M234.46 211.67L235.5 212.29M235.5 212.29L238.77 213.54M238.77 213.54L239.8 214.16M239.8 214.16L240.24 214.78M240.24 214.78L240.5 216.03M240.5 216.03L240 217.89M240 217.89L238.47 219.14M238.47 219.14L236.5 219.76M236.5 219.76L234.1 219.76M234.1 219.76L232.46 219.14M232.46 219.14L231.59 217.89M243.11 219.76L251.42 206.69M251.42 206.69L252.72 219.76M246.08 215.4L252.08 215.4M259.16 209.18L260.53 208.56M260.53 208.56L262.83 206.69M262.83 206.69L259.33 219.76"
fill="none" stroke="black" stroke-width="0.5"/>
<path d="M242.51 259.44L241.64 258.19M241.64 258.19L240 257.57M240 257.57L237.6 257.57M237.6 257.57L235.63 258.19M235.63 258.19L234.1 259.44M234.1 259.44L233.76 260.68M233.76 260.68L234.03 261.93M234.03 261.93L234.46 262.55M234.46 262.55L235.5 263.17M235.5 263.17L238.77 264.42M238.77 264.42L239.8 265.04M239.8 265.04L240.24 265.66M240.24 265.66L240.5 266.91M240.5 266.91L240 268.78M240 268.78L238.47 270.02M238.47 270.02L236.5 270.64M236.5 270.64L234.1 270.64M234.1 270.64L232.46 270.02M232.46 270.02L231.59 268.78M243.11 270.64L251.42 257.57M251.42 257.57L252.72 270.64M246.08 266.29L252.08 266.29M259.59 260.68L259.76 260.06M259.76 260.06L260.69 258.82M260.69 258.82L261.46 258.19M261.46 258.19L262.83 257.57M262.83 257.57L265.23 257.57M265.23 257.57L266.27 258.19M266.27 258.19L266.7 258.82M266.7 258.82L266.97 260.06M266.97 260.06L266.63 261.31M266.63 261.31L265.7 262.55M265.7 262.55L264 264.42M264 264.42L256.32 270.64M256.32 270.64L264.73 270.64"
fill="none" stroke="black" stroke-width="0.5"/>
<path d="M7.84 577.31L7.84 22.69"
fill="none" stroke="black" stroke-width="0.5"/>
<path d="M7.84 22.69L792.16 22.69"
fill="none" stroke="black" stroke-width="0.5"/>
<path d="M792.16 22.69L792.16 577.31"
fill="none" stroke="black" stroke-width="0.5"/>
<path d="M792.16 577.31L7.84 577.31"
fill="none" stroke="black" stroke-width="0.5"/>
</svg>
