<?xml version="1.0" encoding="UTF-8"?>
<svg xmlns="http://www.w3.org/2000/svg" width="800.000" height="600.000" viewBox="0.0 0.0 800.000 600.000" version="1.1">
  <title>Produce by Acme CAD Converter</title>
  <desc>Produce by Acme CAD Converter</desc>
<path d="M466.08 209.56L466.08 207.23 463.74 205.21 466.08 209.56Z"
fill-rule="evenodd" fill="black"/>
<path d="M466.08 209.56L466.09 209.58 466.08 208.12 466.08 209.56Z"
fill-rule="evenodd" fill="black"/>
<path d="M466.08 208.12L466.09 208.12 466.08 207.23 466.08 208.12Z"
fill-rule="evenodd" fill="black"/>
<path d="M466.09 208.12L466.09 207.24 466.08 207.23 466.09 208.12Z"
fill-rule="evenodd" fill="black"/>
<path d="M466.09 208.12L467.26 208.25 466.09 207.24 466.09 208.12Z"
fill-rule="evenodd" fill="black"/>
<path d="M468.55 207.6L468.55 205.28 466.21 203.26 468.55 207.6Z"
fill-rule="evenodd" fill="black"/>
<path d="M468.55 207.6L468.56 207.62 468.55 206.16 468.55 207.6Z"
fill-rule="evenodd" fill="black"/>
<path d="M468.55 206.16L468.56 206.16 468.55 205.28 468.55 206.16Z"
fill-rule="evenodd" fill="black"/>
<path d="M468.56 206.16L468.56 205.28 468.55 205.28 468.56 206.16Z"
fill-rule="evenodd" fill="black"/>
<path d="M468.56 206.16L469.73 206.29 468.56 205.28 468.56 206.16Z"
fill-rule="evenodd" fill="black"/>
<path d="M350.61 320.54L399.16 320.54"
fill="none" stroke="black" stroke-width="0.5"/>
<path d="M399.16 320.54L399.16 398.97"
fill="none" stroke="black" stroke-width="0.5"/>
<path d="M399.16 398.97L350.61 398.97"
fill="none" stroke="black" stroke-width="0.5"/>
<path d="M350.61 398.97L350.61 320.54"
fill="none" stroke="black" stroke-width="0.5"/>
<path d="M350.61 338.14L238.56 338.14"
fill="none" stroke="black" stroke-width="0.5"/>
<path d="M238.56 338.14L215.69 325.48"
fill="none" stroke="black" stroke-width="0.5"/>
<path d="M215.69 338.14L197.01 338.14"
fill="none" stroke="black" stroke-width="0.5"/>
<path d="M197.01 338.14L197.01 325.48"
fill="none" stroke="black" stroke-width="0.5"/>
<path d="M197.01 338.14L197.01 349.34"
fill="none" stroke="black" stroke-width="0.5"/>
<path d="M197.01 325.48L197.01 349.34"
fill="none" stroke="RGB(1,1,1)" stroke-width="0.5"/>
<path d="M350.61 389.02L238.56 389.02"
fill="none" stroke="black" stroke-width="0.5"/>
<path d="M238.56 389.02L215.69 376.36"
fill="none" stroke="black" stroke-width="0.5"/>
<path d="M215.69 389.02L197.01 389.02"
fill="none" stroke="black" stroke-width="0.5"/>
<path d="M197.01 376.36L197.01 400.22"
fill="none" stroke="RGB(1,1,1)" stroke-width="0.5"/>
<path d="M480.72 350.56L548.55 350.56"
fill="none" stroke="black" stroke-width="0.5"/>
<path d="M548.55 350.56L548.55 219.84"
fill="none" stroke="black" stroke-width="0.5"/>
<path d="M548.55 219.84L529.88 219.84"
fill="none" stroke="black" stroke-width="0.5"/>
<path d="M529.88 225.14L496.27 225.14"
fill="none" stroke="black" stroke-width="0.5"/>
<path d="M496.27 225.14L496.27 213.94"
fill="none" stroke="black" stroke-width="0.5"/>
<path d="M496.27 213.94L529.88 213.94"
fill="none" stroke="black" stroke-width="0.5"/>
<path d="M529.88 213.94L529.88 225.14"
fill="none" stroke="black" stroke-width="0.5"/>
<path d="M496.27 219.54L463.14 219.54"
fill="none" stroke="black" stroke-width="0.5"/>
<path d="M463.14 213.94L463.14 225.14"
fill="none" stroke="RGB(1,1,1)" stroke-width="0.5"/>
<path d="M470.77 213.94L470.77 225.14"
fill="none" stroke="black" stroke-width="0.5"/>
<path d="M479.71 219.69L479.71 213.94"
fill="none" stroke="black" stroke-width="0.5"/>
<path d="M479.71 219.69L479.71 225.14"
fill="none" stroke="black" stroke-width="0.5"/>
<path d="M479.71 225.14L470.77 219.54"
fill="none" stroke="black" stroke-width="0.5"/>
<path d="M470.77 219.54L479.71 213.94"
fill="none" stroke="black" stroke-width="0.5"/>
<path d="M470.77 213.94L463.74 205.21"
fill="none" stroke="black" stroke-width="0.5"/>
<path d="M463.74 205.21L466.09 209.58"
fill="none" stroke="black" stroke-width="0.5"/>
<path d="M463.74 205.21L467.26 208.25"
fill="none" stroke="black" stroke-width="0.5"/>
<path d="M463.74 205.21L466.09 209.58"
fill="none" stroke="RGB(1,1,1)" stroke-width="0.5"/>
<path d="M463.74 205.21L467.26 208.25"
fill="none" stroke="RGB(1,1,1)" stroke-width="0.5"/>
<path d="M466.09 209.58L466.08 208.12"
fill="none" stroke="RGB(1,1,1)" stroke-width="0.5"/>
<path d="M466.08 208.12L467.26 208.25"
fill="none" stroke="RGB(1,1,1)" stroke-width="0.5"/>
<path d="M473.24 211.98L466.21 203.26"
fill="none" stroke="black" stroke-width="0.5"/>
<path d="M466.21 203.26L468.56 207.62"
fill="none" stroke="RGB(1,1,1)" stroke-width="0.5"/>
<path d="M466.21 203.26L469.73 206.29"
fill="none" stroke="RGB(1,1,1)" stroke-width="0.5"/>
<path d="M468.56 207.62L468.55 206.16"
fill="none" stroke="RGB(1,1,1)" stroke-width="0.5"/>
<path d="M468.55 206.16L469.73 206.29"
fill="none" stroke="RGB(1,1,1)" stroke-width="0.5"/>
<path d="M432.16 320.54L480.72 320.54"
fill="none" stroke="black" stroke-width="0.5"/>
<path d="M480.72 320.54L480.72 398.97"
fill="none" stroke="black" stroke-width="0.5"/>
<path d="M480.72 398.97L432.16 398.97"
fill="none" stroke="black" stroke-width="0.5"/>
<path d="M432.16 398.97L432.16 320.54"
fill="none" stroke="black" stroke-width="0.5"/>
<path d="M399.16 350.56L432.16 350.56"
fill="none" stroke="black" stroke-width="0.5"/>
<path d="M350.61 439.52L238.56 439.52"
fill="none" stroke="black" stroke-width="0.5"/>
<path d="M238.56 439.52L215.69 426.86"
fill="none" stroke="black" stroke-width="0.5"/>
<path d="M215.69 439.52L197.01 439.52"
fill="none" stroke="black" stroke-width="0.5"/>
<path d="M197.01 439.52L197.01 426.86"
fill="none" stroke="black" stroke-width="0.5"/>
<path d="M197.01 439.52L197.01 450.73"
fill="none" stroke="black" stroke-width="0.5"/>
<path d="M197.01 426.86L197.01 450.73"
fill="none" stroke="RGB(1,1,1)" stroke-width="0.5"/>
<path d="M350.61 439.52L415.66 439.52"
fill="none" stroke="black" stroke-width="0.5"/>
<path d="M415.66 439.52L415.66 389.02"
fill="none" stroke="black" stroke-width="0.5"/>
<path d="M415.66 389.02L432.16 388.83"
fill="none" stroke="black" stroke-width="0.5"/>
<path d="M370.57 324.69L371.77 324.69M371.77 324.69L372.8 325.31M372.8 325.31L373.24 325.94M373.24 325.94L374.87 337.76M373.6 329.05L367.66 337.76"
fill="none" stroke="black" stroke-width="0.5"/>
<path d="M361.03 393.89L364.53 380.82M364.53 380.82L368.74 380.82M368.74 380.82L370.37 381.44M370.37 381.44L371.24 382.69M371.24 382.69L371.51 383.93M371.51 383.93L371.61 385.8M371.61 385.8L370.77 388.91M370.77 388.91L369.67 390.78M369.67 390.78L368.74 392.03M368.74 392.03L367.2 393.27M367.2 393.27L365.23 393.89M365.23 393.89L361.03 393.89M378.35 380.82L384.95 380.82M384.95 380.82L380.02 385.8M380.02 385.8L381.82 385.8M381.82 385.8L382.85 386.42M382.85 386.42L383.29 387.05M383.29 387.05L383.39 388.91M383.39 388.91L383.05 390.16M383.05 390.16L381.95 392.03M381.95 392.03L380.42 393.27M380.42 393.27L378.45 393.89M378.45 393.89L376.65 393.89M376.65 393.89L375.01 393.27M375.01 393.27L374.58 392.65M374.58 392.65L374.31 391.4M386.59 392.65L385.82 393.27M385.82 393.27L386.26 393.89M386.26 393.89L387.02 393.27M394.5 383.31L395.87 382.69M395.87 382.69L398.17 380.82M398.17 380.82L394.67 393.89"
fill="none" stroke="black" stroke-width="0.5"/>
<path d="M454.15 196.28L457.65 183.21M466.06 183.21L462.56 196.28M455.98 189.43L464.39 189.43M470.87 183.21L467.36 196.28M467.36 196.28L474.57 196.28M480.41 185.7L481.78 185.07M481.78 185.07L484.08 183.21M484.08 183.21L480.58 196.28"
fill="none" stroke="black" stroke-width="0.5"/>
<path d="M249.98 320.6L249.11 319.36M249.11 319.36L247.47 318.73M247.47 318.73L245.07 318.73M245.07 318.73L243.1 319.36M243.1 319.36L241.57 320.6M241.57 320.6L241.23 321.85M241.23 321.85L241.5 323.09M241.5 323.09L241.93 323.71M241.93 323.71L242.97 324.34M242.97 324.34L246.24 325.58M246.24 325.58L247.27 326.2M247.27 326.2L247.71 326.83M247.71 326.83L247.97 328.07M247.97 328.07L247.47 329.94M247.47 329.94L245.94 331.18M245.94 331.18L243.97 331.81M243.97 331.81L241.57 331.81M241.57 331.81L239.93 331.18M239.93 331.18L239.06 329.94M250.58 331.81L258.89 318.73M258.89 318.73L260.19 331.81M253.55 327.45L259.55 327.45M266.63 321.22L268 320.6M268 320.6L270.3 318.73M270.3 318.73L266.8 331.81"
fill="none" stroke="black" stroke-width="0.5"/>
<path d="M249.98 371.48L249.11 370.24M249.11 370.24L247.47 369.62M247.47 369.62L245.07 369.62M245.07 369.62L243.1 370.24M243.1 370.24L241.57 371.48M241.57 371.48L241.23 372.73M241.23 372.73L241.5 373.97M241.5 373.97L241.93 374.6M241.93 374.6L242.97 375.22M242.97 375.22L246.24 376.46M246.24 376.46L247.27 377.09M247.27 377.09L247.71 377.71M247.71 377.71L247.97 378.95M247.97 378.95L247.47 380.82M247.47 380.82L245.94 382.07M245.94 382.07L243.97 382.69M243.97 382.69L241.57 382.69M241.57 382.69L239.93 382.07M239.93 382.07L239.06 380.82M250.58 382.69L258.89 369.62M258.89 369.62L260.19 382.69M253.55 378.33L259.55 378.33M267.06 372.73L267.23 372.11M267.23 372.11L268.16 370.86M268.16 370.86L268.93 370.24M268.93 370.24L270.3 369.62M270.3 369.62L272.7 369.62M272.7 369.62L273.74 370.24M273.74 370.24L274.17 370.86M274.17 370.86L274.44 372.11M274.44 372.11L274.1 373.35M274.1 373.35L273.17 374.6M273.17 374.6L271.47 376.46M271.47 376.46L263.79 382.69M263.79 382.69L272.2 382.69"
fill="none" stroke="black" stroke-width="0.5"/>
<path d="M452.12 324.69L453.32 324.69M453.32 324.69L454.36 325.31M454.36 325.31L454.79 325.94M454.79 325.94L456.43 337.76M455.16 329.05L449.22 337.76"
fill="none" stroke="black" stroke-width="0.5"/>
<path d="M442.58 393.89L446.09 380.82M446.09 380.82L450.29 380.82M450.29 380.82L451.93 381.44M451.93 381.44L452.79 382.69M452.79 382.69L453.06 383.93M453.06 383.93L453.16 385.8M453.16 385.8L452.33 388.91M452.33 388.91L451.23 390.78M451.23 390.78L450.29 392.03M450.29 392.03L448.76 393.27M448.76 393.27L446.79 393.89M446.79 393.89L442.58 393.89M459.9 380.82L466.51 380.82M466.51 380.82L461.57 385.8M461.57 385.8L463.37 385.8M463.37 385.8L464.41 386.42M464.41 386.42L464.84 387.05M464.84 387.05L464.94 388.91M464.94 388.91L464.61 390.16M464.61 390.16L463.51 392.03M463.51 392.03L461.97 393.27M461.97 393.27L460 393.89M460 393.89L458.2 393.89M458.2 393.89L456.57 393.27M456.57 393.27L456.13 392.65M456.13 392.65L455.86 391.4M468.15 392.65L467.38 393.27M467.38 393.27L467.81 393.89M467.81 393.89L468.58 393.27M476.49 383.93L476.65 383.31M476.65 383.31L477.59 382.07M477.59 382.07L478.36 381.44M478.36 381.44L479.72 380.82M479.72 380.82L482.13 380.82M482.13 380.82L483.16 381.44M483.16 381.44L483.6 382.07M483.6 382.07L483.86 383.31M483.86 383.31L483.53 384.56M483.53 384.56L482.59 385.8M482.59 385.8L480.89 387.67M480.89 387.67L473.22 393.89M473.22 393.89L481.63 393.89"
fill="none" stroke="black" stroke-width="0.5"/>
<path d="M249.98 421.99L249.11 420.74M249.11 420.74L247.47 420.12M247.47 420.12L245.07 420.12M245.07 420.12L243.1 420.74M243.1 420.74L241.57 421.99M241.57 421.99L241.23 423.23M241.23 423.23L241.5 424.48M241.5 424.48L241.93 425.1M241.93 425.1L242.97 425.72M242.97 425.72L246.24 426.97M246.24 426.97L247.27 427.59M247.27 427.59L247.71 428.21M247.71 428.21L247.97 429.46M247.97 429.46L247.47 431.32M247.47 431.32L245.94 432.57M245.94 432.57L243.97 433.19M243.97 433.19L241.57 433.19M241.57 433.19L239.93 432.57M239.93 432.57L239.06 431.32M250.58 433.19L258.89 420.12M258.89 420.12L260.19 433.19M253.55 428.83L259.55 428.83M268.5 420.12L275.1 420.12M275.1 420.12L270.17 425.1M270.17 425.1L271.97 425.1M271.97 425.1L273 425.72M273 425.72L273.44 426.34M273.44 426.34L273.54 428.21M273.54 428.21L273.2 429.46M273.2 429.46L272.1 431.32M272.1 431.32L270.57 432.57M270.57 432.57L268.6 433.19M268.6 433.19L266.8 433.19M266.8 433.19L265.16 432.57M265.16 432.57L264.73 431.95M264.73 431.95L264.46 430.7"
fill="none" stroke="black" stroke-width="0.5"/>
<path d="M7.84 577.31L7.84 22.69"
fill="none" stroke="black" stroke-width="0.5"/>
<path d="M7.84 22.69L792.16 22.69"
fill="none" stroke="black" stroke-width="0.5"/>
<path d="M792.16 22.69L792.16 577.31"
fill="none" stroke="black" stroke-width="0.5"/>
<path d="M792.16 577.31L7.84 577.31"
fill="none" stroke="black" stroke-width="0.5"/>
</svg>
