<?xml version="1.0" encoding="UTF-8"?>
<svg xmlns="http://www.w3.org/2000/svg" width="800.000" height="600.000" viewBox="0.0 0.0 800.000 600.000" version="1.1">
  <title>Produce by Acme CAD Converter</title>
  <desc>Produce by Acme CAD Converter</desc>
<path d="M503.43 261.85L503.43 259.52 501.09 257.5 503.43 261.85Z"
fill-rule="evenodd" fill="black"/>
<path d="M503.43 261.85L503.44 261.86 503.43 260.4 503.43 261.85Z"
fill-rule="evenodd" fill="black"/>
<path d="M503.43 260.4L503.44 260.41 503.43 259.52 503.43 260.4Z"
fill-rule="evenodd" fill="black"/>
<path d="M503.44 260.41L503.44 259.53 503.43 259.52 503.44 260.41Z"
fill-rule="evenodd" fill="black"/>
<path d="M503.44 260.41L504.61 260.54 503.44 259.53 503.44 260.41Z"
fill-rule="evenodd" fill="black"/>
<path d="M505.9 259.89L505.9 257.56 503.56 255.54 505.9 259.89Z"
fill-rule="evenodd" fill="black"/>
<path d="M505.9 259.89L505.91 259.91 505.9 258.45 505.9 259.89Z"
fill-rule="evenodd" fill="black"/>
<path d="M505.9 258.45L505.91 258.45 505.9 257.56 505.9 258.45Z"
fill-rule="evenodd" fill="black"/>
<path d="M505.91 258.45L505.91 257.57 505.9 257.56 505.91 258.45Z"
fill-rule="evenodd" fill="black"/>
<path d="M505.91 258.45L507.07 258.58 505.91 257.57 505.91 258.45Z"
fill-rule="evenodd" fill="black"/>
<path d="M387.96 309.34L436.51 309.34"
fill="none" stroke="black" stroke-width="0.5"/>
<path d="M436.51 309.34L436.51 387.77"
fill="none" stroke="black" stroke-width="0.5"/>
<path d="M436.51 387.77L387.96 387.77"
fill="none" stroke="black" stroke-width="0.5"/>
<path d="M387.96 387.77L387.96 309.34"
fill="none" stroke="black" stroke-width="0.5"/>
<path d="M387.96 326.93L275.91 326.93"
fill="none" stroke="black" stroke-width="0.5"/>
<path d="M275.91 326.93L253.04 314.27"
fill="none" stroke="black" stroke-width="0.5"/>
<path d="M253.04 326.93L234.36 326.93"
fill="none" stroke="black" stroke-width="0.5"/>
<path d="M234.36 326.93L234.36 314.27"
fill="none" stroke="black" stroke-width="0.5"/>
<path d="M234.36 326.93L234.36 338.14"
fill="none" stroke="black" stroke-width="0.5"/>
<path d="M234.36 314.27L234.36 338.14"
fill="none" stroke="RGB(1,1,1)" stroke-width="0.5"/>
<path d="M387.96 377.81L275.91 377.81"
fill="none" stroke="black" stroke-width="0.5"/>
<path d="M275.91 377.81L253.04 365.15"
fill="none" stroke="black" stroke-width="0.5"/>
<path d="M253.04 377.81L234.36 377.81"
fill="none" stroke="black" stroke-width="0.5"/>
<path d="M234.36 365.15L234.36 389.02"
fill="none" stroke="RGB(1,1,1)" stroke-width="0.5"/>
<path d="M542.34 402.89L585.9 402.84"
fill="none" stroke="black" stroke-width="0.5"/>
<path d="M585.9 402.84L585.9 272.12"
fill="none" stroke="black" stroke-width="0.5"/>
<path d="M585.9 272.12L567.23 272.12"
fill="none" stroke="black" stroke-width="0.5"/>
<path d="M567.23 277.43L533.61 277.43"
fill="none" stroke="black" stroke-width="0.5"/>
<path d="M533.61 277.43L533.61 266.23"
fill="none" stroke="black" stroke-width="0.5"/>
<path d="M533.61 266.23L567.23 266.23"
fill="none" stroke="black" stroke-width="0.5"/>
<path d="M567.23 266.23L567.23 277.43"
fill="none" stroke="black" stroke-width="0.5"/>
<path d="M533.61 271.83L500.49 271.83"
fill="none" stroke="black" stroke-width="0.5"/>
<path d="M500.49 266.23L500.49 277.43"
fill="none" stroke="RGB(1,1,1)" stroke-width="0.5"/>
<path d="M508.12 266.23L508.12 277.43"
fill="none" stroke="black" stroke-width="0.5"/>
<path d="M517.05 271.98L517.05 266.23"
fill="none" stroke="black" stroke-width="0.5"/>
<path d="M517.05 271.98L517.05 277.43"
fill="none" stroke="black" stroke-width="0.5"/>
<path d="M517.05 277.43L508.12 271.83"
fill="none" stroke="black" stroke-width="0.5"/>
<path d="M508.12 271.83L517.05 266.23"
fill="none" stroke="black" stroke-width="0.5"/>
<path d="M508.12 266.23L501.09 257.5"
fill="none" stroke="black" stroke-width="0.5"/>
<path d="M501.09 257.5L503.44 261.86"
fill="none" stroke="black" stroke-width="0.5"/>
<path d="M501.09 257.5L504.61 260.54"
fill="none" stroke="black" stroke-width="0.5"/>
<path d="M501.09 257.5L503.44 261.86"
fill="none" stroke="RGB(1,1,1)" stroke-width="0.5"/>
<path d="M501.09 257.5L504.61 260.54"
fill="none" stroke="RGB(1,1,1)" stroke-width="0.5"/>
<path d="M503.44 261.86L503.43 260.4"
fill="none" stroke="RGB(1,1,1)" stroke-width="0.5"/>
<path d="M503.43 260.4L504.61 260.54"
fill="none" stroke="RGB(1,1,1)" stroke-width="0.5"/>
<path d="M510.59 264.27L503.56 255.54"
fill="none" stroke="black" stroke-width="0.5"/>
<path d="M503.56 255.54L505.91 259.91"
fill="none" stroke="RGB(1,1,1)" stroke-width="0.5"/>
<path d="M503.56 255.54L507.07 258.58"
fill="none" stroke="RGB(1,1,1)" stroke-width="0.5"/>
<path d="M505.91 259.91L505.9 258.45"
fill="none" stroke="RGB(1,1,1)" stroke-width="0.5"/>
<path d="M505.9 258.45L507.07 258.58"
fill="none" stroke="RGB(1,1,1)" stroke-width="0.5"/>
<path d="M493.79 365.36L542.34 365.36"
fill="none" stroke="black" stroke-width="0.5"/>
<path d="M542.34 365.36L542.34 443.79"
fill="none" stroke="black" stroke-width="0.5"/>
<path d="M542.34 443.79L493.79 443.79"
fill="none" stroke="black" stroke-width="0.5"/>
<path d="M493.79 443.79L493.79 365.36"
fill="none" stroke="black" stroke-width="0.5"/>
<path d="M436.51 339.35L469.51 339.35"
fill="none" stroke="black" stroke-width="0.5"/>
<path d="M387.96 419.97L436.51 419.97"
fill="none" stroke="black" stroke-width="0.5"/>
<path d="M436.51 419.97L436.51 498.41"
fill="none" stroke="black" stroke-width="0.5"/>
<path d="M436.51 498.41L387.96 498.41"
fill="none" stroke="black" stroke-width="0.5"/>
<path d="M387.96 498.41L387.96 419.97"
fill="none" stroke="black" stroke-width="0.5"/>
<path d="M387.96 437.57L275.91 437.57"
fill="none" stroke="black" stroke-width="0.5"/>
<path d="M275.91 437.57L253.04 424.91"
fill="none" stroke="black" stroke-width="0.5"/>
<path d="M253.04 437.57L234.36 437.57"
fill="none" stroke="black" stroke-width="0.5"/>
<path d="M234.36 437.57L234.36 424.91"
fill="none" stroke="black" stroke-width="0.5"/>
<path d="M234.36 437.57L234.36 448.78"
fill="none" stroke="black" stroke-width="0.5"/>
<path d="M234.36 424.91L234.36 448.78"
fill="none" stroke="RGB(1,1,1)" stroke-width="0.5"/>
<path d="M387.96 488.45L275.91 488.45"
fill="none" stroke="black" stroke-width="0.5"/>
<path d="M275.91 488.45L253.04 475.79"
fill="none" stroke="black" stroke-width="0.5"/>
<path d="M253.04 488.45L234.36 488.45"
fill="none" stroke="black" stroke-width="0.5"/>
<path d="M234.36 475.79L234.36 499.66"
fill="none" stroke="RGB(1,1,1)" stroke-width="0.5"/>
<path d="M436.51 449.99L469.51 449.99"
fill="none" stroke="black" stroke-width="0.5"/>
<path d="M469.51 339.35L469.51 387.77"
fill="none" stroke="black" stroke-width="0.5"/>
<path d="M469.51 387.77L493.79 387.77"
fill="none" stroke="black" stroke-width="0.5"/>
<path d="M469.51 449.99L469.51 419.97"
fill="none" stroke="black" stroke-width="0.5"/>
<path d="M469.51 419.97L493.79 419.97"
fill="none" stroke="black" stroke-width="0.5"/>
<path d="M407.91 313.49L409.12 313.49M409.12 313.49L410.15 314.11M410.15 314.11L410.58 314.73M410.58 314.73L412.22 326.56M410.95 317.85L405.01 326.56"
fill="none" stroke="black" stroke-width="0.5"/>
<path d="M398.38 382.69L401.88 369.62M401.88 369.62L406.08 369.62M406.08 369.62L407.72 370.24M407.72 370.24L408.59 371.48M408.59 371.48L408.85 372.73M408.85 372.73L408.95 374.6M408.95 374.6L408.12 377.71M408.12 377.71L407.02 379.58M407.02 379.58L406.09 380.82M406.09 380.82L404.55 382.07M404.55 382.07L402.58 382.69M402.58 382.69L398.38 382.69M415.7 369.62L422.3 369.62M422.3 369.62L417.36 374.6M417.36 374.6L419.17 374.6M419.17 374.6L420.2 375.22M420.2 375.22L420.63 375.84M420.63 375.84L420.74 377.71M420.74 377.71L420.4 378.95M420.4 378.95L419.3 380.82M419.3 380.82L417.77 382.07M417.77 382.07L415.8 382.69M415.8 382.69L413.99 382.69M413.99 382.69L412.36 382.07M412.36 382.07L411.93 381.44M411.93 381.44L411.66 380.2M423.94 381.44L423.17 382.07M423.17 382.07L423.61 382.69M423.61 382.69L424.37 382.07M431.85 372.11L433.22 371.48M433.22 371.48L435.52 369.62M435.52 369.62L432.02 382.69"
fill="none" stroke="black" stroke-width="0.5"/>
<path d="M491.5 248.56L495 235.49M503.41 235.49L499.91 248.56M493.33 241.72L501.74 241.72M508.21 235.49L504.71 248.56M504.71 248.56L511.92 248.56M517.76 237.98L519.13 237.36M519.13 237.36L521.43 235.49M521.43 235.49L517.93 248.56"
fill="none" stroke="black" stroke-width="0.5"/>
<path d="M287.32 309.4L286.46 308.15M286.46 308.15L284.82 307.53M284.82 307.53L282.42 307.53M282.42 307.53L280.45 308.15M280.45 308.15L278.91 309.4M278.91 309.4L278.58 310.64M278.58 310.64L278.85 311.89M278.85 311.89L279.28 312.51M279.28 312.51L280.32 313.13M280.32 313.13L283.59 314.38M283.59 314.38L284.62 315M284.62 315L285.06 315.62M285.06 315.62L285.32 316.87M285.32 316.87L284.82 318.73M284.82 318.73L283.29 319.98M283.29 319.98L281.32 320.6M281.32 320.6L278.92 320.6M278.92 320.6L277.28 319.98M277.28 319.98L276.41 318.73M287.93 320.6L296.23 307.53M296.23 307.53L297.54 320.6M290.9 316.24L296.9 316.24M303.98 310.02L305.34 309.4M305.34 309.4L307.65 307.53M307.65 307.53L304.14 320.6"
fill="none" stroke="black" stroke-width="0.5"/>
<path d="M287.32 360.28L286.46 359.03M286.46 359.03L284.82 358.41M284.82 358.41L282.42 358.41M282.42 358.41L280.45 359.03M280.45 359.03L278.91 360.28M278.91 360.28L278.58 361.52M278.58 361.52L278.85 362.77M278.85 362.77L279.28 363.39M279.28 363.39L280.32 364.01M280.32 364.01L283.59 365.26M283.59 365.26L284.62 365.88M284.62 365.88L285.06 366.5M285.06 366.5L285.32 367.75M285.32 367.75L284.82 369.62M284.82 369.62L283.29 370.86M283.29 370.86L281.32 371.48M281.32 371.48L278.92 371.48M278.92 371.48L277.28 370.86M277.28 370.86L276.41 369.62M287.93 371.48L296.23 358.41M296.23 358.41L297.54 371.48M290.9 367.13L296.9 367.13M304.41 361.52L304.58 360.9M304.58 360.9L305.51 359.66M305.51 359.66L306.28 359.03M306.28 359.03L307.65 358.41M307.65 358.41L310.05 358.41M310.05 358.41L311.08 359.03M311.08 359.03L311.52 359.66M311.52 359.66L311.78 360.9M311.78 360.9L311.45 362.15M311.45 362.15L310.52 363.39M310.52 363.39L308.82 365.26M308.82 365.26L301.14 371.48M301.14 371.48L309.55 371.48"
fill="none" stroke="black" stroke-width="0.5"/>
<path d="M513.75 370.7L514.95 370.7M514.95 370.7L515.98 371.32M515.98 371.32L516.42 371.94M516.42 371.94L518.05 383.77M516.78 375.06L510.84 383.77"
fill="none" stroke="black" stroke-width="0.5"/>
<path d="M499.6 437.2L503.11 424.13M503.11 424.13L507.31 424.13M507.31 424.13L508.95 424.75M508.95 424.75L509.81 425.99M509.81 425.99L510.08 427.24M510.08 427.24L510.18 429.11M510.18 429.11L509.35 432.22M509.35 432.22L508.25 434.09M508.25 434.09L507.31 435.33M507.31 435.33L505.78 436.58M505.78 436.58L503.81 437.2M503.81 437.2L499.6 437.2M515.05 426.62L516.42 425.99M516.42 425.99L518.72 424.13M518.72 424.13L515.22 437.2M522.76 435.95L521.99 436.58M521.99 436.58L522.43 437.2M522.43 437.2L523.2 436.58M537.34 424.13L529 432.84M529 432.84L538.01 432.84M537.34 424.13L533.84 437.2"
fill="none" stroke="black" stroke-width="0.5"/>
<path d="M407.91 424.13L409.12 424.13M409.12 424.13L410.15 424.75M410.15 424.75L410.58 425.37M410.58 425.37L412.22 437.2M410.95 428.48L405.01 437.2"
fill="none" stroke="black" stroke-width="0.5"/>
<path d="M398.38 493.33L401.88 480.26M401.88 480.26L406.08 480.26M406.08 480.26L407.72 480.88M407.72 480.88L408.59 482.12M408.59 482.12L408.85 483.37M408.85 483.37L408.95 485.24M408.95 485.24L408.12 488.35M408.12 488.35L407.02 490.22M407.02 490.22L406.09 491.46M406.09 491.46L404.55 492.71M404.55 492.71L402.58 493.33M402.58 493.33L398.38 493.33M415.7 480.26L422.3 480.26M422.3 480.26L417.36 485.24M417.36 485.24L419.17 485.24M419.17 485.24L420.2 485.86M420.2 485.86L420.63 486.48M420.63 486.48L420.74 488.35M420.74 488.35L420.4 489.59M420.4 489.59L419.3 491.46M419.3 491.46L417.77 492.71M417.77 492.71L415.8 493.33M415.8 493.33L413.99 493.33M413.99 493.33L412.36 492.71M412.36 492.71L411.93 492.08M411.93 492.08L411.66 490.84M423.94 492.08L423.17 492.71M423.17 492.71L423.61 493.33M423.61 493.33L424.37 492.71M433.72 480.26L440.32 480.26M440.32 480.26L435.38 485.24M435.38 485.24L437.19 485.24M437.19 485.24L438.22 485.86M438.22 485.86L438.66 486.48M438.66 486.48L438.76 488.35M438.76 488.35L438.42 489.59M438.42 489.59L437.32 491.46M437.32 491.46L435.79 492.71M435.79 492.71L433.82 493.33M433.82 493.33L432.02 493.33M432.02 493.33L430.38 492.71M430.38 492.71L429.95 492.08M429.95 492.08L429.68 490.84"
fill="none" stroke="black" stroke-width="0.5"/>
<path d="M287.32 420.04L286.46 418.79M286.46 418.79L284.82 418.17M284.82 418.17L282.42 418.17M282.42 418.17L280.45 418.79M280.45 418.79L278.91 420.04M278.91 420.04L278.58 421.28M278.58 421.28L278.85 422.53M278.85 422.53L279.28 423.15M279.28 423.15L280.32 423.77M280.32 423.77L283.59 425.02M283.59 425.02L284.62 425.64M284.62 425.64L285.06 426.26M285.06 426.26L285.32 427.51M285.32 427.51L284.82 429.37M284.82 429.37L283.29 430.62M283.29 430.62L281.32 431.24M281.32 431.24L278.92 431.24M278.92 431.24L277.28 430.62M277.28 430.62L276.41 429.37M287.93 431.24L296.23 418.17M296.23 418.17L297.54 431.24M290.9 426.88L296.9 426.88M310.65 418.17L302.31 426.88M302.31 426.88L311.32 426.88M310.65 418.17L307.15 431.24"
fill="none" stroke="black" stroke-width="0.5"/>
<path d="M287.32 470.92L286.46 469.67M286.46 469.67L284.82 469.05M284.82 469.05L282.42 469.05M282.42 469.05L280.45 469.67M280.45 469.67L278.91 470.92M278.91 470.92L278.58 472.16M278.58 472.16L278.85 473.41M278.85 473.41L279.28 474.03M279.28 474.03L280.32 474.65M280.32 474.65L283.59 475.9M283.59 475.9L284.62 476.52M284.62 476.52L285.06 477.14M285.06 477.14L285.32 478.39M285.32 478.39L284.82 480.26M284.82 480.26L283.29 481.5M283.29 481.5L281.32 482.12M281.32 482.12L278.92 482.12M278.92 482.12L277.28 481.5M277.28 481.5L276.41 480.26M287.93 482.12L296.23 469.05M296.23 469.05L297.54 482.12M290.9 477.77L296.9 477.77M311.85 469.05L305.84 469.05M305.84 469.05L303.74 474.65M303.74 474.65L304.51 474.03M304.51 474.03L306.48 473.41M306.48 473.41L308.28 473.41M308.28 473.41L309.92 474.03M309.92 474.03L310.78 475.28M310.78 475.28L310.88 477.14M310.88 477.14L310.55 478.39M310.55 478.39L309.45 480.26M309.45 480.26L307.91 481.5M307.91 481.5L305.95 482.12M305.95 482.12L304.14 482.12M304.14 482.12L302.51 481.5M302.51 481.5L302.07 480.88M302.07 480.88L301.81 479.63"
fill="none" stroke="black" stroke-width="0.5"/>
<path d="M7.84 577.31L7.84 22.69"
fill="none" stroke="black" stroke-width="0.5"/>
<path d="M7.84 22.69L792.16 22.69"
fill="none" stroke="black" stroke-width="0.5"/>
<path d="M792.16 22.69L792.16 577.31"
fill="none" stroke="black" stroke-width="0.5"/>
<path d="M792.16 577.31L7.84 577.31"
fill="none" stroke="black" stroke-width="0.5"/>
</svg>
