<?xml version="1.0" encoding="UTF-8"?>
<svg xmlns="http://www.w3.org/2000/svg" width="800.000" height="600.000" viewBox="0.0 0.0 800.000 600.000" version="1.1">
  <title>Produce by Acme CAD Converter</title>
  <desc>Produce by Acme CAD Converter</desc>
<path d="M454.88 231.97L454.88 229.64 452.54 227.62 454.88 231.97Z"
fill-rule="evenodd" fill="black"/>
<path d="M454.88 231.97L454.89 231.99 454.88 230.53 454.88 231.97Z"
fill-rule="evenodd" fill="black"/>
<path d="M454.88 230.53L454.89 230.53 454.88 229.64 454.88 230.53Z"
fill-rule="evenodd" fill="black"/>
<path d="M454.89 230.53L454.89 229.65 454.88 229.64 454.89 230.53Z"
fill-rule="evenodd" fill="black"/>
<path d="M454.89 230.53L456.05 230.66 454.89 229.65 454.89 230.53Z"
fill-rule="evenodd" fill="black"/>
<path d="M457.34 230.01L457.34 227.69 455.01 225.67 457.34 230.01Z"
fill-rule="evenodd" fill="black"/>
<path d="M457.34 230.01L457.35 230.03 457.34 228.57 457.34 230.01Z"
fill-rule="evenodd" fill="black"/>
<path d="M457.34 228.57L457.35 228.57 457.34 227.69 457.34 228.57Z"
fill-rule="evenodd" fill="black"/>
<path d="M457.35 228.57L457.35 227.69 457.34 227.69 457.35 228.57Z"
fill-rule="evenodd" fill="black"/>
<path d="M457.35 228.57L458.52 228.7 457.35 227.69 457.35 228.57Z"
fill-rule="evenodd" fill="black"/>
<path d="M562.73 231.6L562.73 229.28 560.39 227.26 562.73 231.6Z"
fill-rule="evenodd" fill="black"/>
<path d="M562.73 231.6L562.74 231.62 562.73 230.16 562.73 231.6Z"
fill-rule="evenodd" fill="black"/>
<path d="M562.73 230.16L562.74 230.16 562.73 229.28 562.73 230.16Z"
fill-rule="evenodd" fill="black"/>
<path d="M562.74 230.16L562.74 229.28 562.73 229.28 562.74 230.16Z"
fill-rule="evenodd" fill="black"/>
<path d="M562.74 230.16L563.9 230.29 562.74 229.28 562.74 230.16Z"
fill-rule="evenodd" fill="black"/>
<path d="M565.2 229.65L565.2 227.32 562.86 225.3 565.2 229.65Z"
fill-rule="evenodd" fill="black"/>
<path d="M565.2 229.65L565.2 229.66 565.2 228.2 565.2 229.65Z"
fill-rule="evenodd" fill="black"/>
<path d="M565.2 228.2L565.2 228.2 565.2 227.32 565.2 228.2Z"
fill-rule="evenodd" fill="black"/>
<path d="M565.2 228.2L565.2 227.33 565.2 227.32 565.2 228.2Z"
fill-rule="evenodd" fill="black"/>
<path d="M565.2 228.2L566.37 228.34 565.2 227.33 565.2 228.2Z"
fill-rule="evenodd" fill="black"/>
<path d="M339.05 379.13L339.05 376.49 338.51 377.81 339.05 379.13Z"
fill-rule="evenodd" fill="black"/>
<path d="M339.05 379.13L340.37 379.68 339.05 376.49 339.05 379.13Z"
fill-rule="evenodd" fill="black"/>
<path d="M340.37 379.68L340.37 375.95 339.05 376.49 340.37 379.68Z"
fill-rule="evenodd" fill="black"/>
<path d="M340.37 379.68L341.7 379.13 340.37 375.95 340.37 379.68Z"
fill-rule="evenodd" fill="black"/>
<path d="M341.7 379.13L341.7 376.49 340.37 375.95 341.7 379.13Z"
fill-rule="evenodd" fill="black"/>
<path d="M341.7 379.13L342.24 377.81 341.7 376.49 341.7 379.13Z"
fill-rule="evenodd" fill="black"/>
<path d="M365.32 328.25L365.32 325.61 364.77 326.93 365.32 328.25Z"
fill-rule="evenodd" fill="black"/>
<path d="M365.32 328.25L366.64 328.8 365.32 325.61 365.32 328.25Z"
fill-rule="evenodd" fill="black"/>
<path d="M366.64 328.8L366.64 325.06 365.32 325.61 366.64 328.8Z"
fill-rule="evenodd" fill="black"/>
<path d="M366.64 328.8L367.96 328.25 366.64 325.06 366.64 328.8Z"
fill-rule="evenodd" fill="black"/>
<path d="M367.96 328.25L367.96 325.61 366.64 325.06 367.96 328.25Z"
fill-rule="evenodd" fill="black"/>
<path d="M367.96 328.25L368.51 326.93 367.96 325.61 367.96 328.25Z"
fill-rule="evenodd" fill="black"/>
<path d="M485.61 368.43L485.61 365.79 485.06 367.11 485.61 368.43Z"
fill-rule="evenodd" fill="black"/>
<path d="M485.61 368.43L486.93 368.98 485.61 365.79 485.61 368.43Z"
fill-rule="evenodd" fill="black"/>
<path d="M486.93 368.98L486.93 365.25 485.61 365.79 486.93 368.98Z"
fill-rule="evenodd" fill="black"/>
<path d="M486.93 368.98L488.25 368.43 486.93 365.25 486.93 368.98Z"
fill-rule="evenodd" fill="black"/>
<path d="M488.25 368.43L488.25 365.79 486.93 365.25 488.25 368.43Z"
fill-rule="evenodd" fill="black"/>
<path d="M488.25 368.43L488.8 367.11 488.25 365.79 488.25 368.43Z"
fill-rule="evenodd" fill="black"/>
<path d="M387.96 309.34L436.51 309.34"
fill="none" stroke="black" stroke-width="0.5"/>
<path d="M436.51 309.34L436.51 387.77"
fill="none" stroke="black" stroke-width="0.5"/>
<path d="M436.51 387.77L387.96 387.77"
fill="none" stroke="black" stroke-width="0.5"/>
<path d="M387.96 387.77L387.96 309.34"
fill="none" stroke="black" stroke-width="0.5"/>
<path d="M387.96 326.93L275.91 326.93"
fill="none" stroke="black" stroke-width="0.5"/>
<path d="M275.91 326.93L253.04 314.27"
fill="none" stroke="black" stroke-width="0.5"/>
<path d="M253.04 326.93L234.36 326.93"
fill="none" stroke="black" stroke-width="0.5"/>
<path d="M234.36 326.93L234.36 314.27"
fill="none" stroke="black" stroke-width="0.5"/>
<path d="M234.36 326.93L234.36 338.14"
fill="none" stroke="black" stroke-width="0.5"/>
<path d="M234.36 314.27L234.36 338.14"
fill="none" stroke="RGB(1,1,1)" stroke-width="0.5"/>
<path d="M387.96 377.81L275.91 377.81"
fill="none" stroke="black" stroke-width="0.5"/>
<path d="M275.91 377.81L253.04 365.15"
fill="none" stroke="black" stroke-width="0.5"/>
<path d="M253.04 377.81L234.36 377.81"
fill="none" stroke="black" stroke-width="0.5"/>
<path d="M234.36 365.15L234.36 389.02"
fill="none" stroke="RGB(1,1,1)" stroke-width="0.5"/>
<path d="M466.94 309.3L466.94 290.62"
fill="none" stroke="black" stroke-width="0.5"/>
<path d="M461.63 290.62L461.63 257.01"
fill="none" stroke="black" stroke-width="0.5"/>
<path d="M461.63 257.01L472.84 257.01"
fill="none" stroke="black" stroke-width="0.5"/>
<path d="M472.84 257.01L472.84 290.62"
fill="none" stroke="black" stroke-width="0.5"/>
<path d="M472.84 290.62L461.63 290.62"
fill="none" stroke="black" stroke-width="0.5"/>
<path d="M467.24 257.01L467.24 223.89"
fill="none" stroke="black" stroke-width="0.5"/>
<path d="M472.84 223.89L461.63 223.89"
fill="none" stroke="RGB(1,1,1)" stroke-width="0.5"/>
<path d="M472.84 231.52L461.63 231.52"
fill="none" stroke="black" stroke-width="0.5"/>
<path d="M467.09 240.45L472.84 240.45"
fill="none" stroke="black" stroke-width="0.5"/>
<path d="M467.09 240.45L461.63 240.45"
fill="none" stroke="black" stroke-width="0.5"/>
<path d="M461.63 240.45L467.24 231.52"
fill="none" stroke="black" stroke-width="0.5"/>
<path d="M467.24 231.52L472.84 240.45"
fill="none" stroke="black" stroke-width="0.5"/>
<path d="M459.57 236.35L452.54 227.62"
fill="none" stroke="black" stroke-width="0.5"/>
<path d="M452.54 227.62L454.89 231.99"
fill="none" stroke="black" stroke-width="0.5"/>
<path d="M452.54 227.62L456.05 230.66"
fill="none" stroke="black" stroke-width="0.5"/>
<path d="M452.54 227.62L454.89 231.99"
fill="none" stroke="RGB(1,1,1)" stroke-width="0.5"/>
<path d="M452.54 227.62L456.05 230.66"
fill="none" stroke="RGB(1,1,1)" stroke-width="0.5"/>
<path d="M454.89 231.99L454.88 230.53"
fill="none" stroke="RGB(1,1,1)" stroke-width="0.5"/>
<path d="M454.88 230.53L456.05 230.66"
fill="none" stroke="RGB(1,1,1)" stroke-width="0.5"/>
<path d="M462.03 234.39L455.01 225.67"
fill="none" stroke="black" stroke-width="0.5"/>
<path d="M455.01 225.67L457.35 230.03"
fill="none" stroke="RGB(1,1,1)" stroke-width="0.5"/>
<path d="M455.01 225.67L458.52 228.7"
fill="none" stroke="RGB(1,1,1)" stroke-width="0.5"/>
<path d="M457.35 230.03L457.34 228.57"
fill="none" stroke="RGB(1,1,1)" stroke-width="0.5"/>
<path d="M457.34 228.57L458.52 228.7"
fill="none" stroke="RGB(1,1,1)" stroke-width="0.5"/>
<path d="M509.34 309.34L557.89 309.34"
fill="none" stroke="black" stroke-width="0.5"/>
<path d="M557.89 309.34L557.89 387.77"
fill="none" stroke="black" stroke-width="0.5"/>
<path d="M557.89 387.77L509.34 387.77"
fill="none" stroke="black" stroke-width="0.5"/>
<path d="M509.34 387.77L509.34 309.34"
fill="none" stroke="black" stroke-width="0.5"/>
<path d="M387.96 419.97L436.51 419.97"
fill="none" stroke="black" stroke-width="0.5"/>
<path d="M436.51 419.97L436.51 498.41"
fill="none" stroke="black" stroke-width="0.5"/>
<path d="M436.51 498.41L387.96 498.41"
fill="none" stroke="black" stroke-width="0.5"/>
<path d="M387.96 498.41L387.96 419.97"
fill="none" stroke="black" stroke-width="0.5"/>
<path d="M509.34 419.97L557.89 419.97"
fill="none" stroke="black" stroke-width="0.5"/>
<path d="M557.89 419.97L557.89 498.41"
fill="none" stroke="black" stroke-width="0.5"/>
<path d="M557.89 498.41L509.34 498.41"
fill="none" stroke="black" stroke-width="0.5"/>
<path d="M509.34 498.41L509.34 419.97"
fill="none" stroke="black" stroke-width="0.5"/>
<path d="M366.64 326.93L366.64 437.2"
fill="none" stroke="black" stroke-width="0.5"/>
<path d="M366.64 437.2L387.96 437.2"
fill="none" stroke="black" stroke-width="0.5"/>
<path d="M340.37 377.81L340.37 482.39"
fill="none" stroke="black" stroke-width="0.5"/>
<path d="M340.37 482.39L387.96 482.39"
fill="none" stroke="black" stroke-width="0.5"/>
<path d="M436.51 326.04L509.34 326.04"
fill="none" stroke="black" stroke-width="0.5"/>
<path d="M436.51 435.88L509.34 435.88"
fill="none" stroke="black" stroke-width="0.5"/>
<path d="M509.34 367.11L486.93 367.11"
fill="none" stroke="black" stroke-width="0.5"/>
<path d="M486.93 367.11L486.93 408.2"
fill="none" stroke="black" stroke-width="0.5"/>
<path d="M486.93 408.2L569.1 408.2"
fill="none" stroke="black" stroke-width="0.5"/>
<path d="M569.1 408.2L569.1 437.2"
fill="none" stroke="black" stroke-width="0.5"/>
<path d="M569.1 437.2L557.89 437.2"
fill="none" stroke="black" stroke-width="0.5"/>
<path d="M574.75 309.3L574.75 290.62"
fill="none" stroke="black" stroke-width="0.5"/>
<path d="M569.45 290.62L569.45 257.01"
fill="none" stroke="black" stroke-width="0.5"/>
<path d="M569.45 257.01L580.65 257.01"
fill="none" stroke="black" stroke-width="0.5"/>
<path d="M580.65 257.01L580.65 290.62"
fill="none" stroke="black" stroke-width="0.5"/>
<path d="M580.65 290.62L569.45 290.62"
fill="none" stroke="black" stroke-width="0.5"/>
<path d="M575.05 257.01L575.05 223.89"
fill="none" stroke="black" stroke-width="0.5"/>
<path d="M580.65 223.89L569.45 223.89"
fill="none" stroke="RGB(1,1,1)" stroke-width="0.5"/>
<path d="M580.65 231.52L569.45 231.52"
fill="none" stroke="black" stroke-width="0.5"/>
<path d="M574.9 240.45L580.65 240.45"
fill="none" stroke="black" stroke-width="0.5"/>
<path d="M574.9 240.45L569.45 240.45"
fill="none" stroke="black" stroke-width="0.5"/>
<path d="M569.45 240.45L575.05 231.52"
fill="none" stroke="black" stroke-width="0.5"/>
<path d="M575.05 231.52L580.65 240.45"
fill="none" stroke="black" stroke-width="0.5"/>
<path d="M567.42 235.98L560.39 227.26"
fill="none" stroke="black" stroke-width="0.5"/>
<path d="M560.39 227.26L562.74 231.62"
fill="none" stroke="black" stroke-width="0.5"/>
<path d="M560.39 227.26L563.9 230.29"
fill="none" stroke="black" stroke-width="0.5"/>
<path d="M560.39 227.26L562.74 231.62"
fill="none" stroke="RGB(1,1,1)" stroke-width="0.5"/>
<path d="M560.39 227.26L563.9 230.29"
fill="none" stroke="RGB(1,1,1)" stroke-width="0.5"/>
<path d="M562.74 231.62L562.73 230.16"
fill="none" stroke="RGB(1,1,1)" stroke-width="0.5"/>
<path d="M562.73 230.16L563.9 230.29"
fill="none" stroke="RGB(1,1,1)" stroke-width="0.5"/>
<path d="M569.89 234.03L562.86 225.3"
fill="none" stroke="black" stroke-width="0.5"/>
<path d="M562.86 225.3L565.2 229.66"
fill="none" stroke="RGB(1,1,1)" stroke-width="0.5"/>
<path d="M562.86 225.3L566.37 228.34"
fill="none" stroke="RGB(1,1,1)" stroke-width="0.5"/>
<path d="M565.2 229.66L565.2 228.2"
fill="none" stroke="RGB(1,1,1)" stroke-width="0.5"/>
<path d="M565.2 228.2L566.37 228.34"
fill="none" stroke="RGB(1,1,1)" stroke-width="0.5"/>
<path d="M466.94 309.3L466.94 367.11"
fill="none" stroke="black" stroke-width="0.5"/>
<path d="M466.94 367.11L486.93 367.11"
fill="none" stroke="black" stroke-width="0.5"/>
<path d="M557.89 345.17L574.75 345.17"
fill="none" stroke="black" stroke-width="0.5"/>
<path d="M574.75 345.17L574.75 309.3"
fill="none" stroke="black" stroke-width="0.5"/>
<path d="M338.51 377.81L338.69 377M338.69 377L339.21 376.35M339.21 376.35L339.96 375.99M339.96 375.99L340.79 375.99M340.79 375.99L341.54 376.35M341.54 376.35L342.06 377M342.06 377L342.24 377.81M342.24 377.81L342.06 378.62M342.06 378.62L341.54 379.27M341.54 379.27L340.79 379.63M340.79 379.63L339.96 379.63M339.96 379.63L339.21 379.27M339.21 379.27L338.69 378.62M338.69 378.62L338.51 377.81"
fill="none" stroke="RGB(1,1,1)" stroke-width="0.5"/>
<path d="M364.77 326.93L364.96 326.12M364.96 326.12L365.48 325.47M365.48 325.47L366.23 325.11M366.23 325.11L367.06 325.11M367.06 325.11L367.8 325.47M367.8 325.47L368.32 326.12M368.32 326.12L368.51 326.93M368.51 326.93L368.32 327.74M368.32 327.74L367.8 328.39M367.8 328.39L367.06 328.75M367.06 328.75L366.23 328.75M366.23 328.75L365.48 328.39M365.48 328.39L364.96 327.74M364.96 327.74L364.77 326.93"
fill="none" stroke="RGB(1,1,1)" stroke-width="0.5"/>
<path d="M485.06 367.11L485.25 366.3M485.25 366.3L485.77 365.65M485.77 365.65L486.51 365.29M486.51 365.29L487.35 365.29M487.35 365.29L488.09 365.65M488.09 365.65L488.61 366.3M488.61 366.3L488.8 367.11M488.8 367.11L488.61 367.92M488.61 367.92L488.09 368.57M488.09 368.57L487.35 368.93M487.35 368.93L486.51 368.93M486.51 368.93L485.77 368.57M485.77 368.57L485.25 367.92M485.25 367.92L485.06 367.11"
fill="none" stroke="RGB(1,1,1)" stroke-width="0.5"/>
<path d="M407.91 313.49L409.12 313.49M409.12 313.49L410.15 314.11M410.15 314.11L410.58 314.73M410.58 314.73L412.22 326.56M410.95 317.85L405.01 326.56"
fill="none" stroke="black" stroke-width="0.5"/>
<path d="M398.38 382.69L401.88 369.62M401.88 369.62L406.08 369.62M406.08 369.62L407.72 370.24M407.72 370.24L408.59 371.48M408.59 371.48L408.85 372.73M408.85 372.73L408.95 374.6M408.95 374.6L408.12 377.71M408.12 377.71L407.02 379.58M407.02 379.58L406.09 380.82M406.09 380.82L404.55 382.07M404.55 382.07L402.58 382.69M402.58 382.69L398.38 382.69M413.83 372.11L415.19 371.48M415.19 371.48L417.5 369.62M417.5 369.62L413.99 382.69M421.54 381.44L420.77 382.07M420.77 382.07L421.2 382.69M421.2 382.69L421.97 382.07M429.44 372.11L430.81 371.48M430.81 371.48L433.11 369.62M433.11 369.62L429.61 382.69"
fill="none" stroke="black" stroke-width="0.5"/>
<path d="M562.98 213.09L566.49 200.02M574.9 200.02L571.39 213.09M564.82 206.24L573.23 206.24M579.7 200.02L576.2 213.09M576.2 213.09L583.41 213.09M589.25 202.51L590.61 201.88M590.61 201.88L592.92 200.02M592.92 200.02L589.41 213.09"
fill="none" stroke="black" stroke-width="0.5"/>
<path d="M287.32 309.4L286.46 308.15M286.46 308.15L284.82 307.53M284.82 307.53L282.42 307.53M282.42 307.53L280.45 308.15M280.45 308.15L278.91 309.4M278.91 309.4L278.58 310.64M278.58 310.64L278.85 311.89M278.85 311.89L279.28 312.51M279.28 312.51L280.32 313.13M280.32 313.13L283.59 314.38M283.59 314.38L284.62 315M284.62 315L285.06 315.62M285.06 315.62L285.32 316.87M285.32 316.87L284.82 318.73M284.82 318.73L283.29 319.98M283.29 319.98L281.32 320.6M281.32 320.6L278.92 320.6M278.92 320.6L277.28 319.98M277.28 319.98L276.41 318.73M287.93 320.6L296.23 307.53M296.23 307.53L297.54 320.6M290.9 316.24L296.9 316.24M303.98 310.02L305.34 309.4M305.34 309.4L307.65 307.53M307.65 307.53L304.14 320.6"
fill="none" stroke="black" stroke-width="0.5"/>
<path d="M287.32 360.28L286.46 359.03M286.46 359.03L284.82 358.41M284.82 358.41L282.42 358.41M282.42 358.41L280.45 359.03M280.45 359.03L278.91 360.28M278.91 360.28L278.58 361.52M278.58 361.52L278.85 362.77M278.85 362.77L279.28 363.39M279.28 363.39L280.32 364.01M280.32 364.01L283.59 365.26M283.59 365.26L284.62 365.88M284.62 365.88L285.06 366.5M285.06 366.5L285.32 367.75M285.32 367.75L284.82 369.62M284.82 369.62L283.29 370.86M283.29 370.86L281.32 371.48M281.32 371.48L278.92 371.48M278.92 371.48L277.28 370.86M277.28 370.86L276.41 369.62M287.93 371.48L296.23 358.41M296.23 358.41L297.54 371.48M290.9 367.13L296.9 367.13M304.41 361.52L304.58 360.9M304.58 360.9L305.51 359.66M305.51 359.66L306.28 359.03M306.28 359.03L307.65 358.41M307.65 358.41L310.05 358.41M310.05 358.41L311.08 359.03M311.08 359.03L311.52 359.66M311.52 359.66L311.78 360.9M311.78 360.9L311.45 362.15M311.45 362.15L310.52 363.39M310.52 363.39L308.82 365.26M308.82 365.26L301.14 371.48M301.14 371.48L309.55 371.48"
fill="none" stroke="black" stroke-width="0.5"/>
<path d="M531.07 314.01L532.27 314.01M532.27 314.01L533.31 314.64M533.31 314.64L533.74 315.26M533.74 315.26L535.38 327.08M534.11 318.37L528.17 327.08"
fill="none" stroke="black" stroke-width="0.5"/>
<path d="M517.08 381.29L520.59 368.22M520.59 368.22L524.79 368.22M524.79 368.22L526.43 368.84M526.43 368.84L527.29 370.09M527.29 370.09L527.56 371.33M527.56 371.33L527.66 373.2M527.66 373.2L526.83 376.31M526.83 376.31L525.73 378.18M525.73 378.18L524.79 379.43M524.79 379.43L523.26 380.67M523.26 380.67L521.29 381.29M521.29 381.29L517.08 381.29M532.53 370.71L533.9 370.09M533.9 370.09L536.2 368.22M536.2 368.22L532.7 381.29M540.24 380.05L539.48 380.67M539.48 380.67L539.91 381.29M539.91 381.29L540.68 380.67M550.02 368.22L556.63 368.22M556.63 368.22L551.69 373.2M551.69 373.2L553.49 373.2M553.49 373.2L554.53 373.82M554.53 373.82L554.96 374.45M554.96 374.45L555.06 376.31M555.06 376.31L554.73 377.56M554.73 377.56L553.63 379.43M553.63 379.43L552.09 380.67M552.09 380.67L550.12 381.29M550.12 381.29L548.32 381.29M548.32 381.29L546.68 380.67M546.68 380.67L546.25 380.05M546.25 380.05L545.98 378.8"
fill="none" stroke="black" stroke-width="0.5"/>
<path d="M407.91 424.13L409.12 424.13M409.12 424.13L410.15 424.75M410.15 424.75L410.58 425.37M410.58 425.37L412.22 437.2M410.95 428.48L405.01 437.2"
fill="none" stroke="black" stroke-width="0.5"/>
<path d="M398.38 493.33L401.88 480.26M401.88 480.26L406.08 480.26M406.08 480.26L407.72 480.88M407.72 480.88L408.59 482.12M408.59 482.12L408.85 483.37M408.85 483.37L408.95 485.24M408.95 485.24L408.12 488.35M408.12 488.35L407.02 490.22M407.02 490.22L406.09 491.46M406.09 491.46L404.55 492.71M404.55 492.71L402.58 493.33M402.58 493.33L398.38 493.33M414.26 483.37L414.43 482.75M414.43 482.75L415.36 481.5M415.36 481.5L416.13 480.88M416.13 480.88L417.5 480.26M417.5 480.26L419.9 480.26M419.9 480.26L420.93 480.88M420.93 480.88L421.37 481.5M421.37 481.5L421.64 482.75M421.64 482.75L421.3 483.99M421.3 483.99L420.37 485.24M420.37 485.24L418.67 487.1M418.67 487.1L410.99 493.33M410.99 493.33L419.4 493.33M423.94 492.08L423.17 492.71M423.17 492.71L423.61 493.33M423.61 493.33L424.37 492.71M431.85 482.75L433.22 482.12M433.22 482.12L435.52 480.26M435.52 480.26L432.02 493.33"
fill="none" stroke="black" stroke-width="0.5"/>
<path d="M529.3 424.13L530.5 424.13M530.5 424.13L531.53 424.75M531.53 424.75L531.97 425.37M531.97 425.37L533.6 437.2M532.33 428.48L526.39 437.2"
fill="none" stroke="black" stroke-width="0.5"/>
<path d="M519.76 493.33L523.26 480.26M523.26 480.26L527.47 480.26M527.47 480.26L529.1 480.88M529.1 480.88L529.97 482.12M529.97 482.12L530.24 483.37M530.24 483.37L530.34 485.24M530.34 485.24L529.5 488.35M529.5 488.35L528.4 490.22M528.4 490.22L527.47 491.46M527.47 491.46L525.93 492.71M525.93 492.71L523.96 493.33M523.96 493.33L519.76 493.33M535.64 483.37L535.81 482.75M535.81 482.75L536.74 481.5M536.74 481.5L537.51 480.88M537.51 480.88L538.88 480.26M538.88 480.26L541.28 480.26M541.28 480.26L542.32 480.88M542.32 480.88L542.75 481.5M542.75 481.5L543.02 482.75M543.02 482.75L542.68 483.99M542.68 483.99L541.75 485.24M541.75 485.24L540.05 487.1M540.05 487.1L532.37 493.33M532.37 493.33L540.78 493.33M545.32 492.08L544.55 492.71M544.55 492.71L544.99 493.33M544.99 493.33L545.75 492.71M553.66 483.37L553.83 482.75M553.83 482.75L554.76 481.5M554.76 481.5L555.53 480.88M555.53 480.88L556.9 480.26M556.9 480.26L559.3 480.26M559.3 480.26L560.34 480.88M560.34 480.88L560.77 481.5M560.77 481.5L561.04 482.75M561.04 482.75L560.7 483.99M560.7 483.99L559.77 485.24M559.77 485.24L558.07 487.1M558.07 487.1L550.39 493.33M550.39 493.33L558.8 493.33"
fill="none" stroke="black" stroke-width="0.5"/>
<path d="M455.01 213.09L458.51 200.02M466.92 200.02L463.42 213.09M456.84 206.24L465.25 206.24M471.72 200.02L468.22 213.09M468.22 213.09L475.43 213.09M481.7 203.13L481.87 202.51M481.87 202.51L482.8 201.26M482.8 201.26L483.57 200.64M483.57 200.64L484.94 200.02M484.94 200.02L487.34 200.02M487.34 200.02L488.38 200.64M488.38 200.64L488.81 201.26M488.81 201.26L489.08 202.51M489.08 202.51L488.74 203.75M488.74 203.75L487.81 205M487.81 205L486.11 206.86M486.11 206.86L478.43 213.09M478.43 213.09L486.84 213.09"
fill="none" stroke="black" stroke-width="0.5"/>
<path d="M7.84 577.31L7.84 22.69"
fill="none" stroke="black" stroke-width="0.5"/>
<path d="M7.84 22.69L792.16 22.69"
fill="none" stroke="black" stroke-width="0.5"/>
<path d="M792.16 22.69L792.16 577.31"
fill="none" stroke="black" stroke-width="0.5"/>
<path d="M792.16 577.31L7.84 577.31"
fill="none" stroke="black" stroke-width="0.5"/>
</svg>
