<?xml version="1.0" encoding="UTF-8" standalone="no"?>
<!-- Created with Inkscape (http://www.inkscape.org/) -->

<svg
   xmlns:dc="http://purl.org/dc/elements/1.1/"
   xmlns:cc="http://creativecommons.org/ns#"
   xmlns:rdf="http://www.w3.org/1999/02/22-rdf-syntax-ns#"
   xmlns:svg="http://www.w3.org/2000/svg"
   xmlns="http://www.w3.org/2000/svg"
   xmlns:sodipodi="http://sodipodi.sourceforge.net/DTD/sodipodi-0.dtd"
   xmlns:inkscape="http://www.inkscape.org/namespaces/inkscape"
   width="210mm"
   height="297mm"
   viewBox="0 0 210 297"
   version="1.1"
   id="svg4042"
   inkscape:version="0.92.3 (2405546, 2018-03-11)"
   sodipodi:docname="1.svg">
  <defs
     id="defs4036" />
  <sodipodi:namedview
     id="base"
     pagecolor="#ffffff"
     bordercolor="#666666"
     borderopacity="1.0"
     inkscape:pageopacity="0.0"
     inkscape:pageshadow="2"
     inkscape:zoom="3.959798"
     inkscape:cx="238.18389"
     inkscape:cy="625.90028"
     inkscape:document-units="mm"
     inkscape:current-layer="layer1"
     showgrid="false"
     inkscape:window-width="1920"
     inkscape:window-height="1017"
     inkscape:window-x="-8"
     inkscape:window-y="-8"
     inkscape:window-maximized="1" />
  <metadata
     id="metadata4039">
    <rdf:RDF>
      <cc:Work
         rdf:about="">
        <dc:format>image/svg+xml</dc:format>
        <dc:type
           rdf:resource="http://purl.org/dc/dcmitype/StillImage" />
        <dc:title></dc:title>
      </cc:Work>
    </rdf:RDF>
  </metadata>
  <g
     inkscape:label="Layer 1"
     inkscape:groupmode="layer"
     id="layer1">
    <path
       inkscape:connector-curvature="0"
       style="fill:#000000;fill-rule:evenodd;stroke-width:0.26458332"
       d="m 105.28678,83.278235 v -0.616479 l -0.61912,-0.534458 z"
       id="path3847" />
    <path
       inkscape:connector-curvature="0"
       style="fill:#000000;fill-rule:evenodd;stroke-width:0.26458332"
       d="m 105.28678,83.278235 v 0.0027 -0.386291 z"
       id="path3849" />
    <path
       inkscape:connector-curvature="0"
       style="fill:#000000;fill-rule:evenodd;stroke-width:0.26458332"
       d="m 105.28678,82.89459 v 0 -0.232834 z"
       id="path3851" />
    <path
       inkscape:connector-curvature="0"
       style="fill:#000000;fill-rule:evenodd;stroke-width:0.26458332"
       d="m 105.28678,82.89459 v -0.230188 -0.0026 z"
       id="path3853" />
    <path
       inkscape:connector-curvature="0"
       style="fill:#000000;fill-rule:evenodd;stroke-width:0.26458332"
       d="m 105.28678,82.89459 0.30956,0.03704 -0.30956,-0.26723 z"
       id="path3855" />
    <path
       inkscape:connector-curvature="0"
       style="fill:#000000;fill-rule:evenodd;stroke-width:0.26458332"
       d="m 105.93766,82.759652 v -0.616479 l -0.61913,-0.534458 z"
       id="path3857" />
    <path
       inkscape:connector-curvature="0"
       style="fill:#000000;fill-rule:evenodd;stroke-width:0.26458332"
       d="m 105.93766,82.759652 0.003,0.0027 -0.003,-0.386291 z"
       id="path3859" />
    <path
       inkscape:connector-curvature="0"
       style="fill:#000000;fill-rule:evenodd;stroke-width:0.26458332"
       d="m 105.93766,82.376006 0.003,0.0027 -0.003,-0.235479 z"
       id="path3861" />
    <path
       inkscape:connector-curvature="0"
       style="fill:#000000;fill-rule:evenodd;stroke-width:0.26458332"
       d="m 105.9403,82.378652 v -0.232833 l -0.003,-0.0027 z"
       id="path3863" />
    <path
       inkscape:connector-curvature="0"
       style="fill:#000000;fill-rule:evenodd;stroke-width:0.26458332"
       d="m 105.9403,82.378652 0.30956,0.0344 -0.30956,-0.267229 z"
       id="path3865" />
    <path
       inkscape:connector-curvature="0"
       style="fill:none;stroke:#000000;stroke-width:0.13229166"
       d="M 96.473509,112.63905 H 109.31903"
       id="path3867" />
    <path
       inkscape:connector-curvature="0"
       style="fill:none;stroke:#000000;stroke-width:0.13229166"
       d="m 109.31903,112.63905 v 20.75392"
       id="path3869" />
    <path
       inkscape:connector-curvature="0"
       style="fill:none;stroke:#000000;stroke-width:0.13229166"
       d="M 109.31903,133.39297 H 96.473509"
       id="path3871" />
    <path
       inkscape:connector-curvature="0"
       style="fill:none;stroke:#000000;stroke-width:0.13229166"
       d="M 96.473509,133.39297 V 112.63905"
       id="path3873" />
    <path
       inkscape:connector-curvature="0"
       style="fill:none;stroke:#000000;stroke-width:0.13229166"
       d="M 96.473509,117.29572 H 66.826946"
       id="path3875" />
    <path
       inkscape:connector-curvature="0"
       style="fill:none;stroke:#000000;stroke-width:0.13229166"
       d="m 66.826946,117.29572 -6.05102,-3.34963"
       id="path3877" />
    <path
       inkscape:connector-curvature="0"
       style="fill:none;stroke:#000000;stroke-width:0.13229166"
       d="M 60.775926,117.29572 H 55.833509"
       id="path3879" />
    <path
       inkscape:connector-curvature="0"
       style="fill:none;stroke:#000000;stroke-width:0.13229166"
       d="m 55.833509,117.29572 v -3.34963"
       id="path3881" />
    <path
       inkscape:connector-curvature="0"
       style="fill:none;stroke:#000000;stroke-width:0.13229166"
       d="m 55.833509,117.29572 v 2.96597"
       id="path3883" />
    <path
       inkscape:connector-curvature="0"
       style="fill:none;stroke-width:0.13229166"
       d="m 55.833509,113.94609 v 6.3156"
       stroke="RGB(1,1,1)"
       id="path3885" />
    <path
       inkscape:connector-curvature="0"
       style="fill:none;stroke:#000000;stroke-width:0.13229166"
       d="M 96.473509,130.75772 H 66.826946"
       id="path3887" />
    <path
       inkscape:connector-curvature="0"
       style="fill:none;stroke:#000000;stroke-width:0.13229166"
       d="m 66.826946,130.75772 -6.05102,-3.34963"
       id="path3889" />
    <path
       inkscape:connector-curvature="0"
       style="fill:none;stroke:#000000;stroke-width:0.13229166"
       d="M 60.775926,130.75772 H 55.833509"
       id="path3891" />
    <path
       inkscape:connector-curvature="0"
       style="fill:none;stroke-width:0.13229166"
       d="m 55.833509,127.40809 v 6.3156"
       stroke="RGB(1,1,1)"
       id="path3893" />
    <path
       inkscape:connector-curvature="0"
       style="fill:none;stroke:#000000;stroke-width:0.13229166"
       d="m 109.31903,120.58184 h 17.78794"
       id="path3895" />
    <path
       inkscape:connector-curvature="0"
       style="fill:none;stroke:#000000;stroke-width:0.13229166"
       d="M 127.10697,120.58184 V 85.995506"
       id="path3897" />
    <path
       inkscape:connector-curvature="0"
       style="fill:none;stroke:#000000;stroke-width:0.13229166"
       d="m 127.10697,85.995506 h -4.94242"
       id="path3899" />
    <path
       inkscape:connector-curvature="0"
       style="fill:none;stroke:#000000;stroke-width:0.13229166"
       d="m 122.16455,87.400444 h -8.89264"
       id="path3901" />
    <path
       inkscape:connector-curvature="0"
       style="fill:none;stroke:#000000;stroke-width:0.13229166"
       d="M 113.27191,87.400444 V 84.434465"
       id="path3903" />
    <path
       inkscape:connector-curvature="0"
       style="fill:none;stroke:#000000;stroke-width:0.13229166"
       d="m 113.27191,84.434465 h 8.89264"
       id="path3905" />
    <path
       inkscape:connector-curvature="0"
       style="fill:none;stroke:#000000;stroke-width:0.13229166"
       d="m 122.16455,84.434465 v 2.965979"
       id="path3907" />
    <path
       inkscape:connector-curvature="0"
       style="fill:none;stroke:#000000;stroke-width:0.13229166"
       d="m 113.27191,85.918777 -8.763,0.07673"
       id="path3909" />
    <path
       inkscape:connector-curvature="0"
       style="fill:none;stroke-width:0.13229166"
       d="m 104.50891,84.434465 v 2.965979"
       stroke="RGB(1,1,1)"
       id="path3911" />
    <path
       inkscape:connector-curvature="0"
       style="fill:none;stroke:#000000;stroke-width:0.13229166"
       d="m 106.52768,84.434465 v 2.965979"
       id="path3913" />
    <path
       inkscape:connector-curvature="0"
       style="fill:none;stroke:#000000;stroke-width:0.13229166"
       d="M 108.89041,85.955819 V 84.434465"
       id="path3915" />
    <path
       inkscape:connector-curvature="0"
       style="fill:none;stroke:#000000;stroke-width:0.13229166"
       d="m 108.89041,85.955819 v 1.444625"
       id="path3917" />
    <path
       inkscape:connector-curvature="0"
       style="fill:none;stroke:#000000;stroke-width:0.13229166"
       d="m 108.89041,87.400444 -2.36273,-1.481667"
       id="path3919" />
    <path
       inkscape:connector-curvature="0"
       style="fill:none;stroke:#000000;stroke-width:0.13229166"
       d="m 106.52768,85.918777 2.36273,-1.484312"
       id="path3921" />
    <path
       inkscape:connector-curvature="0"
       style="fill:none;stroke:#000000;stroke-width:0.13229166"
       d="m 106.52768,84.434465 -1.86002,-2.307167"
       id="path3923" />
    <path
       inkscape:connector-curvature="0"
       style="fill:none;stroke:#000000;stroke-width:0.13229166"
       d="m 104.66766,82.127298 0.61912,1.153583"
       id="path3925" />
    <path
       inkscape:connector-curvature="0"
       style="fill:none;stroke:#000000;stroke-width:0.13229166"
       d="m 104.66766,82.127298 0.92868,0.804333"
       id="path3927" />
    <path
       inkscape:connector-curvature="0"
       style="fill:none;stroke-width:0.13229166"
       d="m 104.66766,82.127298 0.61912,1.153583"
       stroke="RGB(1,1,1)"
       id="path3929" />
    <path
       inkscape:connector-curvature="0"
       style="fill:none;stroke-width:0.13229166"
       d="m 104.66766,82.127298 0.92868,0.804333"
       stroke="RGB(1,1,1)"
       id="path3931" />
    <path
       inkscape:connector-curvature="0"
       style="fill:none;stroke-width:0.13229166"
       d="M 105.28678,83.280881 V 82.89459"
       stroke="RGB(1,1,1)"
       id="path3933" />
    <path
       inkscape:connector-curvature="0"
       style="fill:none;stroke-width:0.13229166"
       d="m 105.28678,82.89459 0.30956,0.03704"
       stroke="RGB(1,1,1)"
       id="path3935" />
    <path
       inkscape:connector-curvature="0"
       style="fill:none;stroke:#000000;stroke-width:0.13229166"
       d="m 107.17855,83.918527 -1.86002,-2.309812"
       id="path3937" />
    <path
       inkscape:connector-curvature="0"
       style="fill:none;stroke-width:0.13229166"
       d="m 105.31853,81.608715 0.62177,1.153583"
       stroke="RGB(1,1,1)"
       id="path3939" />
    <path
       inkscape:connector-curvature="0"
       style="fill:none;stroke-width:0.13229166"
       d="m 105.31853,81.608715 0.93133,0.804333"
       stroke="RGB(1,1,1)"
       id="path3941" />
    <path
       inkscape:connector-curvature="0"
       style="fill:none;stroke-width:0.13229166"
       d="m 105.9403,82.762298 -0.003,-0.386292"
       stroke="RGB(1,1,1)"
       id="path3943" />
    <path
       inkscape:connector-curvature="0"
       style="fill:none;stroke-width:0.13229166"
       d="m 105.93766,82.376006 0.3122,0.03704"
       stroke="RGB(1,1,1)"
       id="path3945" />
    <path
       inkscape:connector-curvature="0"
       style="fill:none;stroke:#000000;stroke-width:0.13229166"
       d="m 101.75459,113.73972 h 0.3175 m 0,0 0.27252,0.16404 m 0,0 0.11642,0.16404 m 0,0 0.43127,3.13002 m -0.33602,-2.30717 -1.57162,2.30717"
       id="path3947" />
    <path
       inkscape:connector-curvature="0"
       style="fill:none;stroke:#000000;stroke-width:0.13229166"
       d="m 99.230467,132.04888 0.926043,-3.4581 m 0,0 h 1.1139 m 0,0 0.43127,0.16404 m 0,0 0.23018,0.32808 m 0,0 0.0714,0.33073 m 0,0 0.0265,0.49477 m 0,0 -0.22225,0.82286 m 0,0 -0.29104,0.49477 m 0,0 -0.24606,0.32808 m 0,0 -0.40746,0.33073 m 0,0 -0.52123,0.16404 m 0,0 h -1.111249 m 4.201579,-2.63525 0.045,-0.16404 m 0,0 0.24607,-0.33073 m 0,0 0.20373,-0.16404 m 0,0 0.36247,-0.16404 m 0,0 h 0.63501 m 0,0 0.27516,0.16404 m 0,0 0.11377,0.16404 m 0,0 0.0714,0.33073 m 0,0 -0.09,0.32808 m 0,0 -0.24606,0.33073 m 0,0 -0.44979,0.49213 m 0,0 -2.032,1.64835 m 0,0 h 2.22514 m 1.20121,-0.33073 -0.20373,0.16669 m 0,0 0.11642,0.16404 m 0,0 0.20373,-0.16404 m 1.97644,-2.63525 0.36248,-0.16669 m 0,0 0.60854,-0.49212 m 0,0 -0.92604,3.4581"
       id="path3949" />
    <path
       inkscape:connector-curvature="0"
       style="fill:none;stroke:#000000;stroke-width:0.13229166"
       d="m 102.12766,79.761923 0.92604,-3.458104 m 2.22514,0 -0.92604,3.458104 m -1.73831,-1.80975 h 2.22514 m 1.71186,-1.648354 -0.92604,3.458104 m 0,0 h 1.90764 m 1.54252,-2.799292 0.36248,-0.164041 m 0,0 0.60854,-0.494771 m 0,0 -0.92604,3.458104"
       id="path3951" />
    <path
       inkscape:connector-curvature="0"
       style="fill:none;stroke:#000000;stroke-width:0.13229166"
       d="M 69.848488,112.65757 69.6183,112.32684 m 0,0 -0.433916,-0.16404 m 0,0 h -0.635 m 0,0 -0.521229,0.16404 m 0,0 -0.404813,0.33073 m 0,0 -0.08996,0.32808 m 0,0 0.07144,0.33073 m 0,0 0.113771,0.16404 m 0,0 0.275167,0.16405 m 0,0 0.865187,0.33072 m 0,0 0.272521,0.16405 m 0,0 0.116417,0.16404 m 0,0 0.06879,0.33073 m 0,0 -0.132291,0.49212 m 0,0 -0.404813,0.33073 m 0,0 -0.521229,0.16404 m 0,0 h -0.635 m 0,0 -0.433917,-0.16404 m 0,0 -0.230187,-0.33073 m 3.048,0.49477 2.198687,-3.4581 m 0,0 0.343959,3.4581 m -1.756834,-1.15358 h 1.5875 m 1.87325,-1.64571 0.36248,-0.16404 m 0,0 0.608541,-0.49477 m 0,0 -0.926041,3.4581"
       id="path3953" />
    <path
       inkscape:connector-curvature="0"
       style="fill:none;stroke:#000000;stroke-width:0.13229166"
       d="M 69.848488,126.11957 69.6183,125.78884 m 0,0 -0.433916,-0.16404 m 0,0 h -0.635 m 0,0 -0.521229,0.16404 m 0,0 -0.404813,0.33073 m 0,0 -0.08996,0.32808 m 0,0 0.07144,0.33073 m 0,0 0.113771,0.16404 m 0,0 0.275167,0.16405 m 0,0 0.865187,0.33072 m 0,0 0.272521,0.16405 m 0,0 0.116417,0.16404 m 0,0 0.06879,0.33073 m 0,0 -0.132291,0.49477 m 0,0 -0.404813,0.32808 m 0,0 -0.521229,0.16404 m 0,0 h -0.635 m 0,0 -0.433917,-0.16404 m 0,0 -0.230187,-0.32808 m 3.048,0.49212 2.198687,-3.4581 m 0,0 0.343959,3.4581 m -1.756834,-1.15093 h 1.5875 m 1.987021,-1.48432 0.04498,-0.16404 m 0,0 0.246063,-0.32808 m 0,0 0.203729,-0.16669 m 0,0 0.362479,-0.16404 m 0,0 h 0.635 m 0,0 0.275167,0.16404 m 0,0 0.113771,0.16669 m 0,0 0.07144,0.32808 m 0,0 -0.08996,0.33073 m 0,0 -0.246062,0.32808 m 0,0 -0.449792,0.49477 m 0,0 -2.032,1.64571 m 0,0 h 2.225146"
       id="path3955" />
    <path
       inkscape:connector-curvature="0"
       style="fill:none;stroke:#000000;stroke-width:0.13229166"
       d="m 55.833509,127.79175 v 2.96597"
       id="path3883-1" />
    <path
       inkscape:connector-curvature="0"
       style="fill:none;stroke:#000000;stroke-width:0.13229166"
       d="m 55.833509,130.75772 v 2.96597"
       id="path3883-5" />
  </g>
</svg>
