<svg version="1.1" xmlns="http://www.w3.org/2000/svg" xmlns:xlink="http://www.w3.org/1999/xlink" width="505.60009765625" height="620"><defs/><g><g transform="translate(-94,-86) scale(1,1)"><rect fill="#C0C0C0" stroke="none" x="471" y="223" width="125.60009765625" height="87" opacity="0.2"/></g><g transform="translate(-94,-86) scale(1,1)"><rect fill="#ffffff" stroke="none" x="464" y="216" width="125.60009765625" height="87"/></g><g transform="translate(-94,-86) scale(1,1)"><path fill="none" stroke="#000000" d="M 464 216 L 589.60009765625 216 L 589.60009765625 303 L 464 303 L 464 216 Z Z" stroke-miterlimit="10"/></g><g transform="translate(-94,-86) scale(1,1)"><path fill="none" stroke="#000000" d="M 464 241 L 589.60009765625 241" stroke-miterlimit="10"/></g><g transform="translate(-94,-86) scale(1,1)"><path fill="none" stroke="#000000" d="M 464 294 L 589.60009765625 294" stroke-miterlimit="10"/></g><g transform="translate(-94,-86) scale(1,1)"><g><path fill="none" stroke="none"/><text fill="#000000" stroke="none" font-family="Arial" font-size="13px" font-style="normal" font-weight="bold" text-decoration="none" x="487.1748046875" y="235.5">Зона Отдыха</text></g></g><g transform="translate(-94,-86) scale(1,1)"><g><path fill="none" stroke="none"/><text fill="#000000" stroke="none" font-family="Arial" font-size="13px" font-style="normal" font-weight="normal" text-decoration="none" x="469" y="258.5">+Цена абонемента</text></g></g><g transform="translate(-94,-86) scale(1,1)"><g><path fill="none" stroke="none"/><text fill="#000000" stroke="none" font-family="Arial" font-size="13px" font-style="normal" font-weight="normal" text-decoration="none" x="469" y="273.5">+Цена в минуту</text></g></g><g transform="translate(-94,-86) scale(1,1)"><g><path fill="none" stroke="none"/><text fill="#000000" stroke="none" font-family="Arial" font-size="13px" font-style="normal" font-weight="normal" text-decoration="none" x="469" y="288.5">+Название</text></g></g><g transform="translate(-94,-86) scale(1,1)"><rect fill="#C0C0C0" stroke="none" x="111" y="263" width="124.60693359375" height="57" opacity="0.2"/></g><g transform="translate(-94,-86) scale(1,1)"><rect fill="#ffffff" stroke="none" x="104" y="256" width="124.60693359375" height="57"/></g><g transform="translate(-94,-86) scale(1,1)"><path fill="none" stroke="#000000" d="M 104 256 L 228.60693359375 256 L 228.60693359375 313 L 104 313 L 104 256 Z Z" stroke-miterlimit="10"/></g><g transform="translate(-94,-86) scale(1,1)"><path fill="none" stroke="#000000" d="M 104 281 L 228.60693359375 281" stroke-miterlimit="10"/></g><g transform="translate(-94,-86) scale(1,1)"><path fill="none" stroke="#000000" d="M 104 304 L 228.60693359375 304" stroke-miterlimit="10"/></g><g transform="translate(-94,-86) scale(1,1)"><g><path fill="none" stroke="none"/><text fill="#000000" stroke="none" font-family="Arial" font-size="13px" font-style="normal" font-weight="bold" text-decoration="none" x="131.277099609375" y="275.5">Посетитель</text></g></g><g transform="translate(-94,-86) scale(1,1)"><g><path fill="none" stroke="none"/><text fill="#000000" stroke="none" font-family="Arial" font-size="13px" font-style="normal" font-weight="normal" text-decoration="none" x="109" y="298.5">+Внесенный залог</text></g></g><g transform="translate(-94,-86) scale(1,1)"><rect fill="#C0C0C0" stroke="none" x="311" y="399" width="139.28759765625" height="72" opacity="0.2"/></g><g transform="translate(-94,-86) scale(1,1)"><rect fill="#ffffff" stroke="none" x="304" y="392" width="139.28759765625" height="72"/></g><g transform="translate(-94,-86) scale(1,1)"><path fill="none" stroke="#000000" d="M 304 392 L 443.28759765625 392 L 443.28759765625 464 L 304 464 L 304 392 Z Z" stroke-miterlimit="10"/></g><g transform="translate(-94,-86) scale(1,1)"><path fill="none" stroke="#000000" d="M 304 417 L 443.28759765625 417" stroke-miterlimit="10"/></g><g transform="translate(-94,-86) scale(1,1)"><path fill="none" stroke="#000000" d="M 304 455 L 443.28759765625 455" stroke-miterlimit="10"/></g><g transform="translate(-94,-86) scale(1,1)"><g><path fill="none" stroke="none"/><text fill="#000000" stroke="none" font-family="Arial" font-size="13px" font-style="normal" font-weight="bold" text-decoration="none" x="315.327880859375" y="411.5">Счет за посещение</text></g></g><g transform="translate(-94,-86) scale(1,1)"><g><path fill="none" stroke="none"/><text fill="#000000" stroke="none" font-family="Arial" font-size="13px" font-style="normal" font-weight="normal" text-decoration="none" x="309" y="434.5">+Время посещения</text></g></g><g transform="translate(-94,-86) scale(1,1)"><g><path fill="none" stroke="none"/><text fill="#000000" stroke="none" font-family="Arial" font-size="13px" font-style="normal" font-weight="normal" text-decoration="none" x="309" y="449.5">+Длительность</text></g></g><g transform="translate(-94,-86) scale(1,1)"><path fill="none" stroke="#000000" d="M 203 313 L 203 444 L 304 444" stroke-miterlimit="10"/></g><g transform="translate(-94,-86) scale(1,1)"><g><path fill="none" stroke="none"/><text fill="#000000" stroke="none" font-family="Arial" font-size="13px" font-style="normal" font-weight="normal" text-decoration="none" x="186.641357421875" y="340.5">1</text></g></g><g transform="translate(-94,-86) scale(1,1)"><g><path fill="none" stroke="none"/><text fill="#000000" stroke="none" font-family="Arial" font-size="13px" font-style="normal" font-weight="normal" text-decoration="none" x="272.5" y="462.5">0..*</text></g></g><g transform="translate(-94,-86) scale(1,1)"><path fill="none" stroke="#000000" d="M 443 444 L 495 444 L 495 303" stroke-miterlimit="10"/></g><g transform="translate(-94,-86) scale(1,1)"><g><path fill="none" stroke="none"/><text fill="#000000" stroke="none" font-family="Arial" font-size="13px" font-style="normal" font-weight="normal" text-decoration="none" x="454.5" y="462.5">0..*</text></g></g><g transform="translate(-94,-86) scale(1,1)"><g><path fill="none" stroke="none"/><text fill="#000000" stroke="none" font-family="Arial" font-size="13px" font-style="normal" font-weight="normal" text-decoration="none" x="503.641357421875" y="330.5">1</text></g></g><g transform="translate(-94,-86) scale(1,1)"><rect fill="#C0C0C0" stroke="none" x="263" y="103" width="121.2392578125" height="57" opacity="0.2"/></g><g transform="translate(-94,-86) scale(1,1)"><rect fill="#ffffff" stroke="none" x="256" y="96" width="121.2392578125" height="57"/></g><g transform="translate(-94,-86) scale(1,1)"><path fill="none" stroke="#000000" d="M 256 96 L 377.2392578125 96 L 377.2392578125 153 L 256 153 L 256 96 Z Z" stroke-miterlimit="10"/></g><g transform="translate(-94,-86) scale(1,1)"><path fill="none" stroke="#000000" d="M 256 121 L 377.2392578125 121" stroke-miterlimit="10"/></g><g transform="translate(-94,-86) scale(1,1)"><path fill="none" stroke="#000000" d="M 256 144 L 377.2392578125 144" stroke-miterlimit="10"/></g><g transform="translate(-94,-86) scale(1,1)"><g><path fill="none" stroke="none"/><text fill="#000000" stroke="none" font-family="Arial" font-size="13px" font-style="normal" font-weight="bold" text-decoration="none" x="283.09130859375" y="115.5">Абонемент</text></g></g><g transform="translate(-94,-86) scale(1,1)"><g><path fill="none" stroke="none"/><text fill="#000000" stroke="none" font-family="Arial" font-size="13px" font-style="normal" font-weight="normal" text-decoration="none" x="261" y="138.5">+Начало действия</text></g></g><g transform="translate(-94,-86) scale(1,1)"><path fill="none" stroke="#000000" d="M 365 153 L 365 252 L 464 252" stroke-miterlimit="10"/></g><g transform="translate(-94,-86) scale(1,1)"><g><path fill="none" stroke="none"/><text fill="#000000" stroke="none" font-family="Arial" font-size="13px" font-style="normal" font-weight="normal" text-decoration="none" x="342.5" y="180.5">0..*</text></g></g><g transform="translate(-94,-86) scale(1,1)"><g><path fill="none" stroke="none"/><text fill="#000000" stroke="none" font-family="Arial" font-size="13px" font-style="normal" font-weight="normal" text-decoration="none" x="438.641357421875" y="270.5">1</text></g></g><g transform="translate(-94,-86) scale(1,1)"><path fill="none" stroke="#000000" d="M 229 284 L 288 284 L 288 153" stroke-miterlimit="10"/></g><g transform="translate(-94,-86) scale(1,1)"><g><path fill="none" stroke="none"/><text fill="#000000" stroke="none" font-family="Arial" font-size="13px" font-style="normal" font-weight="normal" text-decoration="none" x="246.5" y="302.5">1</text></g></g><g transform="translate(-94,-86) scale(1,1)"><g><path fill="none" stroke="none"/><text fill="#000000" stroke="none" font-family="Arial" font-size="13px" font-style="normal" font-weight="normal" text-decoration="none" x="290.5" y="180.5">0..*</text></g></g><g transform="translate(-94,-86) scale(1,1)"><rect fill="#C0C0C0" stroke="none" x="231" y="503" width="146.34423828125" height="57" opacity="0.2"/></g><g transform="translate(-94,-86) scale(1,1)"><rect fill="#ffffff" stroke="none" x="224" y="496" width="146.34423828125" height="57"/></g><g transform="translate(-94,-86) scale(1,1)"><path fill="none" stroke="#000000" d="M 224 496 L 370.34423828125 496 L 370.34423828125 553 L 224 553 L 224 496 Z Z" stroke-miterlimit="10"/></g><g transform="translate(-94,-86) scale(1,1)"><path fill="none" stroke="#000000" d="M 224 521 L 370.34423828125 521" stroke-miterlimit="10"/></g><g transform="translate(-94,-86) scale(1,1)"><path fill="none" stroke="#000000" d="M 224 544 L 370.34423828125 544" stroke-miterlimit="10"/></g><g transform="translate(-94,-86) scale(1,1)"><g><path fill="none" stroke="none"/><text fill="#000000" stroke="none" font-family="Arial" font-size="13px" font-style="normal" font-weight="bold" text-decoration="none" x="262.06640625" y="515.5">Счет за еду</text></g></g><g transform="translate(-94,-86) scale(1,1)"><g><path fill="none" stroke="none"/><text fill="#000000" stroke="none" font-family="Arial" font-size="13px" font-style="normal" font-weight="normal" text-decoration="none" x="229" y="538.5">+Время</text></g></g><g transform="translate(-94,-86) scale(1,1)"><rect fill="#C0C0C0" stroke="none" x="471" y="503" width="110.56787109375" height="72" opacity="0.2"/></g><g transform="translate(-94,-86) scale(1,1)"><rect fill="#ffffff" stroke="none" x="464" y="496" width="110.56787109375" height="72"/></g><g transform="translate(-94,-86) scale(1,1)"><path fill="none" stroke="#000000" d="M 464 496 L 574.56787109375 496 L 574.56787109375 568 L 464 568 L 464 496 Z Z" stroke-miterlimit="10"/></g><g transform="translate(-94,-86) scale(1,1)"><path fill="none" stroke="#000000" d="M 464 521 L 574.56787109375 521" stroke-miterlimit="10"/></g><g transform="translate(-94,-86) scale(1,1)"><path fill="none" stroke="#000000" d="M 464 559 L 574.56787109375 559" stroke-miterlimit="10"/></g><g transform="translate(-94,-86) scale(1,1)"><g><path fill="none" stroke="none"/><text fill="#000000" stroke="none" font-family="Arial" font-size="13px" font-style="normal" font-weight="bold" text-decoration="none" x="503.92578125" y="515.5">Еда2</text></g></g><g transform="translate(-94,-86) scale(1,1)"><g><path fill="none" stroke="none"/><text fill="#000000" stroke="none" font-family="Arial" font-size="13px" font-style="normal" font-weight="normal" text-decoration="none" x="469" y="538.5">+Цена</text></g></g><g transform="translate(-94,-86) scale(1,1)"><g><path fill="none" stroke="none"/><text fill="#000000" stroke="none" font-family="Arial" font-size="13px" font-style="normal" font-weight="normal" text-decoration="none" x="469" y="553.5">+Название</text></g></g><g transform="translate(-94,-86) scale(1,1)"><path fill="none" stroke="#000000" d="M 144 313 L 144 518 L 224 518" stroke-miterlimit="10"/></g><g transform="translate(-94,-86) scale(1,1)"><g><path fill="none" stroke="none"/><text fill="#000000" stroke="none" font-family="Arial" font-size="13px" font-style="normal" font-weight="normal" text-decoration="none" x="127.5" y="340.5">1</text></g></g><g transform="translate(-94,-86) scale(1,1)"><g><path fill="none" stroke="none"/><text fill="#000000" stroke="none" font-family="Arial" font-size="13px" font-style="normal" font-weight="normal" text-decoration="none" x="192.5" y="536.5">0..*</text></g></g><g transform="translate(-94,-86) scale(1,1)"><rect fill="#C0C0C0" stroke="none" x="247" y="639" width="144" height="64" opacity="0.2"/></g><g transform="translate(-94,-86) scale(1,1)"><rect fill="#ffffff" stroke="none" x="240" y="632" width="144" height="64"/></g><g transform="translate(-94,-86) scale(1,1)"><path fill="none" stroke="#000000" d="M 240 632 L 384 632 L 384 696 L 240 696 L 240 632 Z Z" stroke-miterlimit="10"/></g><g transform="translate(-94,-86) scale(1,1)"><path fill="none" stroke="#000000" d="M 240 657 L 384 657" stroke-miterlimit="10"/></g><g transform="translate(-94,-86) scale(1,1)"><path fill="none" stroke="#000000" d="M 240 680 L 384 680" stroke-miterlimit="10"/></g><g transform="translate(-94,-86) scale(1,1)"><g><path fill="none" stroke="none"/><text fill="#000000" stroke="none" font-family="Arial" font-size="13px" font-style="normal" font-weight="bold" text-decoration="none" x="300.2568359375" y="651.5">Еда</text></g></g><g transform="translate(-94,-86) scale(1,1)"><g><path fill="none" stroke="none"/><text fill="#000000" stroke="none" font-family="Arial" font-size="13px" font-style="normal" font-weight="normal" text-decoration="none" x="245" y="674.5">+Количество</text></g></g><g transform="translate(-94,-86) scale(1,1)"><path fill="none" stroke="#000000" d="M 384 640 L 496 640 L 496 568" stroke-miterlimit="10"/></g><g transform="translate(-94,-86) scale(1,1)"><g><path fill="none" stroke="none"/><text fill="#000000" stroke="none" font-family="Arial" font-size="13px" font-style="normal" font-weight="normal" text-decoration="none" x="395.5" y="658.5">0..*</text></g></g><g transform="translate(-94,-86) scale(1,1)"><g><path fill="none" stroke="none"/><text fill="#000000" stroke="none" font-family="Arial" font-size="13px" font-style="normal" font-weight="normal" text-decoration="none" x="504.641357421875" y="595.5">1</text></g></g><g transform="translate(-94,-86) scale(1,1)"><path fill="none" stroke="#000000" d="M 320 632 L 320 553" stroke-miterlimit="10"/></g><g transform="translate(-94,-86) scale(1,1)"><g><path fill="none" stroke="none"/><text fill="#000000" stroke="none" font-family="Arial" font-size="13px" font-style="normal" font-weight="normal" text-decoration="none" x="328.5" y="616.5">1</text></g></g><g transform="translate(-94,-86) scale(1,1)"><g><path fill="none" stroke="none"/><text fill="#000000" stroke="none" font-family="Arial" font-size="13px" font-style="normal" font-weight="normal" text-decoration="none" x="322.5" y="580.5">1..*</text></g></g></g></svg>