<?xml version="1.0" encoding="UTF-8"?>
<svg xmlns="http://www.w3.org/2000/svg" width="800.000" height="600.000" viewBox="0.0 0.0 800.000 600.000" version="1.1">
  <title>Produce by Acme CAD Converter</title>
  <desc>Produce by Acme CAD Converter</desc>
<path d="M321.87 168.38L321.87 167.79 319.38 165.3 321.87 168.38Z"
fill-rule="evenodd" fill="black"/>
<path d="M321.87 167.79L321.87 167.34 319.38 165.3 321.87 167.79Z"
fill-rule="evenodd" fill="black"/>
<path d="M321.87 168.38L322.16 168.08 321.87 167.79 321.87 168.38Z"
fill-rule="evenodd" fill="black"/>
<path d="M321.87 167.79L322.16 168.08 321.87 167.34 321.87 167.79Z"
fill-rule="evenodd" fill="black"/>
<path d="M322.16 168.08L322.16 167.58 321.87 167.34 322.16 168.08Z"
fill-rule="evenodd" fill="black"/>
<path d="M322.16 168.08L322.44 167.81 322.16 167.58 322.16 168.08Z"
fill-rule="evenodd" fill="black"/>
<path d="M329.64 241.8L329.64 240.4 329.35 241.1 329.64 241.8Z"
fill-rule="evenodd" fill="black"/>
<path d="M329.64 241.8L330.34 242.09 329.64 240.4 329.64 241.8Z"
fill-rule="evenodd" fill="black"/>
<path d="M330.34 242.09L330.34 240.11 329.64 240.4 330.34 242.09Z"
fill-rule="evenodd" fill="black"/>
<path d="M330.34 242.09L331.04 241.8 330.34 240.11 330.34 242.09Z"
fill-rule="evenodd" fill="black"/>
<path d="M331.04 241.8L331.04 240.4 330.34 240.11 331.04 241.8Z"
fill-rule="evenodd" fill="black"/>
<path d="M331.04 241.8L331.33 241.1 331.04 240.4 331.04 241.8Z"
fill-rule="evenodd" fill="black"/>
<path d="M358.85 362.17L358.85 360.77 358.56 361.47 358.85 362.17Z"
fill-rule="evenodd" fill="black"/>
<path d="M358.85 362.17L359.55 362.46 358.85 360.77 358.85 362.17Z"
fill-rule="evenodd" fill="black"/>
<path d="M359.55 362.46L359.55 360.48 358.85 360.77 359.55 362.46Z"
fill-rule="evenodd" fill="black"/>
<path d="M359.55 362.46L360.25 362.17 359.55 360.48 359.55 362.46Z"
fill-rule="evenodd" fill="black"/>
<path d="M360.25 362.17L360.25 360.77 359.55 360.48 360.25 362.17Z"
fill-rule="evenodd" fill="black"/>
<path d="M360.25 362.17L360.54 361.47 360.25 360.77 360.25 362.17Z"
fill-rule="evenodd" fill="black"/>
<path d="M457.88 241.8L457.88 240.4 457.59 241.1 457.88 241.8Z"
fill-rule="evenodd" fill="black"/>
<path d="M457.88 241.8L458.58 242.09 457.88 240.4 457.88 241.8Z"
fill-rule="evenodd" fill="black"/>
<path d="M458.58 242.09L458.58 240.11 457.88 240.4 458.58 242.09Z"
fill-rule="evenodd" fill="black"/>
<path d="M458.58 242.09L459.28 241.8 458.58 240.11 458.58 242.09Z"
fill-rule="evenodd" fill="black"/>
<path d="M459.28 241.8L459.28 240.4 458.58 240.11 459.28 241.8Z"
fill-rule="evenodd" fill="black"/>
<path d="M459.28 241.8L459.57 241.1 459.28 240.4 459.28 241.8Z"
fill-rule="evenodd" fill="black"/>
<path d="M465.8 301.49L465.8 300.09 465.51 300.79 465.8 301.49Z"
fill-rule="evenodd" fill="black"/>
<path d="M465.8 301.49L466.5 301.78 465.8 300.09 465.8 301.49Z"
fill-rule="evenodd" fill="black"/>
<path d="M466.5 301.78L466.5 299.8 465.8 300.09 466.5 301.78Z"
fill-rule="evenodd" fill="black"/>
<path d="M466.5 301.78L467.2 301.49 466.5 299.8 466.5 301.78Z"
fill-rule="evenodd" fill="black"/>
<path d="M467.2 301.49L467.2 300.09 466.5 299.8 467.2 301.49Z"
fill-rule="evenodd" fill="black"/>
<path d="M467.2 301.49L467.49 300.79 467.2 300.09 467.2 301.49Z"
fill-rule="evenodd" fill="black"/>
<path d="M495.22 389.07L495.22 387.67 494.93 388.37 495.22 389.07Z"
fill-rule="evenodd" fill="black"/>
<path d="M495.22 389.07L495.92 389.36 495.22 387.67 495.22 389.07Z"
fill-rule="evenodd" fill="black"/>
<path d="M495.92 389.36L495.92 387.38 495.22 387.67 495.92 389.36Z"
fill-rule="evenodd" fill="black"/>
<path d="M495.92 389.36L496.62 389.07 495.92 387.38 495.92 389.36Z"
fill-rule="evenodd" fill="black"/>
<path d="M496.62 389.07L496.62 387.67 495.92 387.38 496.62 389.07Z"
fill-rule="evenodd" fill="black"/>
<path d="M496.62 389.07L496.91 388.37 496.62 387.67 496.62 389.07Z"
fill-rule="evenodd" fill="black"/>
<path d="M517.79 399.8L517.79 398.4 517.5 399.1 517.79 399.8Z"
fill-rule="evenodd" fill="black"/>
<path d="M517.79 399.8L518.49 400.09 517.79 398.4 517.79 399.8Z"
fill-rule="evenodd" fill="black"/>
<path d="M518.49 400.09L518.49 398.11 517.79 398.4 518.49 400.09Z"
fill-rule="evenodd" fill="black"/>
<path d="M518.49 400.09L519.19 399.8 518.49 398.11 518.49 400.09Z"
fill-rule="evenodd" fill="black"/>
<path d="M519.19 399.8L519.19 398.4 518.49 398.11 519.19 399.8Z"
fill-rule="evenodd" fill="black"/>
<path d="M519.19 399.8L519.48 399.1 519.19 398.4 519.19 399.8Z"
fill-rule="evenodd" fill="black"/>
<path d="M320.73 169.41L320.73 168.83 318.24 166.33 320.73 169.41Z"
fill-rule="evenodd" fill="black"/>
<path d="M320.73 168.83L320.73 168.38 318.24 166.33 320.73 168.83Z"
fill-rule="evenodd" fill="black"/>
<path d="M320.73 169.41L321.02 169.12 320.73 168.83 320.73 169.41Z"
fill-rule="evenodd" fill="black"/>
<path d="M320.73 168.83L321.02 169.12 320.73 168.38 320.73 168.83Z"
fill-rule="evenodd" fill="black"/>
<path d="M321.02 169.12L321.02 168.62 320.73 168.38 321.02 169.12Z"
fill-rule="evenodd" fill="black"/>
<path d="M321.02 169.12L321.3 168.85 321.02 168.62 321.02 169.12Z"
fill-rule="evenodd" fill="black"/>
<path d="M351.08 168.38L351.08 167.79 348.59 165.3 351.08 168.38Z"
fill-rule="evenodd" fill="black"/>
<path d="M351.08 167.79L351.08 167.34 348.59 165.3 351.08 167.79Z"
fill-rule="evenodd" fill="black"/>
<path d="M351.08 168.38L351.37 168.08 351.08 167.79 351.08 168.38Z"
fill-rule="evenodd" fill="black"/>
<path d="M351.08 167.79L351.37 168.08 351.08 167.34 351.08 167.79Z"
fill-rule="evenodd" fill="black"/>
<path d="M351.37 168.08L351.37 167.58 351.08 167.34 351.37 168.08Z"
fill-rule="evenodd" fill="black"/>
<path d="M351.37 168.08L351.65 167.81 351.37 167.58 351.37 168.08Z"
fill-rule="evenodd" fill="black"/>
<path d="M349.94 169.41L349.94 168.83 347.45 166.33 349.94 169.41Z"
fill-rule="evenodd" fill="black"/>
<path d="M349.94 168.83L349.94 168.38 347.45 166.33 349.94 168.83Z"
fill-rule="evenodd" fill="black"/>
<path d="M349.94 169.41L350.24 169.12 349.94 168.83 349.94 169.41Z"
fill-rule="evenodd" fill="black"/>
<path d="M349.94 168.83L350.24 169.12 349.94 168.38 349.94 168.83Z"
fill-rule="evenodd" fill="black"/>
<path d="M350.24 169.12L350.24 168.62 349.94 168.38 350.24 169.12Z"
fill-rule="evenodd" fill="black"/>
<path d="M350.24 169.12L350.51 168.85 350.24 168.62 350.24 169.12Z"
fill-rule="evenodd" fill="black"/>
<path d="M371.88 168.38L371.88 167.79 369.38 165.3 371.88 168.38Z"
fill-rule="evenodd" fill="black"/>
<path d="M371.88 167.79L371.88 167.34 369.38 165.3 371.88 167.79Z"
fill-rule="evenodd" fill="black"/>
<path d="M371.88 168.38L372.17 168.08 371.88 167.79 371.88 168.38Z"
fill-rule="evenodd" fill="black"/>
<path d="M371.88 167.79L372.17 168.08 371.88 167.34 371.88 167.79Z"
fill-rule="evenodd" fill="black"/>
<path d="M372.17 168.08L372.17 167.58 371.88 167.34 372.17 168.08Z"
fill-rule="evenodd" fill="black"/>
<path d="M372.17 168.08L372.45 167.81 372.17 167.58 372.17 168.08Z"
fill-rule="evenodd" fill="black"/>
<path d="M370.74 169.41L370.74 168.83 368.25 166.33 370.74 169.41Z"
fill-rule="evenodd" fill="black"/>
<path d="M370.74 168.83L370.74 168.38 368.25 166.33 370.74 168.83Z"
fill-rule="evenodd" fill="black"/>
<path d="M370.74 169.41L371.03 169.12 370.74 168.83 370.74 169.41Z"
fill-rule="evenodd" fill="black"/>
<path d="M370.74 168.83L371.03 169.12 370.74 168.38 370.74 168.83Z"
fill-rule="evenodd" fill="black"/>
<path d="M371.03 169.12L371.03 168.62 370.74 168.38 371.03 169.12Z"
fill-rule="evenodd" fill="black"/>
<path d="M371.03 169.12L371.31 168.85 371.03 168.62 371.03 169.12Z"
fill-rule="evenodd" fill="black"/>
<path d="M392.67 168.38L392.67 167.79 390.18 165.3 392.67 168.38Z"
fill-rule="evenodd" fill="black"/>
<path d="M392.67 167.79L392.67 167.34 390.18 165.3 392.67 167.79Z"
fill-rule="evenodd" fill="black"/>
<path d="M392.67 168.38L392.97 168.08 392.67 167.79 392.67 168.38Z"
fill-rule="evenodd" fill="black"/>
<path d="M392.67 167.79L392.97 168.08 392.67 167.34 392.67 167.79Z"
fill-rule="evenodd" fill="black"/>
<path d="M392.97 168.08L392.97 167.58 392.67 167.34 392.97 168.08Z"
fill-rule="evenodd" fill="black"/>
<path d="M392.97 168.08L393.24 167.81 392.97 167.58 392.97 168.08Z"
fill-rule="evenodd" fill="black"/>
<path d="M391.53 169.41L391.53 168.83 389.04 166.33 391.53 169.41Z"
fill-rule="evenodd" fill="black"/>
<path d="M391.53 168.83L391.53 168.38 389.04 166.33 391.53 168.83Z"
fill-rule="evenodd" fill="black"/>
<path d="M391.53 169.41L391.83 169.12 391.53 168.83 391.53 169.41Z"
fill-rule="evenodd" fill="black"/>
<path d="M391.53 168.83L391.83 169.12 391.53 168.38 391.53 168.83Z"
fill-rule="evenodd" fill="black"/>
<path d="M391.83 169.12L391.83 168.62 391.53 168.38 391.83 169.12Z"
fill-rule="evenodd" fill="black"/>
<path d="M391.83 169.12L392.1 168.85 391.83 168.62 391.83 169.12Z"
fill-rule="evenodd" fill="black"/>
<path d="M445.33 241.1L445.51 240.02M445.51 240.02L446.04 239.05M446.04 239.05L446.85 238.3M446.85 238.3L447.86 237.86M447.86 237.86L448.95 237.77M448.95 237.77L450.02 238.04M450.02 238.04L450.94 238.64M450.94 238.64L451.62 239.51M451.62 239.51L451.97 240.55M451.97 240.55L451.97 241.65M451.97 241.65L451.62 242.69M451.62 242.69L450.94 243.56M450.94 243.56L450.02 244.16M450.02 244.16L448.95 244.43M448.95 244.43L447.86 244.34M447.86 244.34L446.85 243.9M446.85 243.9L446.04 243.15M446.04 243.15L445.51 242.19M445.51 242.19L445.33 241.1"
fill="none" stroke="black" stroke-width="0.5"/>
<path d="M448.5 244.44L448.85 244.44 448.85 290.78 448.5 290.43 448.5 244.44Z"
fill-rule="evenodd" fill="black"/>
<path d="M448.5 290.43L448.85 290.78 400.96 290.78 401.32 290.43 448.5 290.43Z"
fill-rule="evenodd" fill="black"/>
<path d="M401.32 290.43L400.96 290.78 400.96 232.99 401.32 233.34 401.32 290.43Z"
fill-rule="evenodd" fill="black"/>
<path d="M401.32 233.34L400.96 232.99 448.85 232.99 448.5 233.34 401.32 233.34Z"
fill-rule="evenodd" fill="black"/>
<path d="M448.5 233.34L448.85 232.99 448.85 237.76 448.5 237.76 448.5 233.34Z"
fill-rule="evenodd" fill="black"/>
<path d="M445.33 322.28L445.51 321.2M445.51 321.2L446.04 320.23M446.04 320.23L446.85 319.48M446.85 319.48L447.86 319.04M447.86 319.04L448.95 318.95M448.95 318.95L450.02 319.22M450.02 319.22L450.94 319.82M450.94 319.82L451.62 320.69M451.62 320.69L451.97 321.73M451.97 321.73L451.97 322.83M451.97 322.83L451.62 323.87M451.62 323.87L450.94 324.74M450.94 324.74L450.02 325.34M450.02 325.34L448.95 325.61M448.95 325.61L447.86 325.52M447.86 325.52L446.85 325.08M446.85 325.08L446.04 324.34M446.04 324.34L445.51 323.37M445.51 323.37L445.33 322.28"
fill="none" stroke="black" stroke-width="0.5"/>
<path d="M448.5 325.63L448.85 325.63 448.85 371.96 448.5 371.61 448.5 325.63Z"
fill-rule="evenodd" fill="black"/>
<path d="M448.5 371.61L448.85 371.96 400.96 371.96 401.32 371.61 448.5 371.61Z"
fill-rule="evenodd" fill="black"/>
<path d="M401.32 371.61L400.96 371.96 400.96 314.17 401.32 314.53 401.32 371.61Z"
fill-rule="evenodd" fill="black"/>
<path d="M401.32 314.53L400.96 314.17 448.85 314.17 448.5 314.53 401.32 314.53Z"
fill-rule="evenodd" fill="black"/>
<path d="M448.5 314.53L448.85 314.17 448.85 318.94 448.5 318.94 448.5 314.53Z"
fill-rule="evenodd" fill="black"/>
<path d="M401.14 361.47L359.55 361.47"
fill="none" stroke="black" stroke-width="0.5"/>
<path d="M359.55 361.47L359.55 399.1"
fill="none" stroke="black" stroke-width="0.5"/>
<path d="M359.55 399.1L466.5 399.1"
fill="none" stroke="black" stroke-width="0.5"/>
<path d="M472.15 399.1L518.49 399.1"
fill="none" stroke="black" stroke-width="0.5"/>
<path d="M518.49 399.1L518.49 430.79"
fill="none" stroke="black" stroke-width="0.5"/>
<path d="M518.49 399.1L518.49 325.25"
fill="none" stroke="black" stroke-width="0.5"/>
<path d="M518.49 430.79L406.79 430.79"
fill="none" stroke="black" stroke-width="0.5"/>
<path d="M330.34 430.79L330.34 204.24"
fill="none" stroke="black" stroke-width="0.5"/>
<path d="M472.15 392.33L472.15 388.37"
fill="none" stroke="black" stroke-width="0.5"/>
<path d="M472.15 388.37L495.92 388.37"
fill="none" stroke="black" stroke-width="0.5"/>
<path d="M495.92 388.37L495.92 414.95"
fill="none" stroke="black" stroke-width="0.5"/>
<path d="M495.92 414.95L406.79 414.95"
fill="none" stroke="black" stroke-width="0.5"/>
<path d="M406.79 414.95L406.79 427.01"
fill="none" stroke="black" stroke-width="0.5"/>
<path d="M391.92 430.79L410.23 423.23"
fill="none" stroke="black" stroke-width="0.5"/>
<path d="M466.5 399.1L476.46 392.33"
fill="none" stroke="black" stroke-width="0.5"/>
<path d="M472.15 392.33L472.15 395.72"
fill="none" stroke="black" stroke-width="0.5"/>
<path d="M467.97 398.05L467.97 392.33"
fill="none" stroke="black" stroke-width="0.5"/>
<path d="M469.45 396.85L469.45 392.33"
fill="none" stroke="black" stroke-width="0.5"/>
<path d="M466.5 392.33L471.48 392.33"
fill="none" stroke="black" stroke-width="0.5"/>
<path d="M471.48 392.33L471.48 393.18"
fill="none" stroke="black" stroke-width="0.5"/>
<path d="M466.5 392.33L466.5 393.18"
fill="none" stroke="black" stroke-width="0.5"/>
<path d="M495.92 388.37L495.92 380.29"
fill="none" stroke="black" stroke-width="0.5"/>
<path d="M492.18 380.29L499.68 380.29"
fill="none" stroke="blue" stroke-width="0.5"/>
<path d="M391.92 430.79L330.34 430.79"
fill="none" stroke="black" stroke-width="0.5"/>
<path d="M494.93 388.37L495.12 387.79M495.12 387.79L495.61 387.43M495.61 387.43L496.23 387.43M496.23 387.43L496.72 387.79M496.72 387.79L496.91 388.37M496.91 388.37L496.72 388.96M496.72 388.96L496.23 389.32M496.23 389.32L495.61 389.32M495.61 389.32L495.12 388.96M495.12 388.96L494.93 388.37"
fill="none" stroke="black" stroke-width="0.5"/>
<path d="M517.5 399.1L517.69 398.52M517.69 398.52L518.19 398.16M518.19 398.16L518.8 398.16M518.8 398.16L519.29 398.52M519.29 398.52L519.48 399.1M519.48 399.1L519.29 399.68M519.29 399.68L518.8 400.04M518.8 400.04L518.19 400.04M518.19 400.04L517.69 399.68M517.69 399.68L517.5 399.1"
fill="none" stroke="black" stroke-width="0.5"/>
<path d="M358.56 361.47L358.75 360.89M358.75 360.89L359.24 360.53M359.24 360.53L359.86 360.53M359.86 360.53L360.35 360.89M360.35 360.89L360.54 361.47M360.54 361.47L360.35 362.05M360.35 362.05L359.86 362.41M359.86 362.41L359.24 362.41M359.24 362.41L358.75 362.05M358.75 362.05L358.56 361.47"
fill="none" stroke="black" stroke-width="0.5"/>
<path d="M359.55 361.47L359.55 204.24"
fill="none" stroke="black" stroke-width="0.5"/>
<path d="M401.14 322.28L391.24 322.28"
fill="none" stroke="black" stroke-width="0.5"/>
<path d="M391.24 322.28L391.24 308.99"
fill="none" stroke="black" stroke-width="0.5"/>
<path d="M391.24 308.99L458.58 308.99"
fill="none" stroke="black" stroke-width="0.5"/>
<path d="M458.58 308.99L458.58 241.1"
fill="none" stroke="black" stroke-width="0.5"/>
<path d="M458.58 241.1L452.02 241.1"
fill="none" stroke="black" stroke-width="0.5"/>
<path d="M458.58 241.1L458.58 221.3"
fill="none" stroke="black" stroke-width="0.5"/>
<path d="M458.58 221.3L380.35 221.3"
fill="none" stroke="black" stroke-width="0.5"/>
<path d="M380.35 221.3L380.35 204.24"
fill="none" stroke="black" stroke-width="0.5"/>
<path d="M452.02 322.28L466.5 322.28"
fill="none" stroke="black" stroke-width="0.5"/>
<path d="M466.5 322.28L466.5 209.39"
fill="none" stroke="black" stroke-width="0.5"/>
<path d="M466.5 209.39L401.14 209.39"
fill="none" stroke="black" stroke-width="0.5"/>
<path d="M401.14 209.39L401.14 204.24"
fill="none" stroke="black" stroke-width="0.5"/>
<path d="M330.34 241.1L401.14 241.1"
fill="none" stroke="black" stroke-width="0.5"/>
<path d="M401.14 275.04L391.24 275.04"
fill="none" stroke="black" stroke-width="0.5"/>
<path d="M391.24 275.04L391.24 300.79"
fill="none" stroke="black" stroke-width="0.5"/>
<path d="M391.24 300.79L466.5 300.79"
fill="none" stroke="black" stroke-width="0.5"/>
<path d="M465.51 300.79L465.7 300.21M465.7 300.21L466.2 299.85M466.2 299.85L466.81 299.85M466.81 299.85L467.3 300.21M467.3 300.21L467.49 300.79M467.49 300.79L467.3 301.37M467.3 301.37L466.81 301.73M466.81 301.73L466.2 301.73M466.2 301.73L465.7 301.37M465.7 301.37L465.51 300.79"
fill="none" stroke="black" stroke-width="0.5"/>
<path d="M329.35 241.1L329.54 240.52M329.54 240.52L330.03 240.16M330.03 240.16L330.64 240.16M330.64 240.16L331.14 240.52M331.14 240.52L331.33 241.1M331.33 241.1L331.14 241.68M331.14 241.68L330.64 242.04M330.64 242.04L330.03 242.04M330.03 242.04L329.54 241.68M329.54 241.68L329.35 241.1"
fill="none" stroke="black" stroke-width="0.5"/>
<path d="M457.59 241.1L457.78 240.52M457.78 240.52L458.27 240.16M458.27 240.16L458.89 240.16M458.89 240.16L459.38 240.52M459.38 240.52L459.57 241.1M459.57 241.1L459.38 241.68M459.38 241.68L458.89 242.04M458.89 242.04L458.27 242.04M458.27 242.04L457.78 241.68M457.78 241.68L457.59 241.1"
fill="none" stroke="black" stroke-width="0.5"/>
<path d="M515.52 322.28L515.7 321.27M515.7 321.27L516.22 320.37M516.22 320.37L517.01 319.71M517.01 319.71L517.98 319.36M517.98 319.36L519.01 319.36M519.01 319.36L519.98 319.71M519.98 319.71L520.77 320.37M520.77 320.37L521.28 321.27M521.28 321.27L521.46 322.28M521.46 322.28L521.28 323.3M521.28 323.3L520.77 324.19M520.77 324.19L519.98 324.86M519.98 324.86L519.01 325.21M519.01 325.21L517.98 325.21M517.98 325.21L517.01 324.86M517.01 324.86L516.22 324.19M516.22 324.19L515.7 323.3M515.7 323.3L515.52 322.28"
fill="none" stroke="black" stroke-width="0.5"/>
<path d="M515.52 325.25L521.46 319.31"
fill="none" stroke="black" stroke-width="0.5"/>
<path d="M325.36 204.24L335.26 204.24"
fill="none" stroke="black" stroke-width="0.5"/>
<path d="M335.26 204.24L335.26 178.49"
fill="none" stroke="black" stroke-width="0.5"/>
<path d="M335.26 178.49L325.36 178.49"
fill="none" stroke="black" stroke-width="0.5"/>
<path d="M325.36 178.49L325.36 204.24"
fill="none" stroke="black" stroke-width="0.5"/>
<path d="M330.34 178.49L330.34 172.55"
fill="none" stroke="black" stroke-width="0.5"/>
<path d="M325.36 172.55L335.26 172.55"
fill="none" stroke="black" stroke-width="0.5"/>
<path d="M335.26 172.55L330.34 166.45"
fill="none" stroke="black" stroke-width="0.5"/>
<path d="M330.34 166.45L325.36 172.55"
fill="none" stroke="black" stroke-width="0.5"/>
<path d="M330.34 172.55L330.34 160.66"
fill="none" stroke="black" stroke-width="0.5"/>
<path d="M325.36 166.61L335.26 166.61"
fill="none" stroke="black" stroke-width="0.5"/>
<path d="M325.36 160.66L335.26 160.66"
fill="none" stroke="blue" stroke-width="0.5"/>
<path d="M323.58 169.5L319.38 165.3"
fill="none" stroke="blue" stroke-width="0.5"/>
<path d="M319.38 165.3L322.44 167.81"
fill="none" stroke="blue" stroke-width="0.5"/>
<path d="M319.38 165.3L321.87 168.38"
fill="none" stroke="blue" stroke-width="0.5"/>
<path d="M322.44 167.81L321.87 168.38"
fill="none" stroke="blue" stroke-width="0.5"/>
<path d="M457.59 241.1L457.78 240.52M457.78 240.52L458.27 240.16M458.27 240.16L458.89 240.16M458.89 240.16L459.38 240.52M459.38 240.52L459.57 241.1M459.57 241.1L459.38 241.68M459.38 241.68L458.89 242.04M458.89 242.04L458.27 242.04M458.27 242.04L457.78 241.68M457.78 241.68L457.59 241.1"
fill="none" stroke="blue" stroke-width="0.5"/>
<path d="M329.35 241.1L329.54 240.52M329.54 240.52L330.03 240.16M330.03 240.16L330.64 240.16M330.64 240.16L331.14 240.52M331.14 240.52L331.33 241.1M331.33 241.1L331.14 241.68M331.14 241.68L330.64 242.04M330.64 242.04L330.03 242.04M330.03 242.04L329.54 241.68M329.54 241.68L329.35 241.1"
fill="none" stroke="blue" stroke-width="0.5"/>
<path d="M358.56 361.47L358.75 360.89M358.75 360.89L359.24 360.53M359.24 360.53L359.86 360.53M359.86 360.53L360.35 360.89M360.35 360.89L360.54 361.47M360.54 361.47L360.35 362.05M360.35 362.05L359.86 362.41M359.86 362.41L359.24 362.41M359.24 362.41L358.75 362.05M358.75 362.05L358.56 361.47"
fill="none" stroke="blue" stroke-width="0.5"/>
<path d="M517.5 399.1L517.69 398.52M517.69 398.52L518.19 398.16M518.19 398.16L518.8 398.16M518.8 398.16L519.29 398.52M519.29 398.52L519.48 399.1M519.48 399.1L519.29 399.68M519.29 399.68L518.8 400.04M518.8 400.04L518.19 400.04M518.19 400.04L517.69 399.68M517.69 399.68L517.5 399.1"
fill="none" stroke="blue" stroke-width="0.5"/>
<path d="M494.93 388.37L495.12 387.79M495.12 387.79L495.61 387.43M495.61 387.43L496.23 387.43M496.23 387.43L496.72 387.79M496.72 387.79L496.91 388.37M496.91 388.37L496.72 388.96M496.72 388.96L496.23 389.32M496.23 389.32L495.61 389.32M495.61 389.32L495.12 388.96M495.12 388.96L494.93 388.37"
fill="none" stroke="blue" stroke-width="0.5"/>
<path d="M465.51 300.79L465.7 300.21M465.7 300.21L466.2 299.85M466.2 299.85L466.81 299.85M466.81 299.85L467.3 300.21M467.3 300.21L467.49 300.79M467.49 300.79L467.3 301.37M467.3 301.37L466.81 301.73M466.81 301.73L466.2 301.73M466.2 301.73L465.7 301.37M465.7 301.37L465.51 300.79"
fill="none" stroke="blue" stroke-width="0.5"/>
<path d="M322.44 170.54L318.24 166.33"
fill="none" stroke="blue" stroke-width="0.5"/>
<path d="M318.24 166.33L321.3 168.85"
fill="none" stroke="blue" stroke-width="0.5"/>
<path d="M318.24 166.33L320.73 169.41"
fill="none" stroke="blue" stroke-width="0.5"/>
<path d="M321.3 168.85L320.73 169.41"
fill="none" stroke="blue" stroke-width="0.5"/>
<path d="M354.57 204.24L364.48 204.24"
fill="none" stroke="black" stroke-width="0.5"/>
<path d="M364.48 204.24L364.48 178.49"
fill="none" stroke="black" stroke-width="0.5"/>
<path d="M364.48 178.49L354.57 178.49"
fill="none" stroke="black" stroke-width="0.5"/>
<path d="M354.57 178.49L354.57 204.24"
fill="none" stroke="black" stroke-width="0.5"/>
<path d="M359.55 178.49L359.55 172.55"
fill="none" stroke="black" stroke-width="0.5"/>
<path d="M354.57 172.55L364.48 172.55"
fill="none" stroke="black" stroke-width="0.5"/>
<path d="M364.48 172.55L359.55 166.45"
fill="none" stroke="black" stroke-width="0.5"/>
<path d="M359.55 166.45L354.57 172.55"
fill="none" stroke="black" stroke-width="0.5"/>
<path d="M359.55 172.55L359.55 160.66"
fill="none" stroke="black" stroke-width="0.5"/>
<path d="M354.57 166.61L364.48 166.61"
fill="none" stroke="black" stroke-width="0.5"/>
<path d="M354.57 160.66L364.48 160.66"
fill="none" stroke="blue" stroke-width="0.5"/>
<path d="M352.79 169.5L348.59 165.3"
fill="none" stroke="blue" stroke-width="0.5"/>
<path d="M348.59 165.3L351.65 167.81"
fill="none" stroke="blue" stroke-width="0.5"/>
<path d="M348.59 165.3L351.08 168.38"
fill="none" stroke="blue" stroke-width="0.5"/>
<path d="M351.65 167.81L351.08 168.38"
fill="none" stroke="blue" stroke-width="0.5"/>
<path d="M351.65 170.54L347.45 166.33"
fill="none" stroke="blue" stroke-width="0.5"/>
<path d="M347.45 166.33L350.51 168.85"
fill="none" stroke="blue" stroke-width="0.5"/>
<path d="M347.45 166.33L349.94 169.41"
fill="none" stroke="blue" stroke-width="0.5"/>
<path d="M350.51 168.85L349.94 169.41"
fill="none" stroke="blue" stroke-width="0.5"/>
<path d="M375.37 204.24L385.27 204.24"
fill="none" stroke="black" stroke-width="0.5"/>
<path d="M385.27 204.24L385.27 178.49"
fill="none" stroke="black" stroke-width="0.5"/>
<path d="M385.27 178.49L375.37 178.49"
fill="none" stroke="black" stroke-width="0.5"/>
<path d="M375.37 178.49L375.37 204.24"
fill="none" stroke="black" stroke-width="0.5"/>
<path d="M380.35 178.49L380.35 172.55"
fill="none" stroke="black" stroke-width="0.5"/>
<path d="M375.37 172.55L385.27 172.55"
fill="none" stroke="black" stroke-width="0.5"/>
<path d="M385.27 172.55L380.35 166.45"
fill="none" stroke="black" stroke-width="0.5"/>
<path d="M380.35 166.45L375.37 172.55"
fill="none" stroke="black" stroke-width="0.5"/>
<path d="M380.35 172.55L380.35 160.66"
fill="none" stroke="black" stroke-width="0.5"/>
<path d="M375.37 166.61L385.27 166.61"
fill="none" stroke="black" stroke-width="0.5"/>
<path d="M375.37 160.66L385.27 160.66"
fill="none" stroke="blue" stroke-width="0.5"/>
<path d="M373.59 169.5L369.38 165.3"
fill="none" stroke="blue" stroke-width="0.5"/>
<path d="M369.38 165.3L372.45 167.81"
fill="none" stroke="blue" stroke-width="0.5"/>
<path d="M369.38 165.3L371.88 168.38"
fill="none" stroke="blue" stroke-width="0.5"/>
<path d="M372.45 167.81L371.88 168.38"
fill="none" stroke="blue" stroke-width="0.5"/>
<path d="M372.45 170.54L368.25 166.33"
fill="none" stroke="blue" stroke-width="0.5"/>
<path d="M368.25 166.33L371.31 168.85"
fill="none" stroke="blue" stroke-width="0.5"/>
<path d="M368.25 166.33L370.74 169.41"
fill="none" stroke="blue" stroke-width="0.5"/>
<path d="M371.31 168.85L370.74 169.41"
fill="none" stroke="blue" stroke-width="0.5"/>
<path d="M396.17 204.24L406.07 204.24"
fill="none" stroke="black" stroke-width="0.5"/>
<path d="M406.07 204.24L406.07 178.49"
fill="none" stroke="black" stroke-width="0.5"/>
<path d="M406.07 178.49L396.17 178.49"
fill="none" stroke="black" stroke-width="0.5"/>
<path d="M396.17 178.49L396.17 204.24"
fill="none" stroke="black" stroke-width="0.5"/>
<path d="M401.14 178.49L401.14 172.55"
fill="none" stroke="black" stroke-width="0.5"/>
<path d="M396.17 172.55L406.07 172.55"
fill="none" stroke="black" stroke-width="0.5"/>
<path d="M406.07 172.55L401.14 166.45"
fill="none" stroke="black" stroke-width="0.5"/>
<path d="M401.14 166.45L396.17 172.55"
fill="none" stroke="black" stroke-width="0.5"/>
<path d="M401.14 172.55L401.14 160.66"
fill="none" stroke="black" stroke-width="0.5"/>
<path d="M396.17 166.61L406.07 166.61"
fill="none" stroke="black" stroke-width="0.5"/>
<path d="M396.17 160.66L406.07 160.66"
fill="none" stroke="blue" stroke-width="0.5"/>
<path d="M394.38 169.5L390.18 165.3"
fill="none" stroke="blue" stroke-width="0.5"/>
<path d="M390.18 165.3L393.24 167.81"
fill="none" stroke="blue" stroke-width="0.5"/>
<path d="M390.18 165.3L392.67 168.38"
fill="none" stroke="blue" stroke-width="0.5"/>
<path d="M393.24 167.81L392.67 168.38"
fill="none" stroke="blue" stroke-width="0.5"/>
<path d="M393.24 170.54L389.04 166.33"
fill="none" stroke="blue" stroke-width="0.5"/>
<path d="M389.04 166.33L392.1 168.85"
fill="none" stroke="blue" stroke-width="0.5"/>
<path d="M389.04 166.33L391.53 169.41"
fill="none" stroke="blue" stroke-width="0.5"/>
<path d="M392.1 168.85L391.53 169.41"
fill="none" stroke="blue" stroke-width="0.5"/>
<path d="M397.85 428.49L397.85 422.78"
fill="none" stroke="black" stroke-width="0.5"/>
<path d="M399.33 427.73L399.33 422.78"
fill="none" stroke="black" stroke-width="0.5"/>
<path d="M396.38 422.78L401.37 422.78"
fill="none" stroke="black" stroke-width="0.5"/>
<path d="M401.37 422.78L401.37 423.63"
fill="none" stroke="black" stroke-width="0.5"/>
<path d="M396.38 422.78L396.38 423.63"
fill="none" stroke="black" stroke-width="0.5"/>
<path d="M526.65 318.72L526.65 324.66M523.78 321.69L529.52 321.69M535.89 317.73L532.7 317.73M532.7 317.73L532.38 320.7M532.38 320.7L532.7 320.37M532.7 320.37L533.66 320.04M533.66 320.04L534.61 320.04M534.61 320.04L535.57 320.37M535.57 320.37L536.2 321.03M536.2 321.03L536.52 322.02M536.52 322.02L536.52 322.68M536.52 322.68L536.2 323.67M536.2 323.67L535.57 324.33M535.57 324.33L534.61 324.66M534.61 324.66L533.66 324.66M533.66 324.66L532.7 324.33M532.7 324.33L532.38 324M532.38 324L532.06 323.34M542.58 317.73L539.71 317.73M539.71 317.73L539.71 324.66M539.71 324.66L542.58 324.66M542.58 324.66L543.53 324.33M543.53 324.33L543.85 324M543.85 324L544.17 323.34M544.17 323.34L544.17 322.35M544.17 322.35L543.85 321.69M543.85 321.69L543.53 321.36M543.53 321.36L542.58 321.03M542.58 321.03L539.71 321.03M542.58 317.73L543.53 318.06M543.53 318.06L543.85 318.39M543.85 318.39L544.17 319.05M544.17 319.05L544.17 319.71M544.17 319.71L543.85 320.37M543.85 320.37L543.53 320.7M543.53 320.7L542.58 321.03"
fill="none" stroke="black" stroke-width="0.5"/>
<path d="M416.8 365.77L416.8 358.83M416.8 358.83L419.03 358.83M419.03 358.83L419.98 359.16M419.98 359.16L420.62 359.82M420.62 359.82L420.94 360.48M420.94 360.48L421.26 361.47M421.26 361.47L421.26 363.12M421.26 363.12L420.94 364.12M420.94 364.12L420.62 364.78M420.62 364.78L419.98 365.44M419.98 365.44L419.03 365.77M419.03 365.77L416.8 365.77M423.8 360.48L423.8 360.15M423.8 360.15L424.12 359.49M424.12 359.49L424.44 359.16M424.44 359.16L425.08 358.83M425.08 358.83L426.35 358.83M426.35 358.83L426.99 359.16M426.99 359.16L427.31 359.49M427.31 359.49L427.63 360.15M427.63 360.15L427.63 360.81M427.63 360.81L427.31 361.47M427.31 361.47L426.67 362.46M426.67 362.46L423.49 365.77M423.49 365.77L427.95 365.77M430.18 365.11L429.86 365.44M429.86 365.44L430.18 365.77M430.18 365.77L430.49 365.44M436.23 358.83L433.04 363.45M433.04 363.45L437.82 363.45M436.23 358.83L436.23 365.77"
fill="none" stroke="black" stroke-width="0.5"/>
<path d="M416.8 282.85L416.8 275.92M416.8 275.92L419.03 275.92M419.03 275.92L419.98 276.25M419.98 276.25L420.62 276.91M420.62 276.91L420.94 277.57M420.94 277.57L421.26 278.56M421.26 278.56L421.26 280.21M421.26 280.21L420.94 281.2M420.94 281.2L420.62 281.86M420.62 281.86L419.98 282.52M419.98 282.52L419.03 282.85M419.03 282.85L416.8 282.85M423.8 277.57L423.8 277.24M423.8 277.24L424.12 276.58M424.12 276.58L424.44 276.25M424.44 276.25L425.08 275.92M425.08 275.92L426.35 275.92M426.35 275.92L426.99 276.25M426.99 276.25L427.31 276.58M427.31 276.58L427.63 277.24M427.63 277.24L427.63 277.9M427.63 277.9L427.31 278.56M427.31 278.56L426.67 279.55M426.67 279.55L423.49 282.85M423.49 282.85L427.95 282.85M430.18 282.19L429.86 282.52M429.86 282.52L430.18 282.85M430.18 282.85L430.49 282.52M433.36 277.57L433.36 277.24M433.36 277.24L433.68 276.58M433.68 276.58L434 276.25M434 276.25L434.63 275.92M434.63 275.92L435.91 275.92M435.91 275.92L436.55 276.25M436.55 276.25L436.86 276.58M436.86 276.58L437.18 277.24M437.18 277.24L437.18 277.9M437.18 277.9L436.86 278.56M436.86 278.56L436.23 279.55M436.23 279.55L433.04 282.85M433.04 282.85L437.5 282.85"
fill="none" stroke="black" stroke-width="0.5"/>
<path d="M424.91 316.67L425.55 316.34M425.55 316.34L426.5 315.35M426.5 315.35L426.5 322.28"
fill="none" stroke="black" stroke-width="0.5"/>
<path d="M423.53 235.49L424.17 235.16M424.17 235.16L425.13 234.17M425.13 234.17L425.13 241.1"
fill="none" stroke="black" stroke-width="0.5"/>
<path d="M388.04 238.72L391.55 234.1M391.55 238.72L388.04 234.1M393.46 233.11L394.09 232.78M394.09 232.78L395.05 231.79M395.05 231.79L395.05 238.72"
fill="none" stroke="black" stroke-width="0.5"/>
<path d="M452.34 230.84L454.25 235.46M456.16 230.84L454.25 235.46M454.25 235.46L453.29 237.44M453.29 237.44L452.98 237.77M452.98 237.77L452.02 237.77M457.12 229.85L457.75 229.52M457.75 229.52L458.71 228.53M458.71 228.53L458.71 235.46"
fill="none" stroke="black" stroke-width="0.5"/>
<path d="M455.62 314.69L457.53 319.31M459.44 314.69L457.53 319.31M457.53 319.31L456.57 321.29M456.57 321.29L456.26 321.62M456.26 321.62L455.3 321.62M460.71 314.03L460.71 313.7M460.71 313.7L461.03 313.04M461.03 313.04L461.35 312.71M461.35 312.71L461.99 312.38M461.99 312.38L463.26 312.38M463.26 312.38L463.9 312.71M463.9 312.71L464.22 313.04M464.22 313.04L464.54 313.7M464.54 313.7L464.54 314.36M464.54 314.36L464.22 315.02M464.22 315.02L463.58 316.01M463.58 316.01L460.4 319.31M460.4 319.31L464.86 319.31"
fill="none" stroke="black" stroke-width="0.5"/>
<path d="M391.24 356.43L394.74 351.81M394.74 356.43L391.24 351.81M396.97 351.15L396.97 350.82M396.97 350.82L397.29 350.16M397.29 350.16L397.61 349.83M397.61 349.83L398.25 349.5M398.25 349.5L399.52 349.5M399.52 349.5L400.16 349.83M400.16 349.83L400.48 350.16M400.48 350.16L400.8 350.82M400.8 350.82L400.8 351.48M400.8 351.48L400.48 352.14M400.48 352.14L399.84 353.13M399.84 353.13L396.65 356.43M396.65 356.43L401.11 356.43"
fill="none" stroke="black" stroke-width="0.5"/>
<path d="M325.36 152.84L325.36 145.9M329.82 145.9L329.82 152.84M325.36 149.21L329.82 149.21M332.37 145.9L332.37 152.84M332.37 152.84L336.19 152.84M337.78 147.22L338.42 146.89M338.42 146.89L339.38 145.9M339.38 145.9L339.38 152.84"
fill="none" stroke="black" stroke-width="0.5"/>
<path d="M354.57 152.84L354.57 145.9M359.03 145.9L359.03 152.84M354.57 149.21L359.03 149.21M361.58 145.9L361.58 152.84M361.58 152.84L365.4 152.84M367.32 147.55L367.32 147.22M367.32 147.22L367.63 146.56M367.63 146.56L367.95 146.23M367.95 146.23L368.59 145.9M368.59 145.9L369.86 145.9M369.86 145.9L370.5 146.23M370.5 146.23L370.82 146.56M370.82 146.56L371.14 147.22M371.14 147.22L371.14 147.88M371.14 147.88L370.82 148.54M370.82 148.54L370.18 149.54M370.18 149.54L367 152.84M367 152.84L371.46 152.84"
fill="none" stroke="black" stroke-width="0.5"/>
<path d="M375.37 152.84L375.37 145.9M379.83 145.9L379.83 152.84M375.37 149.21L379.83 149.21M382.38 145.9L382.38 152.84M382.38 152.84L386.2 152.84M388.43 145.9L391.93 145.9M391.93 145.9L390.02 148.54M390.02 148.54L390.98 148.54M390.98 148.54L391.62 148.88M391.62 148.88L391.93 149.21M391.93 149.21L392.25 150.2M392.25 150.2L392.25 150.86M392.25 150.86L391.93 151.85M391.93 151.85L391.3 152.51M391.3 152.51L390.34 152.84M390.34 152.84L389.39 152.84M389.39 152.84L388.43 152.51M388.43 152.51L388.11 152.18M388.11 152.18L387.79 151.52"
fill="none" stroke="black" stroke-width="0.5"/>
<path d="M396.17 152.84L396.17 145.9M400.63 145.9L400.63 152.84M396.17 149.21L400.63 149.21M403.17 145.9L403.17 152.84M403.17 152.84L407 152.84M411.77 145.9L408.59 150.53M408.59 150.53L413.37 150.53M411.77 145.9L411.77 152.84"
fill="none" stroke="black" stroke-width="0.5"/>
<path d="M462.29 384.41L461.65 383.75M461.65 383.75L460.7 383.42M460.7 383.42L459.42 383.42M459.42 383.42L458.47 383.75M458.47 383.75L457.83 384.41M457.83 384.41L457.83 385.07M457.83 385.07L458.15 385.73M458.15 385.73L458.47 386.06M458.47 386.06L459.11 386.39M459.11 386.39L461.02 387.05M461.02 387.05L461.65 387.38M461.65 387.38L461.97 387.71M461.97 387.71L462.29 388.37M462.29 388.37L462.29 389.36M462.29 389.36L461.65 390.02M461.65 390.02L460.7 390.35M460.7 390.35L459.42 390.35M459.42 390.35L458.47 390.02M458.47 390.02L457.83 389.36M464.2 390.35L464.2 383.42M464.2 383.42L467.07 383.42M467.07 383.42L468.02 383.75M468.02 383.75L468.34 384.08M468.34 384.08L468.66 384.74M468.66 384.74L468.66 385.4M468.66 385.4L468.34 386.06M468.34 386.06L468.02 386.39M468.02 386.39L467.07 386.72M464.2 386.72L467.07 386.72M467.07 386.72L468.02 387.05M468.02 387.05L468.34 387.38M468.34 387.38L468.66 388.04M468.66 388.04L468.66 389.03M468.66 389.03L468.34 389.69M468.34 389.69L468.02 390.02M468.02 390.02L467.07 390.35M467.07 390.35L464.2 390.35M471.53 383.42L475.03 383.42M475.03 383.42L473.12 386.06M473.12 386.06L474.08 386.06M474.08 386.06L474.71 386.39M474.71 386.39L475.03 386.72M475.03 386.72L475.35 387.71M475.35 387.71L475.35 388.37M475.35 388.37L475.03 389.36M475.03 389.36L474.4 390.02M474.4 390.02L473.44 390.35M473.44 390.35L472.48 390.35M472.48 390.35L471.53 390.02M471.53 390.02L471.21 389.69M471.21 389.69L470.89 389.03"
fill="none" stroke="black" stroke-width="0.5"/>
<path d="M394.41 415.04L393.77 414.38M393.77 414.38L392.81 414.05M392.81 414.05L391.54 414.05M391.54 414.05L390.58 414.38M390.58 414.38L389.95 415.04M389.95 415.04L389.95 415.7M389.95 415.7L390.26 416.36M390.26 416.36L390.58 416.69M390.58 416.69L391.22 417.02M391.22 417.02L393.13 417.68M393.13 417.68L393.77 418.01M393.77 418.01L394.09 418.34M394.09 418.34L394.41 419M394.41 419L394.41 419.99M394.41 419.99L393.77 420.65M393.77 420.65L392.81 420.98M392.81 420.98L391.54 420.98M391.54 420.98L390.58 420.65M390.58 420.65L389.95 419.99M396.32 420.98L396.32 414.05M396.32 414.05L399.18 414.05M399.18 414.05L400.14 414.38M400.14 414.38L400.46 414.71M400.46 414.71L400.78 415.37M400.78 415.37L400.78 416.03M400.78 416.03L400.46 416.69M400.46 416.69L400.14 417.02M400.14 417.02L399.18 417.35M396.32 417.35L399.18 417.35M399.18 417.35L400.14 417.68M400.14 417.68L400.46 418.01M400.46 418.01L400.78 418.67M400.78 418.67L400.78 419.66M400.78 419.66L400.46 420.32M400.46 420.32L400.14 420.65M400.14 420.65L399.18 420.98M399.18 420.98L396.32 420.98M403.32 415.7L403.32 415.37M403.32 415.37L403.64 414.71M403.64 414.71L403.96 414.38M403.96 414.38L404.6 414.05M404.6 414.05L405.87 414.05M405.87 414.05L406.51 414.38M406.51 414.38L406.83 414.71M406.83 414.71L407.15 415.37M407.15 415.37L407.15 416.03M407.15 416.03L406.83 416.69M406.83 416.69L406.19 417.68M406.19 417.68L403.01 420.98M403.01 420.98L407.47 420.98"
fill="none" stroke="black" stroke-width="0.5"/>
<path d="M192.04 594.12L192.04 5.88"
fill="none" stroke="black" stroke-width="0.5"/>
<path d="M192.04 5.88L607.96 5.88"
fill="none" stroke="black" stroke-width="0.5"/>
<path d="M607.96 5.88L607.96 594.12"
fill="none" stroke="black" stroke-width="0.5"/>
<path d="M607.96 594.12L192.04 594.12"
fill="none" stroke="black" stroke-width="0.5"/>
</svg>
