<?xml version="1.0" encoding="UTF-8"?>
<svg xmlns="http://www.w3.org/2000/svg" width="800.000" height="600.000" viewBox="0.0 0.0 800.000 600.000" version="1.1">
  <title>Produce by Acme CAD Converter</title>
  <desc>Produce by Acme CAD Converter</desc>
<path d="M321.87 168.38L321.87 167.79 319.38 165.3 321.87 168.38Z"
fill-rule="evenodd" fill="black"/>
<path d="M321.87 167.79L321.87 167.34 319.38 165.3 321.87 167.79Z"
fill-rule="evenodd" fill="black"/>
<path d="M321.87 168.38L322.16 168.08 321.87 167.79 321.87 168.38Z"
fill-rule="evenodd" fill="black"/>
<path d="M321.87 167.79L322.16 168.08 321.87 167.34 321.87 167.79Z"
fill-rule="evenodd" fill="black"/>
<path d="M322.16 168.08L322.16 167.58 321.87 167.34 322.16 168.08Z"
fill-rule="evenodd" fill="black"/>
<path d="M322.16 168.08L322.44 167.81 322.16 167.58 322.16 168.08Z"
fill-rule="evenodd" fill="black"/>
<path d="M320.73 169.41L320.73 168.83 318.24 166.33 320.73 169.41Z"
fill-rule="evenodd" fill="black"/>
<path d="M320.73 168.83L320.73 168.38 318.24 166.33 320.73 168.83Z"
fill-rule="evenodd" fill="black"/>
<path d="M320.73 169.41L321.02 169.12 320.73 168.83 320.73 169.41Z"
fill-rule="evenodd" fill="black"/>
<path d="M320.73 168.83L321.02 169.12 320.73 168.38 320.73 168.83Z"
fill-rule="evenodd" fill="black"/>
<path d="M321.02 169.12L321.02 168.62 320.73 168.38 321.02 169.12Z"
fill-rule="evenodd" fill="black"/>
<path d="M321.02 169.12L321.3 168.85 321.02 168.62 321.02 169.12Z"
fill-rule="evenodd" fill="black"/>
<path d="M351.08 168.38L351.08 167.79 348.59 165.3 351.08 168.38Z"
fill-rule="evenodd" fill="black"/>
<path d="M351.08 167.79L351.08 167.34 348.59 165.3 351.08 167.79Z"
fill-rule="evenodd" fill="black"/>
<path d="M351.08 168.38L351.37 168.08 351.08 167.79 351.08 168.38Z"
fill-rule="evenodd" fill="black"/>
<path d="M351.08 167.79L351.37 168.08 351.08 167.34 351.08 167.79Z"
fill-rule="evenodd" fill="black"/>
<path d="M351.37 168.08L351.37 167.58 351.08 167.34 351.37 168.08Z"
fill-rule="evenodd" fill="black"/>
<path d="M351.37 168.08L351.65 167.81 351.37 167.58 351.37 168.08Z"
fill-rule="evenodd" fill="black"/>
<path d="M349.94 169.41L349.94 168.83 347.45 166.33 349.94 169.41Z"
fill-rule="evenodd" fill="black"/>
<path d="M349.94 168.83L349.94 168.38 347.45 166.33 349.94 168.83Z"
fill-rule="evenodd" fill="black"/>
<path d="M349.94 169.41L350.24 169.12 349.94 168.83 349.94 169.41Z"
fill-rule="evenodd" fill="black"/>
<path d="M349.94 168.83L350.24 169.12 349.94 168.38 349.94 168.83Z"
fill-rule="evenodd" fill="black"/>
<path d="M350.24 169.12L350.24 168.62 349.94 168.38 350.24 169.12Z"
fill-rule="evenodd" fill="black"/>
<path d="M350.24 169.12L350.51 168.85 350.24 168.62 350.24 169.12Z"
fill-rule="evenodd" fill="black"/>
<path d="M440.21 168.38L440.21 167.79 437.71 165.3 440.21 168.38Z"
fill-rule="evenodd" fill="black"/>
<path d="M440.21 167.79L440.21 167.34 437.71 165.3 440.21 167.79Z"
fill-rule="evenodd" fill="black"/>
<path d="M440.21 168.38L440.5 168.08 440.21 167.79 440.21 168.38Z"
fill-rule="evenodd" fill="black"/>
<path d="M440.21 167.79L440.5 168.08 440.21 167.34 440.21 167.79Z"
fill-rule="evenodd" fill="black"/>
<path d="M440.5 168.08L440.5 167.58 440.21 167.34 440.5 168.08Z"
fill-rule="evenodd" fill="black"/>
<path d="M440.5 168.08L440.78 167.81 440.5 167.58 440.5 168.08Z"
fill-rule="evenodd" fill="black"/>
<path d="M439.07 169.41L439.07 168.83 436.58 166.33 439.07 169.41Z"
fill-rule="evenodd" fill="black"/>
<path d="M439.07 168.83L439.07 168.38 436.58 166.33 439.07 168.83Z"
fill-rule="evenodd" fill="black"/>
<path d="M439.07 169.41L439.36 169.12 439.07 168.83 439.07 169.41Z"
fill-rule="evenodd" fill="black"/>
<path d="M439.07 168.83L439.36 169.12 439.07 168.38 439.07 168.83Z"
fill-rule="evenodd" fill="black"/>
<path d="M439.36 169.12L439.36 168.62 439.07 168.38 439.36 169.12Z"
fill-rule="evenodd" fill="black"/>
<path d="M439.36 169.12L439.64 168.85 439.36 168.62 439.36 169.12Z"
fill-rule="evenodd" fill="black"/>
<path d="M410.99 168.38L410.99 167.79 408.5 165.3 410.99 168.38Z"
fill-rule="evenodd" fill="black"/>
<path d="M410.99 167.79L410.99 167.34 408.5 165.3 410.99 167.79Z"
fill-rule="evenodd" fill="black"/>
<path d="M410.99 168.38L411.29 168.08 410.99 167.79 410.99 168.38Z"
fill-rule="evenodd" fill="black"/>
<path d="M410.99 167.79L411.29 168.08 410.99 167.34 410.99 167.79Z"
fill-rule="evenodd" fill="black"/>
<path d="M411.29 168.08L411.29 167.58 410.99 167.34 411.29 168.08Z"
fill-rule="evenodd" fill="black"/>
<path d="M411.29 168.08L411.56 167.81 411.29 167.58 411.29 168.08Z"
fill-rule="evenodd" fill="black"/>
<path d="M409.85 169.41L409.85 168.83 407.36 166.33 409.85 169.41Z"
fill-rule="evenodd" fill="black"/>
<path d="M409.85 168.83L409.85 168.38 407.36 166.33 409.85 168.83Z"
fill-rule="evenodd" fill="black"/>
<path d="M409.85 169.41L410.15 169.12 409.85 168.83 409.85 169.41Z"
fill-rule="evenodd" fill="black"/>
<path d="M409.85 168.83L410.15 169.12 409.85 168.38 409.85 168.83Z"
fill-rule="evenodd" fill="black"/>
<path d="M410.15 169.12L410.15 168.62 409.85 168.38 410.15 169.12Z"
fill-rule="evenodd" fill="black"/>
<path d="M410.15 169.12L410.42 168.85 410.15 168.62 410.15 169.12Z"
fill-rule="evenodd" fill="black"/>
<path d="M367.27 413.86L367.27 412.46 366.98 413.16 367.27 413.86Z"
fill-rule="evenodd" fill="black"/>
<path d="M367.27 413.86L367.97 414.15 367.27 412.46 367.27 413.86Z"
fill-rule="evenodd" fill="black"/>
<path d="M367.97 414.15L367.97 412.17 367.27 412.46 367.97 414.15Z"
fill-rule="evenodd" fill="black"/>
<path d="M367.97 414.15L368.67 413.86 367.97 412.17 367.97 414.15Z"
fill-rule="evenodd" fill="black"/>
<path d="M368.67 413.86L368.67 412.46 367.97 412.17 368.67 413.86Z"
fill-rule="evenodd" fill="black"/>
<path d="M368.67 413.86L368.96 413.16 368.67 412.46 368.67 413.86Z"
fill-rule="evenodd" fill="black"/>
<path d="M378.66 389.9L378.66 388.5 378.37 389.2 378.66 389.9Z"
fill-rule="evenodd" fill="black"/>
<path d="M378.66 389.9L379.36 390.19 378.66 388.5 378.66 389.9Z"
fill-rule="evenodd" fill="black"/>
<path d="M379.36 390.19L379.36 388.21 378.66 388.5 379.36 390.19Z"
fill-rule="evenodd" fill="black"/>
<path d="M379.36 390.19L380.06 389.9 379.36 388.21 379.36 390.19Z"
fill-rule="evenodd" fill="black"/>
<path d="M380.06 389.9L380.06 388.5 379.36 388.21 380.06 389.9Z"
fill-rule="evenodd" fill="black"/>
<path d="M380.06 389.9L380.35 389.2 380.06 388.5 380.06 389.9Z"
fill-rule="evenodd" fill="black"/>
<path d="M359.55 315.63L359.55 204.24"
fill="none" stroke="black" stroke-width="0.5"/>
<path d="M325.36 204.24L335.26 204.24"
fill="none" stroke="black" stroke-width="0.5"/>
<path d="M335.26 204.24L335.26 178.49"
fill="none" stroke="black" stroke-width="0.5"/>
<path d="M335.26 178.49L325.36 178.49"
fill="none" stroke="black" stroke-width="0.5"/>
<path d="M325.36 178.49L325.36 204.24"
fill="none" stroke="black" stroke-width="0.5"/>
<path d="M330.34 178.49L330.34 172.55"
fill="none" stroke="black" stroke-width="0.5"/>
<path d="M325.36 172.55L335.26 172.55"
fill="none" stroke="black" stroke-width="0.5"/>
<path d="M335.26 172.55L330.34 166.45"
fill="none" stroke="black" stroke-width="0.5"/>
<path d="M330.34 166.45L325.36 172.55"
fill="none" stroke="black" stroke-width="0.5"/>
<path d="M330.34 172.55L330.34 160.66"
fill="none" stroke="black" stroke-width="0.5"/>
<path d="M325.36 166.61L335.26 166.61"
fill="none" stroke="black" stroke-width="0.5"/>
<path d="M325.36 160.66L335.26 160.66"
fill="none" stroke="blue" stroke-width="0.5"/>
<path d="M323.58 169.5L319.38 165.3"
fill="none" stroke="blue" stroke-width="0.5"/>
<path d="M319.38 165.3L322.44 167.81"
fill="none" stroke="blue" stroke-width="0.5"/>
<path d="M319.38 165.3L321.87 168.38"
fill="none" stroke="blue" stroke-width="0.5"/>
<path d="M322.44 167.81L321.87 168.38"
fill="none" stroke="blue" stroke-width="0.5"/>
<path d="M322.44 170.54L318.24 166.33"
fill="none" stroke="blue" stroke-width="0.5"/>
<path d="M318.24 166.33L321.3 168.85"
fill="none" stroke="blue" stroke-width="0.5"/>
<path d="M318.24 166.33L320.73 169.41"
fill="none" stroke="blue" stroke-width="0.5"/>
<path d="M321.3 168.85L320.73 169.41"
fill="none" stroke="blue" stroke-width="0.5"/>
<path d="M354.57 204.24L364.48 204.24"
fill="none" stroke="black" stroke-width="0.5"/>
<path d="M364.48 204.24L364.48 178.49"
fill="none" stroke="black" stroke-width="0.5"/>
<path d="M364.48 178.49L354.57 178.49"
fill="none" stroke="black" stroke-width="0.5"/>
<path d="M354.57 178.49L354.57 204.24"
fill="none" stroke="black" stroke-width="0.5"/>
<path d="M359.55 178.49L359.55 172.55"
fill="none" stroke="black" stroke-width="0.5"/>
<path d="M354.57 172.55L364.48 172.55"
fill="none" stroke="black" stroke-width="0.5"/>
<path d="M364.48 172.55L359.55 166.45"
fill="none" stroke="black" stroke-width="0.5"/>
<path d="M359.55 166.45L354.57 172.55"
fill="none" stroke="black" stroke-width="0.5"/>
<path d="M359.55 172.55L359.55 160.66"
fill="none" stroke="black" stroke-width="0.5"/>
<path d="M354.57 166.61L364.48 166.61"
fill="none" stroke="black" stroke-width="0.5"/>
<path d="M354.57 160.66L364.48 160.66"
fill="none" stroke="blue" stroke-width="0.5"/>
<path d="M352.79 169.5L348.59 165.3"
fill="none" stroke="blue" stroke-width="0.5"/>
<path d="M348.59 165.3L351.65 167.81"
fill="none" stroke="blue" stroke-width="0.5"/>
<path d="M348.59 165.3L351.08 168.38"
fill="none" stroke="blue" stroke-width="0.5"/>
<path d="M351.65 167.81L351.08 168.38"
fill="none" stroke="blue" stroke-width="0.5"/>
<path d="M351.65 170.54L347.45 166.33"
fill="none" stroke="blue" stroke-width="0.5"/>
<path d="M347.45 166.33L350.51 168.85"
fill="none" stroke="blue" stroke-width="0.5"/>
<path d="M347.45 166.33L349.94 169.41"
fill="none" stroke="blue" stroke-width="0.5"/>
<path d="M350.51 168.85L349.94 169.41"
fill="none" stroke="blue" stroke-width="0.5"/>
<path d="M396.38 422.78L396.38 423.63"
fill="none" stroke="black" stroke-width="0.5"/>
<path d="M448.68 209.39L448.68 204.24"
fill="none" stroke="black" stroke-width="0.5"/>
<path d="M443.7 204.24L453.6 204.24"
fill="none" stroke="black" stroke-width="0.5"/>
<path d="M453.6 204.24L453.6 178.49"
fill="none" stroke="black" stroke-width="0.5"/>
<path d="M453.6 178.49L443.7 178.49"
fill="none" stroke="black" stroke-width="0.5"/>
<path d="M443.7 178.49L443.7 204.24"
fill="none" stroke="black" stroke-width="0.5"/>
<path d="M448.68 178.49L448.68 172.55"
fill="none" stroke="black" stroke-width="0.5"/>
<path d="M443.7 172.55L453.6 172.55"
fill="none" stroke="black" stroke-width="0.5"/>
<path d="M453.6 172.55L448.68 166.45"
fill="none" stroke="black" stroke-width="0.5"/>
<path d="M448.68 166.45L443.7 172.55"
fill="none" stroke="black" stroke-width="0.5"/>
<path d="M448.68 172.55L448.68 160.66"
fill="none" stroke="black" stroke-width="0.5"/>
<path d="M443.7 166.61L453.6 166.61"
fill="none" stroke="black" stroke-width="0.5"/>
<path d="M443.7 160.66L453.6 160.66"
fill="none" stroke="blue" stroke-width="0.5"/>
<path d="M441.92 169.5L437.71 165.3"
fill="none" stroke="blue" stroke-width="0.5"/>
<path d="M437.71 165.3L440.78 167.81"
fill="none" stroke="blue" stroke-width="0.5"/>
<path d="M437.71 165.3L440.21 168.38"
fill="none" stroke="blue" stroke-width="0.5"/>
<path d="M440.78 167.81L440.21 168.38"
fill="none" stroke="blue" stroke-width="0.5"/>
<path d="M440.78 170.54L436.58 166.33"
fill="none" stroke="blue" stroke-width="0.5"/>
<path d="M436.58 166.33L439.64 168.85"
fill="none" stroke="blue" stroke-width="0.5"/>
<path d="M436.58 166.33L439.07 169.41"
fill="none" stroke="blue" stroke-width="0.5"/>
<path d="M439.64 168.85L439.07 169.41"
fill="none" stroke="blue" stroke-width="0.5"/>
<path d="M414.49 204.24L424.39 204.24"
fill="none" stroke="black" stroke-width="0.5"/>
<path d="M424.39 204.24L424.39 178.49"
fill="none" stroke="black" stroke-width="0.5"/>
<path d="M424.39 178.49L414.49 178.49"
fill="none" stroke="black" stroke-width="0.5"/>
<path d="M414.49 178.49L414.49 204.24"
fill="none" stroke="black" stroke-width="0.5"/>
<path d="M419.46 178.49L419.46 172.55"
fill="none" stroke="black" stroke-width="0.5"/>
<path d="M414.49 172.55L424.39 172.55"
fill="none" stroke="black" stroke-width="0.5"/>
<path d="M424.39 172.55L419.46 166.45"
fill="none" stroke="black" stroke-width="0.5"/>
<path d="M419.46 166.45L414.49 172.55"
fill="none" stroke="black" stroke-width="0.5"/>
<path d="M419.46 172.55L419.46 160.66"
fill="none" stroke="black" stroke-width="0.5"/>
<path d="M414.49 166.61L424.39 166.61"
fill="none" stroke="black" stroke-width="0.5"/>
<path d="M414.49 160.66L424.39 160.66"
fill="none" stroke="blue" stroke-width="0.5"/>
<path d="M412.7 169.5L408.5 165.3"
fill="none" stroke="blue" stroke-width="0.5"/>
<path d="M408.5 165.3L411.56 167.81"
fill="none" stroke="blue" stroke-width="0.5"/>
<path d="M408.5 165.3L410.99 168.38"
fill="none" stroke="blue" stroke-width="0.5"/>
<path d="M411.56 167.81L410.99 168.38"
fill="none" stroke="blue" stroke-width="0.5"/>
<path d="M411.56 170.54L407.36 166.33"
fill="none" stroke="blue" stroke-width="0.5"/>
<path d="M407.36 166.33L410.42 168.85"
fill="none" stroke="blue" stroke-width="0.5"/>
<path d="M407.36 166.33L409.85 169.41"
fill="none" stroke="blue" stroke-width="0.5"/>
<path d="M410.42 168.85L409.85 169.41"
fill="none" stroke="blue" stroke-width="0.5"/>
<path d="M379.36 361.47L379.36 389.2"
fill="none" stroke="black" stroke-width="0.5"/>
<path d="M379.36 389.2L480.37 389.2"
fill="none" stroke="black" stroke-width="0.5"/>
<path d="M489.11 389.2L499.01 389.2"
fill="none" stroke="black" stroke-width="0.5"/>
<path d="M489.11 389.2L480.37 385.25"
fill="none" stroke="black" stroke-width="0.5"/>
<path d="M484.74 387.23L484.74 383.49"
fill="none" stroke="black" stroke-width="0.5"/>
<path d="M486.22 387.9L486.22 383.49"
fill="none" stroke="black" stroke-width="0.5"/>
<path d="M483.27 383.49L488.26 383.49"
fill="none" stroke="black" stroke-width="0.5"/>
<path d="M488.26 383.49L488.26 384.33"
fill="none" stroke="black" stroke-width="0.5"/>
<path d="M483.27 383.49L483.27 384.33"
fill="none" stroke="black" stroke-width="0.5"/>
<path d="M499.01 384.33L499.01 394.24"
fill="none" stroke="blue" stroke-width="0.5"/>
<path d="M367.97 413.16L475.41 413.16"
fill="none" stroke="black" stroke-width="0.5"/>
<path d="M484.16 413.16L494.06 413.16"
fill="none" stroke="black" stroke-width="0.5"/>
<path d="M484.16 413.16L475.41 409.21"
fill="none" stroke="black" stroke-width="0.5"/>
<path d="M479.79 411.19L479.79 407.45"
fill="none" stroke="black" stroke-width="0.5"/>
<path d="M481.27 411.86L481.27 407.45"
fill="none" stroke="black" stroke-width="0.5"/>
<path d="M478.32 407.45L483.3 407.45"
fill="none" stroke="black" stroke-width="0.5"/>
<path d="M483.3 407.45L483.3 408.29"
fill="none" stroke="black" stroke-width="0.5"/>
<path d="M478.32 407.45L478.32 408.29"
fill="none" stroke="black" stroke-width="0.5"/>
<path d="M494.06 408.29L494.06 418.2"
fill="none" stroke="blue" stroke-width="0.5"/>
<path d="M367.97 241.1L367.97 413.16"
fill="none" stroke="black" stroke-width="0.5"/>
<path d="M325.23 243.67L325.41 242.58M325.41 242.58L325.94 241.61M325.94 241.61L326.75 240.87M326.75 240.87L327.75 240.43M327.75 240.43L328.85 240.33M328.85 240.33L329.92 240.6M329.92 240.6L330.84 241.21M330.84 241.21L331.51 242.07M331.51 242.07L331.87 243.12M331.87 243.12L331.87 244.22M331.87 244.22L331.51 245.26M331.51 245.26L330.84 246.13M330.84 246.13L329.92 246.73M329.92 246.73L328.85 247M328.85 247L327.75 246.91M327.75 246.91L326.75 246.46M326.75 246.46L325.94 245.72M325.94 245.72L325.41 244.75M325.41 244.75L325.23 243.67"
fill="none" stroke="black" stroke-width="0.5"/>
<path d="M328.4 247.01L328.75 247.01 328.75 293.35 328.4 292.99 328.4 247.01Z"
fill-rule="evenodd" fill="black"/>
<path d="M328.4 292.99L328.75 293.35 280.86 293.35 281.22 292.99 328.4 292.99Z"
fill-rule="evenodd" fill="black"/>
<path d="M281.22 292.99L280.86 293.35 280.86 235.55 281.22 235.91 281.22 292.99Z"
fill-rule="evenodd" fill="black"/>
<path d="M281.22 235.91L280.86 235.55 328.75 235.55 328.4 235.91 281.22 235.91Z"
fill-rule="evenodd" fill="black"/>
<path d="M328.4 235.91L328.75 235.55 328.75 240.32 328.4 240.32 328.4 235.91Z"
fill-rule="evenodd" fill="black"/>
<path d="M325.23 322.28L325.41 321.2M325.41 321.2L325.94 320.23M325.94 320.23L326.75 319.48M326.75 319.48L327.75 319.04M327.75 319.04L328.85 318.95M328.85 318.95L329.92 319.22M329.92 319.22L330.84 319.82M330.84 319.82L331.51 320.69M331.51 320.69L331.87 321.73M331.87 321.73L331.87 322.83M331.87 322.83L331.51 323.87M331.51 323.87L330.84 324.74M330.84 324.74L329.92 325.34M329.92 325.34L328.85 325.61M328.85 325.61L327.75 325.52M327.75 325.52L326.75 325.08M326.75 325.08L325.94 324.34M325.94 324.34L325.41 323.37M325.41 323.37L325.23 322.28"
fill="none" stroke="black" stroke-width="0.5"/>
<path d="M328.4 325.63L328.75 325.63 328.75 371.96 328.4 371.61 328.4 325.63Z"
fill-rule="evenodd" fill="black"/>
<path d="M328.4 371.61L328.75 371.96 280.86 371.96 281.22 371.61 328.4 371.61Z"
fill-rule="evenodd" fill="black"/>
<path d="M281.22 371.61L280.86 371.96 280.86 314.17 281.22 314.53 281.22 371.61Z"
fill-rule="evenodd" fill="black"/>
<path d="M281.22 314.53L280.86 314.17 328.75 314.17 328.4 314.53 281.22 314.53Z"
fill-rule="evenodd" fill="black"/>
<path d="M328.4 314.53L328.75 314.17 328.75 318.94 328.4 318.94 328.4 314.53Z"
fill-rule="evenodd" fill="black"/>
<path d="M331.92 243.67L341.82 243.67"
fill="none" stroke="black" stroke-width="0.5"/>
<path d="M341.82 243.67L341.82 221.3"
fill="none" stroke="black" stroke-width="0.5"/>
<path d="M341.82 221.3L331.92 221.3"
fill="none" stroke="black" stroke-width="0.5"/>
<path d="M330.34 204.24L330.34 221.3"
fill="none" stroke="black" stroke-width="0.5"/>
<path d="M330.34 221.3L331.92 221.3"
fill="none" stroke="black" stroke-width="0.5"/>
<path d="M331.92 322.28L359.55 322.28"
fill="none" stroke="black" stroke-width="0.5"/>
<path d="M359.55 322.28L359.55 315.63"
fill="none" stroke="black" stroke-width="0.5"/>
<path d="M281.04 322.28L275.1 322.28"
fill="none" stroke="black" stroke-width="0.5"/>
<path d="M275.1 322.28L275.1 389.2"
fill="none" stroke="black" stroke-width="0.5"/>
<path d="M275.1 389.2L379.36 389.2"
fill="none" stroke="black" stroke-width="0.5"/>
<path d="M367.97 413.16L264.98 413.16"
fill="none" stroke="black" stroke-width="0.5"/>
<path d="M264.98 413.16L264.98 243.67"
fill="none" stroke="black" stroke-width="0.5"/>
<path d="M264.98 243.67L281.04 243.67"
fill="none" stroke="black" stroke-width="0.5"/>
<path d="M378.37 389.2L378.55 388.62M378.55 388.62L379.05 388.26M379.05 388.26L379.66 388.26M379.66 388.26L380.16 388.62M380.16 388.62L380.35 389.2M380.35 389.2L380.16 389.78M380.16 389.78L379.66 390.14M379.66 390.14L379.05 390.14M379.05 390.14L378.55 389.78M378.55 389.78L378.37 389.2"
fill="none" stroke="blue" stroke-width="0.5"/>
<path d="M366.98 413.16L367.17 412.58M367.17 412.58L367.66 412.22M367.66 412.22L368.27 412.22M368.27 412.22L368.77 412.58M368.77 412.58L368.96 413.16M368.96 413.16L368.77 413.74M368.77 413.74L368.27 414.1M368.27 414.1L367.66 414.1M367.66 414.1L367.17 413.74M367.17 413.74L366.98 413.16"
fill="none" stroke="blue" stroke-width="0.5"/>
<path d="M440.58 277.26L440.76 276.17M440.76 276.17L441.28 275.21M441.28 275.21L442.09 274.46M442.09 274.46L443.1 274.02M443.1 274.02L444.19 273.93M444.19 273.93L445.26 274.2M445.26 274.2L446.18 274.8M446.18 274.8L446.86 275.67M446.86 275.67L447.22 276.71M447.22 276.71L447.22 277.81M447.22 277.81L446.86 278.85M446.86 278.85L446.18 279.72M446.18 279.72L445.26 280.32M445.26 280.32L444.19 280.59M444.19 280.59L443.1 280.5M443.1 280.5L442.09 280.06M442.09 280.06L441.28 279.31M441.28 279.31L440.76 278.34M440.76 278.34L440.58 277.26"
fill="none" stroke="black" stroke-width="0.5"/>
<path d="M443.74 240.99L444.1 240.99 444.1 273.92 443.74 273.92 443.74 240.99Z"
fill-rule="evenodd" fill="black"/>
<path d="M380.32 237.65L393.04 237.65"
fill="none" stroke="black" stroke-width="0.5"/>
<path d="M444.1 273.92L443.74 273.92 443.74 229.89 444.1 229.53 444.1 273.92Z"
fill-rule="evenodd" fill="black"/>
<path d="M444.1 229.53L443.74 229.89 396.56 229.89 396.21 229.53 444.1 229.53Z"
fill-rule="evenodd" fill="black"/>
<path d="M396.21 229.53L396.56 229.89 396.56 234.3 396.21 234.3 396.21 229.53Z"
fill-rule="evenodd" fill="black"/>
<path d="M443.74 280.6L444.1 280.6 444.1 287.33 443.74 286.97 443.74 280.6Z"
fill-rule="evenodd" fill="black"/>
<path d="M443.74 286.97L444.1 287.33 396.21 287.33 396.56 286.97 443.74 286.97Z"
fill-rule="evenodd" fill="black"/>
<path d="M396.56 286.97L396.21 287.33 396.21 280.6 396.56 280.6 396.56 286.97Z"
fill-rule="evenodd" fill="black"/>
<path d="M409.85 229.71L409.85 287.15"
fill="none" stroke="black" stroke-width="0.5"/>
<path d="M393.04 277.26L393.22 276.17M393.22 276.17L393.75 275.21M393.75 275.21L394.56 274.46M394.56 274.46L395.56 274.02M395.56 274.02L396.66 273.93M396.66 273.93L397.73 274.2M397.73 274.2L398.65 274.8M398.65 274.8L399.32 275.67M399.32 275.67L399.68 276.71M399.68 276.71L399.68 277.81M399.68 277.81L399.32 278.85M399.32 278.85L398.65 279.72M398.65 279.72L397.73 280.32M397.73 280.32L396.66 280.59M396.66 280.59L395.56 280.5M395.56 280.5L394.56 280.06M394.56 280.06L393.75 279.31M393.75 279.31L393.22 278.34M393.22 278.34L393.04 277.26"
fill="none" stroke="black" stroke-width="0.5"/>
<path d="M393.04 237.65L393.22 236.56M393.22 236.56L393.75 235.59M393.75 235.59L394.56 234.85M394.56 234.85L395.56 234.41M395.56 234.41L396.66 234.32M396.66 234.32L397.73 234.59M397.73 234.59L398.65 235.19M398.65 235.19L399.32 236.06M399.32 236.06L399.68 237.1M399.68 237.1L399.68 238.2M399.68 238.2L399.32 239.24M399.32 239.24L398.65 240.11M398.65 240.11L397.73 240.71M397.73 240.71L396.66 240.98M396.66 240.98L395.56 240.89M395.56 240.89L394.56 240.45M394.56 240.45L393.75 239.7M393.75 239.7L393.22 238.73M393.22 238.73L393.04 237.65"
fill="none" stroke="black" stroke-width="0.5"/>
<path d="M396.56 234.3L396.21 234.3 396.21 229.53 396.56 229.89 396.56 234.3Z"
fill-rule="evenodd" fill="black"/>
<path d="M396.56 229.89L396.21 229.53 444.1 229.53 443.74 229.89 396.56 229.89Z"
fill-rule="evenodd" fill="black"/>
<path d="M443.74 229.89L444.1 229.53 444.1 234.3 443.74 234.3 443.74 229.89Z"
fill-rule="evenodd" fill="black"/>
<path d="M396.21 240.99L396.56 240.99 396.56 273.92 396.21 273.92 396.21 240.99Z"
fill-rule="evenodd" fill="black"/>
<path d="M396.21 280.6L396.56 280.6 396.56 286.97 396.21 287.33 396.21 280.6Z"
fill-rule="evenodd" fill="black"/>
<path d="M396.21 287.33L396.56 286.97 443.74 286.97 444.1 287.33 396.21 287.33Z"
fill-rule="evenodd" fill="black"/>
<path d="M444.1 287.33L443.74 286.97 443.74 280.6 444.1 280.6 444.1 287.33Z"
fill-rule="evenodd" fill="black"/>
<path d="M396.56 273.92L396.21 273.92 396.21 240.99 396.56 240.99 396.56 273.92Z"
fill-rule="evenodd" fill="black"/>
<path d="M379.36 361.47L379.36 277.26"
fill="none" stroke="black" stroke-width="0.5"/>
<path d="M379.36 277.26L393.04 277.26"
fill="none" stroke="black" stroke-width="0.5"/>
<path d="M367.97 241.1L367.97 237.65"
fill="none" stroke="black" stroke-width="0.5"/>
<path d="M367.97 237.65L380.32 237.65"
fill="none" stroke="black" stroke-width="0.5"/>
<path d="M447.26 277.26L453.6 277.26"
fill="none" stroke="black" stroke-width="0.5"/>
<path d="M453.6 277.26L453.6 225.76"
fill="none" stroke="black" stroke-width="0.5"/>
<path d="M453.6 225.76L420.15 225.76"
fill="none" stroke="black" stroke-width="0.5"/>
<path d="M420.15 225.76L420.15 204.24"
fill="none" stroke="black" stroke-width="0.5"/>
<path d="M448.68 209.39L448.68 237.12"
fill="none" stroke="black" stroke-width="0.5"/>
<path d="M448.68 237.12L443.92 237.12"
fill="none" stroke="black" stroke-width="0.5"/>
<path d="M325.36 152.84L325.36 145.9M329.82 145.9L329.82 152.84M325.36 149.21L329.82 149.21M332.37 145.9L332.37 152.84M332.37 152.84L336.19 152.84M337.78 147.22L338.42 146.89M338.42 146.89L339.38 145.9M339.38 145.9L339.38 152.84"
fill="none" stroke="black" stroke-width="0.5"/>
<path d="M354.57 152.84L354.57 145.9M359.03 145.9L359.03 152.84M354.57 149.21L359.03 149.21M361.58 145.9L361.58 152.84M361.58 152.84L365.4 152.84M367.32 147.55L367.32 147.22M367.32 147.22L367.63 146.56M367.63 146.56L367.95 146.23M367.95 146.23L368.59 145.9M368.59 145.9L369.86 145.9M369.86 145.9L370.5 146.23M370.5 146.23L370.82 146.56M370.82 146.56L371.14 147.22M371.14 147.22L371.14 147.88M371.14 147.88L370.82 148.54M370.82 148.54L370.18 149.54M370.18 149.54L367 152.84M367 152.84L371.46 152.84"
fill="none" stroke="black" stroke-width="0.5"/>
<path d="M328.74 546.02L328.11 545.36M328.11 545.36L327.15 545.03M327.15 545.03L325.88 545.03M325.88 545.03L324.92 545.36M324.92 545.36L324.28 546.02M324.28 546.02L324.28 546.68M324.28 546.68L324.6 547.34M324.6 547.34L324.92 547.67M324.92 547.67L325.56 548M325.56 548L327.47 548.66M327.47 548.66L328.11 548.99M328.11 548.99L328.43 549.32M328.43 549.32L328.74 549.98M328.74 549.98L328.74 550.97M328.74 550.97L328.11 551.63M328.11 551.63L327.15 551.96M327.15 551.96L325.88 551.96M325.88 551.96L324.92 551.63M324.92 551.63L324.28 550.97M330.66 551.96L330.66 545.03M330.66 545.03L333.52 545.03M333.52 545.03L334.48 545.36M334.48 545.36L334.8 545.69M334.8 545.69L335.12 546.35M335.12 546.35L335.12 547.01M335.12 547.01L334.8 547.67M334.8 547.67L334.48 548M334.48 548L333.52 548.33M330.66 548.33L333.52 548.33M333.52 548.33L334.48 548.66M334.48 548.66L334.8 548.99M334.8 548.99L335.12 549.65M335.12 549.65L335.12 550.64M335.12 550.64L334.8 551.3M334.8 551.3L334.48 551.63M334.48 551.63L333.52 551.96M333.52 551.96L330.66 551.96M337.98 545.03L341.49 545.03M341.49 545.03L339.57 547.67M339.57 547.67L340.53 547.67M340.53 547.67L341.17 548M341.17 548L341.49 548.33M341.49 548.33L341.8 549.32M341.8 549.32L341.8 549.98M341.8 549.98L341.49 550.97M341.49 550.97L340.85 551.63M340.85 551.63L339.89 551.96M339.89 551.96L338.94 551.96M338.94 551.96L337.98 551.63M337.98 551.63L337.66 551.3M337.66 551.3L337.34 550.64"
fill="none" stroke="black" stroke-width="0.5"/>
<path d="M302.28 543.63L301.64 542.97M301.64 542.97L300.69 542.64M300.69 542.64L299.41 542.64M299.41 542.64L298.46 542.97M298.46 542.97L297.82 543.63M297.82 543.63L297.82 544.29M297.82 544.29L298.14 544.95M298.14 544.95L298.46 545.28M298.46 545.28L299.09 545.61M299.09 545.61L301.01 546.27M301.01 546.27L301.64 546.6M301.64 546.6L301.96 546.93M301.96 546.93L302.28 547.59M302.28 547.59L302.28 548.59M302.28 548.59L301.64 549.25M301.64 549.25L300.69 549.58M300.69 549.58L299.41 549.58M299.41 549.58L298.46 549.25M298.46 549.25L297.82 548.59M304.19 549.58L304.19 542.64M304.19 542.64L307.06 542.64M307.06 542.64L308.01 542.97M308.01 542.97L308.33 543.3M308.33 543.3L308.65 543.96M308.65 543.96L308.65 544.62M308.65 544.62L308.33 545.28M308.33 545.28L308.01 545.61M308.01 545.61L307.06 545.94M304.19 545.94L307.06 545.94M307.06 545.94L308.01 546.27M308.01 546.27L308.33 546.6M308.33 546.6L308.65 547.26M308.65 547.26L308.65 548.26M308.65 548.26L308.33 548.92M308.33 548.92L308.01 549.25M308.01 549.25L307.06 549.58M307.06 549.58L304.19 549.58M311.2 544.29L311.2 543.96M311.2 543.96L311.52 543.3M311.52 543.3L311.84 542.97M311.84 542.97L312.47 542.64M312.47 542.64L313.75 542.64M313.75 542.64L314.38 542.97M314.38 542.97L314.7 543.3M314.7 543.3L315.02 543.96M315.02 543.96L315.02 544.62M315.02 544.62L314.7 545.28M314.7 545.28L314.07 546.27M314.07 546.27L310.88 549.58M310.88 549.58L315.34 549.58"
fill="none" stroke="black" stroke-width="0.5"/>
<path d="M443.7 152.84L443.7 145.9M448.16 145.9L448.16 152.84M443.7 149.21L448.16 149.21M450.71 145.9L450.71 152.84M450.71 152.84L454.53 152.84M459.31 145.9L456.12 150.53M456.12 150.53L460.9 150.53M459.31 145.9L459.31 152.84"
fill="none" stroke="black" stroke-width="0.5"/>
<path d="M414.49 152.84L414.49 145.9M418.95 145.9L418.95 152.84M414.49 149.21L418.95 149.21M421.49 145.9L421.49 152.84M421.49 152.84L425.32 152.84M427.55 145.9L431.05 145.9M431.05 145.9L429.14 148.54M429.14 148.54L430.1 148.54M430.1 148.54L430.73 148.88M430.73 148.88L431.05 149.21M431.05 149.21L431.37 150.2M431.37 150.2L431.37 150.86M431.37 150.86L431.05 151.85M431.05 151.85L430.41 152.51M430.41 152.51L429.46 152.84M429.46 152.84L428.5 152.84M428.5 152.84L427.55 152.51M427.55 152.51L427.23 152.18M427.23 152.18L426.91 151.52"
fill="none" stroke="black" stroke-width="0.5"/>
<path d="M296.69 287.15L296.69 280.22M296.69 280.22L298.92 280.22M298.92 280.22L299.88 280.55M299.88 280.55L300.52 281.21M300.52 281.21L300.83 281.87M300.83 281.87L301.15 282.86M301.15 282.86L301.15 284.51M301.15 284.51L300.83 285.5M300.83 285.5L300.52 286.16M300.52 286.16L299.88 286.82M299.88 286.82L298.92 287.15M298.92 287.15L296.69 287.15M303.7 281.87L303.7 281.54M303.7 281.54L304.02 280.88M304.02 280.88L304.34 280.55M304.34 280.55L304.98 280.22M304.98 280.22L306.25 280.22M306.25 280.22L306.89 280.55M306.89 280.55L307.21 280.88M307.21 280.88L307.52 281.54M307.52 281.54L307.52 282.2M307.52 282.2L307.21 282.86M307.21 282.86L306.57 283.85M306.57 283.85L303.38 287.15M303.38 287.15L307.84 287.15M310.07 286.49L309.75 286.82M309.75 286.82L310.07 287.15M310.07 287.15L310.39 286.82M312.94 281.54L313.58 281.21M313.58 281.21L314.53 280.22M314.53 280.22L314.53 287.15"
fill="none" stroke="black" stroke-width="0.5"/>
<path d="M304.81 238.05L305.44 237.72M305.44 237.72L306.4 236.73M306.4 236.73L306.4 243.67"
fill="none" stroke="black" stroke-width="0.5"/>
<path d="M296.69 365.77L296.69 358.83M296.69 358.83L298.92 358.83M298.92 358.83L299.88 359.16M299.88 359.16L300.52 359.82M300.52 359.82L300.83 360.48M300.83 360.48L301.15 361.47M301.15 361.47L301.15 363.12M301.15 363.12L300.83 364.12M300.83 364.12L300.52 364.78M300.52 364.78L299.88 365.44M299.88 365.44L298.92 365.77M298.92 365.77L296.69 365.77M303.7 360.48L303.7 360.15M303.7 360.15L304.02 359.49M304.02 359.49L304.34 359.16M304.34 359.16L304.98 358.83M304.98 358.83L306.25 358.83M306.25 358.83L306.89 359.16M306.89 359.16L307.21 359.49M307.21 359.49L307.52 360.15M307.52 360.15L307.52 360.81M307.52 360.81L307.21 361.47M307.21 361.47L306.57 362.46M306.57 362.46L303.38 365.77M303.38 365.77L307.84 365.77M310.07 365.11L309.75 365.44M309.75 365.44L310.07 365.77M310.07 365.77L310.39 365.44M313.58 358.83L317.08 358.83M317.08 358.83L315.17 361.47M315.17 361.47L316.13 361.47M316.13 361.47L316.76 361.8M316.76 361.8L317.08 362.13M317.08 362.13L317.4 363.12M317.4 363.12L317.4 363.78M317.4 363.78L317.08 364.78M317.08 364.78L316.44 365.44M316.44 365.44L315.49 365.77M315.49 365.77L314.53 365.77M314.53 365.77L313.58 365.44M313.58 365.44L313.26 365.11M313.26 365.11L312.94 364.45"
fill="none" stroke="black" stroke-width="0.5"/>
<path d="M304.81 316.67L305.44 316.34M305.44 316.34L306.4 315.35M306.4 315.35L306.4 322.28"
fill="none" stroke="black" stroke-width="0.5"/>
<path d="M511.13 383.26L510.5 382.6M510.5 382.6L509.54 382.27M509.54 382.27L508.27 382.27M508.27 382.27L507.31 382.6M507.31 382.6L506.68 383.26M506.68 383.26L506.68 383.92M506.68 383.92L506.99 384.58M506.99 384.58L507.31 384.91M507.31 384.91L507.95 385.24M507.95 385.24L509.86 385.9M509.86 385.9L510.5 386.23M510.5 386.23L510.82 386.56M510.82 386.56L511.13 387.22M511.13 387.22L511.13 388.21M511.13 388.21L510.5 388.87M510.5 388.87L509.54 389.2M509.54 389.2L508.27 389.2M508.27 389.2L507.31 388.87M507.31 388.87L506.68 388.21M513.05 389.2L513.05 382.27M513.05 382.27L515.91 382.27M515.91 382.27L516.87 382.6M516.87 382.6L517.19 382.93M517.19 382.93L517.51 383.59M517.51 383.59L517.51 384.25M517.51 384.25L517.19 384.91M517.19 384.91L516.87 385.24M516.87 385.24L515.91 385.57M513.05 385.57L515.91 385.57M515.91 385.57L516.87 385.9M516.87 385.9L517.19 386.23M517.19 386.23L517.51 386.89M517.51 386.89L517.51 387.88M517.51 387.88L517.19 388.54M517.19 388.54L516.87 388.87M516.87 388.87L515.91 389.2M515.91 389.2L513.05 389.2M520.37 382.27L523.88 382.27M523.88 382.27L521.97 384.91M521.97 384.91L522.92 384.91M522.92 384.91L523.56 385.24M523.56 385.24L523.88 385.57M523.88 385.57L524.2 386.56M524.2 386.56L524.2 387.22M524.2 387.22L523.88 388.21M523.88 388.21L523.24 388.87M523.24 388.87L522.28 389.2M522.28 389.2L521.33 389.2M521.33 389.2L520.37 388.87M520.37 388.87L520.05 388.54M520.05 388.54L519.74 387.88"
fill="none" stroke="black" stroke-width="0.5"/>
<path d="M503.47 407.3L502.84 406.64M502.84 406.64L501.88 406.31M501.88 406.31L500.61 406.31M500.61 406.31L499.65 406.64M499.65 406.64L499.01 407.3M499.01 407.3L499.01 407.96M499.01 407.96L499.33 408.62M499.33 408.62L499.65 408.95M499.65 408.95L500.29 409.28M500.29 409.28L502.2 409.95M502.2 409.95L502.84 410.28M502.84 410.28L503.16 410.61M503.16 410.61L503.47 411.27M503.47 411.27L503.47 412.26M503.47 412.26L502.84 412.92M502.84 412.92L501.88 413.25M501.88 413.25L500.61 413.25M500.61 413.25L499.65 412.92M499.65 412.92L499.01 412.26M505.39 413.25L505.39 406.31M505.39 406.31L508.25 406.31M508.25 406.31L509.21 406.64M509.21 406.64L509.53 406.97M509.53 406.97L509.84 407.63M509.84 407.63L509.84 408.29M509.84 408.29L509.53 408.95M509.53 408.95L509.21 409.28M509.21 409.28L508.25 409.61M505.39 409.61L508.25 409.61M508.25 409.61L509.21 409.95M509.21 409.95L509.53 410.28M509.53 410.28L509.84 410.94M509.84 410.94L509.84 411.93M509.84 411.93L509.53 412.59M509.53 412.59L509.21 412.92M509.21 412.92L508.25 413.25M508.25 413.25L505.39 413.25M512.39 407.96L512.39 407.63M512.39 407.63L512.71 406.97M512.71 406.97L513.03 406.64M513.03 406.64L513.67 406.31M513.67 406.31L514.94 406.31M514.94 406.31L515.58 406.64M515.58 406.64L515.9 406.97M515.9 406.97L516.22 407.63M516.22 407.63L516.22 408.29M516.22 408.29L515.9 408.95M515.9 408.95L515.26 409.95M515.26 409.95L512.07 413.25M512.07 413.25L516.53 413.25"
fill="none" stroke="black" stroke-width="0.5"/>
<path d="M423.53 281.13L423.53 274.2M423.53 274.2L425.76 274.2M425.76 274.2L426.72 274.53M426.72 274.53L427.36 275.19M427.36 275.19L427.67 275.85M427.67 275.85L427.99 276.84M427.99 276.84L427.99 278.49M427.99 278.49L427.67 279.48M427.67 279.48L427.36 280.14M427.36 280.14L426.72 280.8M426.72 280.8L425.76 281.13M425.76 281.13L423.53 281.13M430.86 274.2L434.36 274.2M434.36 274.2L432.45 276.84M432.45 276.84L433.41 276.84M433.41 276.84L434.05 277.17M434.05 277.17L434.36 277.5M434.36 277.5L434.68 278.49M434.68 278.49L434.68 279.15M434.68 279.15L434.36 280.14M434.36 280.14L433.73 280.8M433.73 280.8L432.77 281.13M432.77 281.13L431.82 281.13M431.82 281.13L430.86 280.8M430.86 280.8L430.54 280.47M430.54 280.47L430.22 279.81M436.91 280.47L436.59 280.8M436.59 280.8L436.91 281.13M436.91 281.13L437.23 280.8M439.78 275.52L440.42 275.19M440.42 275.19L441.37 274.2M441.37 274.2L441.37 281.13"
fill="none" stroke="black" stroke-width="0.5"/>
<path d="M426.34 230.71L426.34 237.65M424.11 230.71L428.57 230.71"
fill="none" stroke="black" stroke-width="0.5"/>
<path d="M404.85 235.16L404.21 234.5M404.21 234.5L403.25 234.17M403.25 234.17L401.98 234.17M401.98 234.17L401.02 234.5M401.02 234.5L400.39 235.16M400.39 235.16L400.39 235.82M400.39 235.82L400.71 236.48M400.71 236.48L401.02 236.81M401.02 236.81L401.66 237.14M401.66 237.14L403.57 237.8M403.57 237.8L404.21 238.13M404.21 238.13L404.53 238.46M404.53 238.46L404.85 239.12M404.85 239.12L404.85 240.11M404.85 240.11L404.21 240.77M404.21 240.77L403.25 241.1M403.25 241.1L401.98 241.1M401.98 241.1L401.02 240.77M401.02 240.77L400.39 240.11"
fill="none" stroke="black" stroke-width="0.5"/>
<path d="M401.45 280.6L401.45 273.67M401.45 273.67L404.32 273.67M404.32 273.67L405.27 274M405.27 274L405.59 274.33M405.59 274.33L405.91 274.99M405.91 274.99L405.91 275.65M405.91 275.65L405.59 276.31M405.59 276.31L405.27 276.64M405.27 276.64L404.32 276.97M404.32 276.97L401.45 276.97M403.68 276.97L405.91 280.6"
fill="none" stroke="black" stroke-width="0.5"/>
<path d="M192.04 594.12L192.04 5.88"
fill="none" stroke="black" stroke-width="0.5"/>
<path d="M192.04 5.88L607.96 5.88"
fill="none" stroke="black" stroke-width="0.5"/>
<path d="M607.96 5.88L607.96 594.12"
fill="none" stroke="black" stroke-width="0.5"/>
<path d="M607.96 594.12L192.04 594.12"
fill="none" stroke="black" stroke-width="0.5"/>
</svg>
