<?xml version="1.0" encoding="UTF-8"?>
<svg xmlns="http://www.w3.org/2000/svg" width="800.000" height="600.000" viewBox="0.0 0.0 800.000 600.000" version="1.1">
  <title>Produce by Acme CAD Converter</title>
  <desc>Produce by Acme CAD Converter</desc>
<path d="M460.01 168.38L460.01 167.79 457.52 165.3 460.01 168.38Z"
fill-rule="evenodd" fill="black"/>
<path d="M460.01 167.79L460.01 167.34 457.52 165.3 460.01 167.79Z"
fill-rule="evenodd" fill="black"/>
<path d="M460.01 168.38L460.31 168.08 460.01 167.79 460.01 168.38Z"
fill-rule="evenodd" fill="black"/>
<path d="M460.01 167.79L460.31 168.08 460.01 167.34 460.01 167.79Z"
fill-rule="evenodd" fill="black"/>
<path d="M460.31 168.08L460.31 167.58 460.01 167.34 460.31 168.08Z"
fill-rule="evenodd" fill="black"/>
<path d="M460.31 168.08L460.58 167.81 460.31 167.58 460.31 168.08Z"
fill-rule="evenodd" fill="black"/>
<path d="M458.87 169.41L458.87 168.83 456.38 166.33 458.87 169.41Z"
fill-rule="evenodd" fill="black"/>
<path d="M458.87 168.83L458.87 168.38 456.38 166.33 458.87 168.83Z"
fill-rule="evenodd" fill="black"/>
<path d="M458.87 169.41L459.17 169.12 458.87 168.83 458.87 169.41Z"
fill-rule="evenodd" fill="black"/>
<path d="M458.87 168.83L459.17 169.12 458.87 168.38 458.87 168.83Z"
fill-rule="evenodd" fill="black"/>
<path d="M459.17 169.12L459.17 168.62 458.87 168.38 459.17 169.12Z"
fill-rule="evenodd" fill="black"/>
<path d="M459.17 169.12L459.44 168.85 459.17 168.62 459.17 169.12Z"
fill-rule="evenodd" fill="black"/>
<path d="M488.06 168.38L488.06 167.79 485.57 165.3 488.06 168.38Z"
fill-rule="evenodd" fill="black"/>
<path d="M488.06 167.79L488.06 167.34 485.57 165.3 488.06 167.79Z"
fill-rule="evenodd" fill="black"/>
<path d="M488.06 168.38L488.35 168.08 488.06 167.79 488.06 168.38Z"
fill-rule="evenodd" fill="black"/>
<path d="M488.06 167.79L488.35 168.08 488.06 167.34 488.06 167.79Z"
fill-rule="evenodd" fill="black"/>
<path d="M488.35 168.08L488.35 167.58 488.06 167.34 488.35 168.08Z"
fill-rule="evenodd" fill="black"/>
<path d="M488.35 168.08L488.63 167.81 488.35 167.58 488.35 168.08Z"
fill-rule="evenodd" fill="black"/>
<path d="M486.92 169.41L486.92 168.83 484.43 166.33 486.92 169.41Z"
fill-rule="evenodd" fill="black"/>
<path d="M486.92 168.83L486.92 168.38 484.43 166.33 486.92 168.83Z"
fill-rule="evenodd" fill="black"/>
<path d="M486.92 169.41L487.21 169.12 486.92 168.83 486.92 169.41Z"
fill-rule="evenodd" fill="black"/>
<path d="M486.92 168.83L487.21 169.12 486.92 168.38 486.92 168.83Z"
fill-rule="evenodd" fill="black"/>
<path d="M487.21 169.12L487.21 168.62 486.92 168.38 487.21 169.12Z"
fill-rule="evenodd" fill="black"/>
<path d="M487.21 169.12L487.49 168.85 487.21 168.62 487.21 169.12Z"
fill-rule="evenodd" fill="black"/>
<path d="M370.68 294.47L370.68 289.96 369.48 289.96 370.68 294.47Z"
fill-rule="evenodd" fill="black"/>
<path d="M370.68 294.47L371.92 289.96 370.68 289.96 370.68 294.47Z"
fill-rule="evenodd" fill="black"/>
<path d="M468.48 209.39L468.48 204.24"
fill="none" stroke="black" stroke-width="0.5"/>
<path d="M463.51 204.24L473.41 204.24"
fill="none" stroke="black" stroke-width="0.5"/>
<path d="M473.41 204.24L473.41 178.49"
fill="none" stroke="black" stroke-width="0.5"/>
<path d="M473.41 178.49L463.51 178.49"
fill="none" stroke="black" stroke-width="0.5"/>
<path d="M463.51 178.49L463.51 204.24"
fill="none" stroke="black" stroke-width="0.5"/>
<path d="M468.48 178.49L468.48 172.55"
fill="none" stroke="black" stroke-width="0.5"/>
<path d="M463.51 172.55L473.41 172.55"
fill="none" stroke="black" stroke-width="0.5"/>
<path d="M473.41 172.55L468.48 166.45"
fill="none" stroke="black" stroke-width="0.5"/>
<path d="M468.48 166.45L463.51 172.55"
fill="none" stroke="black" stroke-width="0.5"/>
<path d="M468.48 172.55L468.48 160.66"
fill="none" stroke="black" stroke-width="0.5"/>
<path d="M463.51 166.61L473.41 166.61"
fill="none" stroke="black" stroke-width="0.5"/>
<path d="M463.51 160.66L473.41 160.66"
fill="none" stroke="blue" stroke-width="0.5"/>
<path d="M461.72 169.5L457.52 165.3"
fill="none" stroke="blue" stroke-width="0.5"/>
<path d="M457.52 165.3L460.58 167.81"
fill="none" stroke="blue" stroke-width="0.5"/>
<path d="M457.52 165.3L460.01 168.38"
fill="none" stroke="blue" stroke-width="0.5"/>
<path d="M460.58 167.81L460.01 168.38"
fill="none" stroke="blue" stroke-width="0.5"/>
<path d="M460.58 170.54L456.38 166.33"
fill="none" stroke="blue" stroke-width="0.5"/>
<path d="M456.38 166.33L459.44 168.85"
fill="none" stroke="blue" stroke-width="0.5"/>
<path d="M456.38 166.33L458.87 169.41"
fill="none" stroke="blue" stroke-width="0.5"/>
<path d="M459.44 168.85L458.87 169.41"
fill="none" stroke="blue" stroke-width="0.5"/>
<path d="M335.78 329.78L353.61 329.78"
fill="none" stroke="black" stroke-width="0.5"/>
<path d="M362.35 329.78L372.26 329.78"
fill="none" stroke="black" stroke-width="0.5"/>
<path d="M362.35 329.78L353.61 325.83"
fill="none" stroke="black" stroke-width="0.5"/>
<path d="M357.98 327.81L357.98 324.07"
fill="none" stroke="black" stroke-width="0.5"/>
<path d="M359.47 328.48L359.47 324.07"
fill="none" stroke="black" stroke-width="0.5"/>
<path d="M356.52 324.07L361.5 324.07"
fill="none" stroke="black" stroke-width="0.5"/>
<path d="M361.5 324.07L361.5 324.92"
fill="none" stroke="black" stroke-width="0.5"/>
<path d="M356.52 324.07L356.52 324.92"
fill="none" stroke="black" stroke-width="0.5"/>
<path d="M372.26 324.92L372.26 334.82"
fill="none" stroke="blue" stroke-width="0.5"/>
<path d="M446.52 277.26L446.7 276.17M446.7 276.17L447.22 275.21M447.22 275.21L448.03 274.46M448.03 274.46L449.04 274.02M449.04 274.02L450.14 273.93M450.14 273.93L451.2 274.2M451.2 274.2L452.12 274.8M452.12 274.8L452.8 275.67M452.8 275.67L453.16 276.71M453.16 276.71L453.16 277.81M453.16 277.81L452.8 278.85M452.8 278.85L452.12 279.72M452.12 279.72L451.2 280.32M451.2 280.32L450.14 280.59M450.14 280.59L449.04 280.5M449.04 280.5L448.03 280.06M448.03 280.06L447.22 279.31M447.22 279.31L446.7 278.34M446.7 278.34L446.52 277.26"
fill="none" stroke="black" stroke-width="0.5"/>
<path d="M449.68 240.99L450.04 240.99 450.04 273.92 449.68 273.92 449.68 240.99Z"
fill-rule="evenodd" fill="black"/>
<path d="M450.04 273.92L449.68 273.92 449.68 229.89 450.04 229.53 450.04 273.92Z"
fill-rule="evenodd" fill="black"/>
<path d="M450.04 229.53L449.68 229.89 402.5 229.89 402.15 229.53 450.04 229.53Z"
fill-rule="evenodd" fill="black"/>
<path d="M402.15 229.53L402.5 229.89 402.5 234.3 402.15 234.3 402.15 229.53Z"
fill-rule="evenodd" fill="black"/>
<path d="M449.68 280.6L450.04 280.6 450.04 287.33 449.68 286.97 449.68 280.6Z"
fill-rule="evenodd" fill="black"/>
<path d="M449.68 286.97L450.04 287.33 402.15 287.33 402.5 286.97 449.68 286.97Z"
fill-rule="evenodd" fill="black"/>
<path d="M402.5 286.97L402.15 287.33 402.15 280.6 402.5 280.6 402.5 286.97Z"
fill-rule="evenodd" fill="black"/>
<path d="M415.8 229.71L415.8 287.15"
fill="none" stroke="black" stroke-width="0.5"/>
<path d="M402.5 234.3L402.15 234.3 402.15 229.53 402.5 229.89 402.5 234.3Z"
fill-rule="evenodd" fill="black"/>
<path d="M402.5 229.89L402.15 229.53 450.04 229.53 449.68 229.89 402.5 229.89Z"
fill-rule="evenodd" fill="black"/>
<path d="M449.68 229.89L450.04 229.53 450.04 234.3 449.68 234.3 449.68 229.89Z"
fill-rule="evenodd" fill="black"/>
<path d="M402.15 240.99L402.5 240.99 402.5 273.92 402.15 273.92 402.15 240.99Z"
fill-rule="evenodd" fill="black"/>
<path d="M402.15 280.6L402.5 280.6 402.5 286.97 402.15 287.33 402.15 280.6Z"
fill-rule="evenodd" fill="black"/>
<path d="M402.15 287.33L402.5 286.97 449.68 286.97 450.04 287.33 402.15 287.33Z"
fill-rule="evenodd" fill="black"/>
<path d="M450.04 287.33L449.68 286.97 449.68 280.6 450.04 280.6 450.04 287.33Z"
fill-rule="evenodd" fill="black"/>
<path d="M402.5 273.92L402.15 273.92 402.15 240.99 402.5 240.99 402.5 273.92Z"
fill-rule="evenodd" fill="black"/>
<path d="M453.2 277.26L459.54 277.26"
fill="none" stroke="black" stroke-width="0.5"/>
<path d="M454.62 237.12L449.86 237.12"
fill="none" stroke="black" stroke-width="0.5"/>
<path d="M402.33 273.92L402.33 280.6"
fill="none" stroke="black" stroke-width="0.5"/>
<path d="M402.33 234.3L402.33 240.99"
fill="none" stroke="black" stroke-width="0.5"/>
<path d="M491.55 204.24L501.45 204.24"
fill="none" stroke="black" stroke-width="0.5"/>
<path d="M501.45 204.24L501.45 178.49"
fill="none" stroke="black" stroke-width="0.5"/>
<path d="M501.45 178.49L491.55 178.49"
fill="none" stroke="black" stroke-width="0.5"/>
<path d="M491.55 178.49L491.55 204.24"
fill="none" stroke="black" stroke-width="0.5"/>
<path d="M496.53 178.49L496.53 172.55"
fill="none" stroke="black" stroke-width="0.5"/>
<path d="M491.55 172.55L501.45 172.55"
fill="none" stroke="black" stroke-width="0.5"/>
<path d="M501.45 172.55L496.53 166.45"
fill="none" stroke="black" stroke-width="0.5"/>
<path d="M496.53 166.45L491.55 172.55"
fill="none" stroke="black" stroke-width="0.5"/>
<path d="M496.53 172.55L496.53 160.66"
fill="none" stroke="black" stroke-width="0.5"/>
<path d="M491.55 166.61L501.45 166.61"
fill="none" stroke="black" stroke-width="0.5"/>
<path d="M491.55 160.66L501.45 160.66"
fill="none" stroke="blue" stroke-width="0.5"/>
<path d="M489.77 169.5L485.57 165.3"
fill="none" stroke="blue" stroke-width="0.5"/>
<path d="M485.57 165.3L488.63 167.81"
fill="none" stroke="blue" stroke-width="0.5"/>
<path d="M485.57 165.3L488.06 168.38"
fill="none" stroke="blue" stroke-width="0.5"/>
<path d="M488.63 167.81L488.06 168.38"
fill="none" stroke="blue" stroke-width="0.5"/>
<path d="M488.63 170.54L484.43 166.33"
fill="none" stroke="blue" stroke-width="0.5"/>
<path d="M484.43 166.33L487.49 168.85"
fill="none" stroke="blue" stroke-width="0.5"/>
<path d="M484.43 166.33L486.92 169.41"
fill="none" stroke="blue" stroke-width="0.5"/>
<path d="M487.49 168.85L486.92 169.41"
fill="none" stroke="blue" stroke-width="0.5"/>
<path d="M496.5 225.76L496.5 204.24"
fill="none" stroke="black" stroke-width="0.5"/>
<path d="M459.54 277.26L468.48 277.26"
fill="none" stroke="black" stroke-width="0.5"/>
<path d="M468.48 277.26L468.48 209.39"
fill="none" stroke="black" stroke-width="0.5"/>
<path d="M454.62 237.12L496.5 237.12"
fill="none" stroke="black" stroke-width="0.5"/>
<path d="M496.5 237.12L496.5 225.76"
fill="none" stroke="black" stroke-width="0.5"/>
<path d="M311.31 266.74L339.04 266.74"
fill="none" stroke="black" stroke-width="0.5"/>
<path d="M339.04 266.74L339.04 294.47"
fill="none" stroke="black" stroke-width="0.5"/>
<path d="M339.04 294.47L311.31 294.47"
fill="none" stroke="black" stroke-width="0.5"/>
<path d="M311.31 294.47L311.31 266.74"
fill="none" stroke="black" stroke-width="0.5"/>
<path d="M402.33 277.26L339.04 277.26"
fill="none" stroke="black" stroke-width="0.5"/>
<path d="M402.33 277.26L400.93 278.66"
fill="none" stroke="black" stroke-width="0.5"/>
<path d="M402.33 277.26L403.73 275.86"
fill="none" stroke="black" stroke-width="0.5"/>
<path d="M311.31 277.26L301.41 277.26"
fill="none" stroke="black" stroke-width="0.5"/>
<path d="M301.41 277.26L301.41 326.77"
fill="none" stroke="black" stroke-width="0.5"/>
<path d="M370.68 277.26L370.68 294.47"
fill="none" stroke="black" stroke-width="0.5"/>
<path d="M369.48 289.96L370.68 294.47"
fill="none" stroke="blue" stroke-width="0.5"/>
<path d="M370.68 294.47L371.92 289.96"
fill="none" stroke="blue" stroke-width="0.5"/>
<path d="M371.92 289.96L369.48 289.96"
fill="none" stroke="blue" stroke-width="0.5"/>
<path d="M301.41 326.77L301.41 329.78"
fill="none" stroke="black" stroke-width="0.5"/>
<path d="M301.41 329.78L335.78 329.78"
fill="none" stroke="black" stroke-width="0.5"/>
<path d="M311.31 277.26L312.71 278.66"
fill="none" stroke="black" stroke-width="0.5"/>
<path d="M311.31 277.26L309.91 275.86"
fill="none" stroke="black" stroke-width="0.5"/>
<path d="M322.87 277.96L325.17 277.96"
fill="none" stroke="blue" stroke-width="0.5"/>
<path d="M325.17 277.96L325.17 272.02"
fill="none" stroke="blue" stroke-width="0.5"/>
<path d="M325.17 272.02L327.15 272.02"
fill="none" stroke="blue" stroke-width="0.5"/>
<path d="M327.15 272.02L327.15 277.96"
fill="none" stroke="blue" stroke-width="0.5"/>
<path d="M327.15 277.96L329.14 277.96"
fill="none" stroke="blue" stroke-width="0.5"/>
<path d="M402.33 237.65L329.14 237.65"
fill="none" stroke="black" stroke-width="0.5"/>
<path d="M323.21 235.67L329.14 237.65"
fill="none" stroke="black" stroke-width="0.5"/>
<path d="M323.21 237.65L319.24 237.65"
fill="none" stroke="black" stroke-width="0.5"/>
<path d="M319.24 233.87L319.24 241.79"
fill="none" stroke="blue" stroke-width="0.5"/>
<path d="M462.61 155.11L462.61 148.18M467.07 148.18L467.07 155.11M462.61 151.48L467.07 151.48M469.62 148.18L469.62 155.11M469.62 155.11L473.44 155.11M475.04 149.5L475.67 149.17M475.67 149.17L476.63 148.18M476.63 148.18L476.63 155.11"
fill="none" stroke="black" stroke-width="0.5"/>
<path d="M384.38 323.84L383.74 323.18M383.74 323.18L382.78 322.85M382.78 322.85L381.51 322.85M381.51 322.85L380.55 323.18M380.55 323.18L379.92 323.84M379.92 323.84L379.92 324.5M379.92 324.5L380.24 325.16M380.24 325.16L380.55 325.49M380.55 325.49L381.19 325.82M381.19 325.82L383.1 326.48M383.1 326.48L383.74 326.81M383.74 326.81L384.06 327.14M384.06 327.14L384.38 327.8M384.38 327.8L384.38 328.79M384.38 328.79L383.74 329.45M383.74 329.45L382.78 329.78M382.78 329.78L381.51 329.78M381.51 329.78L380.55 329.45M380.55 329.45L379.92 328.79M386.29 329.78L386.29 322.85M386.29 322.85L389.16 322.85M389.16 322.85L390.11 323.18M390.11 323.18L390.43 323.51M390.43 323.51L390.75 324.17M390.75 324.17L390.75 324.83M390.75 324.83L390.43 325.49M390.43 325.49L390.11 325.82M390.11 325.82L389.16 326.15M386.29 326.15L389.16 326.15M389.16 326.15L390.11 326.48M390.11 326.48L390.43 326.81M390.43 326.81L390.75 327.47M390.75 327.47L390.75 328.46M390.75 328.46L390.43 329.12M390.43 329.12L390.11 329.45M390.11 329.45L389.16 329.78M389.16 329.78L386.29 329.78M392.98 324.17L393.61 323.84M393.61 323.84L394.57 322.85M394.57 322.85L394.57 329.78"
fill="none" stroke="black" stroke-width="0.5"/>
<path d="M429.48 281.13L429.48 274.2M429.48 274.2L431.7 274.2M431.7 274.2L432.66 274.53M432.66 274.53L433.3 275.19M433.3 275.19L433.62 275.85M433.62 275.85L433.93 276.84M433.93 276.84L433.93 278.49M433.93 278.49L433.62 279.48M433.62 279.48L433.3 280.14M433.3 280.14L432.66 280.8M432.66 280.8L431.7 281.13M431.7 281.13L429.48 281.13M436.8 274.2L440.31 274.2M440.31 274.2L438.39 276.84M438.39 276.84L439.35 276.84M439.35 276.84L439.99 277.17M439.99 277.17L440.31 277.5M440.31 277.5L440.62 278.49M440.62 278.49L440.62 279.15M440.62 279.15L440.31 280.14M440.31 280.14L439.67 280.8M439.67 280.8L438.71 281.13M438.71 281.13L437.76 281.13M437.76 281.13L436.8 280.8M436.8 280.8L436.48 280.47M436.48 280.47L436.16 279.81M442.85 280.47L442.54 280.8M442.54 280.8L442.85 281.13M442.85 281.13L443.17 280.8M445.72 275.52L446.36 275.19M446.36 275.19L447.31 274.2M447.31 274.2L447.31 281.13"
fill="none" stroke="black" stroke-width="0.5"/>
<path d="M432.28 230.71L432.28 237.65M430.05 230.71L434.51 230.71"
fill="none" stroke="black" stroke-width="0.5"/>
<path d="M406.33 241.1L406.33 234.17M406.33 234.17L408.56 234.17M408.56 234.17L409.51 234.5M409.51 234.5L410.15 235.16M410.15 235.16L410.47 235.82M410.47 235.82L410.79 236.81M410.79 236.81L410.79 238.46M410.79 238.46L410.47 239.45M410.47 239.45L410.15 240.11M410.15 240.11L409.51 240.77M409.51 240.77L408.56 241.1M408.56 241.1L406.33 241.1"
fill="none" stroke="black" stroke-width="0.5"/>
<path d="M412.17 275.32L411.85 274.66M411.85 274.66L411.21 274M411.21 274L410.58 273.67M410.58 273.67L409.3 273.67M409.3 273.67L408.67 274M408.67 274L408.03 274.66M408.03 274.66L407.71 275.32M407.71 275.32L407.39 276.31M407.39 276.31L407.39 277.96M407.39 277.96L407.71 278.95M407.71 278.95L408.03 279.61M408.03 279.61L408.67 280.27M408.67 280.27L409.3 280.6M409.3 280.6L410.58 280.6M410.58 280.6L411.21 280.27M411.21 280.27L411.85 279.61M411.85 279.61L412.17 278.95"
fill="none" stroke="black" stroke-width="0.5"/>
<path d="M491.37 155.22L491.37 148.29M495.83 148.29L495.83 155.22M491.37 151.59L495.83 151.59M498.37 148.29L498.37 155.22M498.37 155.22L502.2 155.22M504.11 149.94L504.11 149.61M504.11 149.61L504.43 148.95M504.43 148.95L504.75 148.62M504.75 148.62L505.38 148.29M505.38 148.29L506.66 148.29M506.66 148.29L507.29 148.62M507.29 148.62L507.61 148.95M507.61 148.95L507.93 149.61M507.93 149.61L507.93 150.27M507.93 150.27L507.61 150.93M507.61 150.93L506.98 151.92M506.98 151.92L503.79 155.22M503.79 155.22L508.25 155.22"
fill="none" stroke="black" stroke-width="0.5"/>
<path d="M318.79 277.96L318.79 271.03M318.79 271.03L322.93 271.03M318.79 274.33L321.34 274.33"
fill="none" stroke="black" stroke-width="0.5"/>
<path d="M333.59 226.15L332.96 225.49M332.96 225.49L332 225.16M332 225.16L330.73 225.16M330.73 225.16L329.77 225.49M329.77 225.49L329.14 226.15M329.14 226.15L329.14 226.81M329.14 226.81L329.45 227.47M329.45 227.47L329.77 227.8M329.77 227.8L330.41 228.13M330.41 228.13L332.32 228.79M332.32 228.79L332.96 229.12M332.96 229.12L333.28 229.45M333.28 229.45L333.59 230.11M333.59 230.11L333.59 231.1M333.59 231.1L332.96 231.76M332.96 231.76L332 232.09M332 232.09L330.73 232.09M330.73 232.09L329.77 231.76M329.77 231.76L329.14 231.1M335.51 232.09L338.05 225.16M338.05 225.16L340.6 232.09M336.46 229.78L339.65 229.78M342.51 226.48L343.15 226.15M343.15 226.15L344.11 225.16M344.11 225.16L344.11 232.09"
fill="none" stroke="black" stroke-width="0.5"/>
<path d="M394.3 229.02L394.3 228.69M394.3 228.69L394.62 228.03M394.62 228.03L394.93 227.7M394.93 227.7L395.57 227.37M395.57 227.37L396.85 227.37M396.85 227.37L397.48 227.7M397.48 227.7L397.8 228.03M397.8 228.03L398.12 228.69M398.12 228.69L398.12 229.35M398.12 229.35L397.8 230.01M397.8 230.01L397.16 231M397.16 231L393.98 234.3M393.98 234.3L398.44 234.3"
fill="none" stroke="black" stroke-width="0.5"/>
<path d="M391.6 266.98L395.1 266.98M395.1 266.98L393.19 269.62M393.19 269.62L394.15 269.62M394.15 269.62L394.78 269.95M394.78 269.95L395.1 270.28M395.1 270.28L395.42 271.27M395.42 271.27L395.42 271.93M395.42 271.93L395.1 272.93M395.1 272.93L394.46 273.59M394.46 273.59L393.51 273.92M393.51 273.92L392.55 273.92M392.55 273.92L391.6 273.59M391.6 273.59L391.28 273.26M391.28 273.26L390.96 272.6"
fill="none" stroke="black" stroke-width="0.5"/>
<path d="M458.44 226.93L455.26 226.93M455.26 226.93L454.94 229.91M454.94 229.91L455.26 229.58M455.26 229.58L456.21 229.25M456.21 229.25L457.17 229.25M457.17 229.25L458.12 229.58M458.12 229.58L458.76 230.24M458.76 230.24L459.08 231.23M459.08 231.23L459.08 231.89M459.08 231.89L458.76 232.88M458.76 232.88L458.12 233.54M458.12 233.54L457.17 233.87M457.17 233.87L456.21 233.87M456.21 233.87L455.26 233.54M455.26 233.54L454.94 233.21M454.94 233.21L454.62 232.55"
fill="none" stroke="black" stroke-width="0.5"/>
<path d="M458.44 265.64L458.12 264.98M458.12 264.98L457.17 264.65M457.17 264.65L456.53 264.65M456.53 264.65L455.57 264.98M455.57 264.98L454.94 265.97M454.94 265.97L454.62 267.62M454.62 267.62L454.62 269.27M454.62 269.27L454.94 270.59M454.94 270.59L455.57 271.25M455.57 271.25L456.53 271.58M456.53 271.58L456.85 271.58M456.85 271.58L457.8 271.25M457.8 271.25L458.44 270.59M458.44 270.59L458.76 269.6M458.76 269.6L458.76 269.27M458.76 269.27L458.44 268.28M458.44 268.28L457.8 267.62M457.8 267.62L456.85 267.29M456.85 267.29L456.53 267.29M456.53 267.29L455.57 267.62M455.57 267.62L454.94 268.28M454.94 268.28L454.62 269.27"
fill="none" stroke="black" stroke-width="0.5"/>
<path d="M376.53 289.84L376.53 294.47M377.8 291.82L380.03 294.47M379.72 289.84L376.53 293.15M388.95 289.84L389.91 289.84M389.91 289.84L390.55 290.17M390.55 290.17L391.18 290.83M391.18 290.83L391.5 291.82M391.5 291.82L391.5 292.48M391.5 292.48L391.18 293.48M391.18 293.48L390.55 294.14M390.55 294.14L389.91 294.47M389.91 294.47L388.95 294.47M388.95 294.47L388.32 294.14M388.32 294.14L387.68 293.48M387.68 293.48L387.36 292.48M387.36 292.48L387.36 291.82M387.36 291.82L387.68 290.83M387.68 290.83L388.32 290.17M388.32 290.17L388.95 289.84M397.24 290.83L396.6 290.17M396.6 290.17L395.96 289.84M395.96 289.84L395.01 289.84M395.01 289.84L394.37 290.17M394.37 290.17L393.73 290.83M393.73 290.83L393.41 291.82M393.41 291.82L393.41 292.48M393.41 292.48L393.73 293.48M393.73 293.48L394.37 294.14M394.37 294.14L395.01 294.47M395.01 294.47L395.96 294.47M395.96 294.47L396.6 294.14M396.6 294.14L397.24 293.48M399.15 289.84L399.15 293.15M399.15 293.15L399.47 294.14M399.47 294.14L400.1 294.47M400.1 294.47L401.06 294.47M401.06 294.47L401.7 294.14M401.7 294.14L402.65 293.15M402.65 289.84L402.65 294.47M402.65 294.47L403.29 294.47M403.29 294.47L403.29 295.46M404.24 293.81L403.93 294.14M403.93 294.14L404.24 294.47M404.24 294.47L404.56 294.14"
fill="none" stroke="black" stroke-width="0.5"/>
<path d="M192.04 594.12L192.04 5.88"
fill="none" stroke="black" stroke-width="0.5"/>
<path d="M192.04 5.88L607.96 5.88"
fill="none" stroke="black" stroke-width="0.5"/>
<path d="M607.96 5.88L607.96 594.12"
fill="none" stroke="black" stroke-width="0.5"/>
<path d="M607.96 594.12L192.04 594.12"
fill="none" stroke="black" stroke-width="0.5"/>
</svg>
