<?xml version="1.0" encoding="UTF-8"?>
<svg xmlns="http://www.w3.org/2000/svg" width="800.000" height="600.000" viewBox="0.0 0.0 800.000 600.000" version="1.1">
  <title>Produce by Acme CAD Converter</title>
  <desc>Produce by Acme CAD Converter</desc>
<path d="M436.25 231.75L436.25 231.17 433.75 228.68 436.25 231.75Z"
fill-rule="evenodd" fill="black"/>
<path d="M436.25 231.17L436.25 230.72 433.75 228.68 436.25 231.17Z"
fill-rule="evenodd" fill="black"/>
<path d="M436.25 231.75L436.54 231.46 436.25 231.17 436.25 231.75Z"
fill-rule="evenodd" fill="black"/>
<path d="M436.25 231.17L436.54 231.46 436.25 230.72 436.25 231.17Z"
fill-rule="evenodd" fill="black"/>
<path d="M436.54 231.46L436.54 230.96 436.25 230.72 436.54 231.46Z"
fill-rule="evenodd" fill="black"/>
<path d="M436.54 231.46L436.82 231.19 436.54 230.96 436.54 231.46Z"
fill-rule="evenodd" fill="black"/>
<path d="M435.11 232.79L435.11 232.21 432.61 229.71 435.11 232.79Z"
fill-rule="evenodd" fill="black"/>
<path d="M435.11 232.21L435.11 231.76 432.61 229.71 435.11 232.21Z"
fill-rule="evenodd" fill="black"/>
<path d="M435.11 232.79L435.4 232.5 435.11 232.21 435.11 232.79Z"
fill-rule="evenodd" fill="black"/>
<path d="M435.11 232.21L435.4 232.5 435.11 231.76 435.11 232.21Z"
fill-rule="evenodd" fill="black"/>
<path d="M435.4 232.5L435.4 232 435.11 231.76 435.4 232.5Z"
fill-rule="evenodd" fill="black"/>
<path d="M435.4 232.5L435.68 232.23 435.4 232 435.4 232.5Z"
fill-rule="evenodd" fill="black"/>
<path d="M464.29 231.75L464.29 231.17 461.8 228.68 464.29 231.75Z"
fill-rule="evenodd" fill="black"/>
<path d="M464.29 231.17L464.29 230.72 461.8 228.68 464.29 231.17Z"
fill-rule="evenodd" fill="black"/>
<path d="M464.29 231.75L464.58 231.46 464.29 231.17 464.29 231.75Z"
fill-rule="evenodd" fill="black"/>
<path d="M464.29 231.17L464.58 231.46 464.29 230.72 464.29 231.17Z"
fill-rule="evenodd" fill="black"/>
<path d="M464.58 231.46L464.58 230.96 464.29 230.72 464.58 231.46Z"
fill-rule="evenodd" fill="black"/>
<path d="M464.58 231.46L464.86 231.19 464.58 230.96 464.58 231.46Z"
fill-rule="evenodd" fill="black"/>
<path d="M463.15 232.79L463.15 232.21 460.66 229.71 463.15 232.79Z"
fill-rule="evenodd" fill="black"/>
<path d="M463.15 232.21L463.15 231.76 460.66 229.71 463.15 232.21Z"
fill-rule="evenodd" fill="black"/>
<path d="M463.15 232.79L463.45 232.5 463.15 232.21 463.15 232.79Z"
fill-rule="evenodd" fill="black"/>
<path d="M463.15 232.21L463.45 232.5 463.15 231.76 463.15 232.21Z"
fill-rule="evenodd" fill="black"/>
<path d="M463.45 232.5L463.45 232 463.15 231.76 463.45 232.5Z"
fill-rule="evenodd" fill="black"/>
<path d="M463.45 232.5L463.72 232.23 463.45 232 463.45 232.5Z"
fill-rule="evenodd" fill="black"/>
<path d="M362.01 396.09L362.01 394.69 361.72 395.39 362.01 396.09Z"
fill-rule="evenodd" fill="black"/>
<path d="M362.01 396.09L362.71 396.38 362.01 394.69 362.01 396.09Z"
fill-rule="evenodd" fill="black"/>
<path d="M362.71 396.38L362.71 394.4 362.01 394.69 362.71 396.38Z"
fill-rule="evenodd" fill="black"/>
<path d="M362.71 396.38L363.41 396.09 362.71 394.4 362.71 396.38Z"
fill-rule="evenodd" fill="black"/>
<path d="M363.41 396.09L363.41 394.69 362.71 394.4 363.41 396.09Z"
fill-rule="evenodd" fill="black"/>
<path d="M363.41 396.09L363.7 395.39 363.41 394.69 363.41 396.09Z"
fill-rule="evenodd" fill="black"/>
<path d="M444.72 272.77L444.72 267.62"
fill="none" stroke="black" stroke-width="0.5"/>
<path d="M439.74 267.62L449.64 267.62"
fill="none" stroke="black" stroke-width="0.5"/>
<path d="M449.64 267.62L449.64 241.87"
fill="none" stroke="black" stroke-width="0.5"/>
<path d="M449.64 241.87L439.74 241.87"
fill="none" stroke="black" stroke-width="0.5"/>
<path d="M439.74 241.87L439.74 267.62"
fill="none" stroke="black" stroke-width="0.5"/>
<path d="M444.72 241.87L444.72 235.93"
fill="none" stroke="black" stroke-width="0.5"/>
<path d="M439.74 235.93L449.64 235.93"
fill="none" stroke="black" stroke-width="0.5"/>
<path d="M449.64 235.93L444.72 229.83"
fill="none" stroke="black" stroke-width="0.5"/>
<path d="M444.72 229.83L439.74 235.93"
fill="none" stroke="black" stroke-width="0.5"/>
<path d="M444.72 235.93L444.72 224.04"
fill="none" stroke="black" stroke-width="0.5"/>
<path d="M439.74 229.98L449.64 229.98"
fill="none" stroke="black" stroke-width="0.5"/>
<path d="M439.74 224.04L449.64 224.04"
fill="none" stroke="blue" stroke-width="0.5"/>
<path d="M437.96 232.88L433.75 228.68"
fill="none" stroke="blue" stroke-width="0.5"/>
<path d="M433.75 228.68L436.82 231.19"
fill="none" stroke="blue" stroke-width="0.5"/>
<path d="M433.75 228.68L436.25 231.75"
fill="none" stroke="blue" stroke-width="0.5"/>
<path d="M436.82 231.19L436.25 231.75"
fill="none" stroke="blue" stroke-width="0.5"/>
<path d="M436.82 233.91L432.61 229.71"
fill="none" stroke="blue" stroke-width="0.5"/>
<path d="M432.61 229.71L435.68 232.23"
fill="none" stroke="blue" stroke-width="0.5"/>
<path d="M432.61 229.71L435.11 232.79"
fill="none" stroke="blue" stroke-width="0.5"/>
<path d="M435.68 232.23L435.11 232.79"
fill="none" stroke="blue" stroke-width="0.5"/>
<path d="M315.98 448.62L333.8 448.62"
fill="none" stroke="black" stroke-width="0.5"/>
<path d="M342.55 448.62L352.45 448.62"
fill="none" stroke="black" stroke-width="0.5"/>
<path d="M342.55 448.62L333.8 444.67"
fill="none" stroke="black" stroke-width="0.5"/>
<path d="M338.18 446.64L338.18 442.9"
fill="none" stroke="black" stroke-width="0.5"/>
<path d="M339.66 447.31L339.66 442.9"
fill="none" stroke="black" stroke-width="0.5"/>
<path d="M336.71 442.9L341.69 442.9"
fill="none" stroke="black" stroke-width="0.5"/>
<path d="M341.69 442.9L341.69 443.75"
fill="none" stroke="black" stroke-width="0.5"/>
<path d="M336.71 442.9L336.71 443.75"
fill="none" stroke="black" stroke-width="0.5"/>
<path d="M352.45 443.75L352.45 453.65"
fill="none" stroke="blue" stroke-width="0.5"/>
<path d="M425.91 292.48L426.27 292.48 426.27 325.41 425.91 325.41 425.91 292.48Z"
fill-rule="evenodd" fill="black"/>
<path d="M426.27 325.41L425.91 325.41 425.91 281.39 426.27 281.03 426.27 325.41Z"
fill-rule="evenodd" fill="black"/>
<path d="M426.27 281.03L425.91 281.39 378.74 281.39 378.38 281.03 426.27 281.03Z"
fill-rule="evenodd" fill="black"/>
<path d="M378.38 281.03L378.74 281.39 378.74 285.8 378.38 285.8 378.38 281.03Z"
fill-rule="evenodd" fill="black"/>
<path d="M425.91 332.1L426.27 332.1 426.27 338.82 425.91 338.47 425.91 332.1Z"
fill-rule="evenodd" fill="black"/>
<path d="M425.91 338.47L426.27 338.82 378.38 338.82 378.74 338.47 425.91 338.47Z"
fill-rule="evenodd" fill="black"/>
<path d="M378.74 338.47L378.38 338.82 378.38 332.1 378.74 332.1 378.74 338.47Z"
fill-rule="evenodd" fill="black"/>
<path d="M392.03 281.21L392.03 338.64"
fill="none" stroke="black" stroke-width="0.5"/>
<path d="M378.74 285.8L378.38 285.8 378.38 281.03 378.74 281.39 378.74 285.8Z"
fill-rule="evenodd" fill="black"/>
<path d="M378.74 281.39L378.38 281.03 426.27 281.03 425.91 281.39 378.74 281.39Z"
fill-rule="evenodd" fill="black"/>
<path d="M425.91 281.39L426.27 281.03 426.27 285.8 425.91 285.8 425.91 281.39Z"
fill-rule="evenodd" fill="black"/>
<path d="M378.38 292.48L378.74 292.48 378.74 325.41 378.38 325.41 378.38 292.48Z"
fill-rule="evenodd" fill="black"/>
<path d="M378.38 332.1L378.74 332.1 378.74 338.47 378.38 338.82 378.38 332.1Z"
fill-rule="evenodd" fill="black"/>
<path d="M378.38 338.82L378.74 338.47 425.91 338.47 426.27 338.82 378.38 338.82Z"
fill-rule="evenodd" fill="black"/>
<path d="M426.27 338.82L425.91 338.47 425.91 332.1 426.27 332.1 426.27 338.82Z"
fill-rule="evenodd" fill="black"/>
<path d="M378.74 325.41L378.38 325.41 378.38 292.48 378.74 292.48 378.74 325.41Z"
fill-rule="evenodd" fill="black"/>
<path d="M430.85 288.61L426.09 288.61"
fill="none" stroke="black" stroke-width="0.5"/>
<path d="M378.56 325.41L378.56 332.1"
fill="none" stroke="black" stroke-width="0.5"/>
<path d="M378.56 285.8L378.56 292.48"
fill="none" stroke="black" stroke-width="0.5"/>
<path d="M467.78 267.62L477.69 267.62"
fill="none" stroke="black" stroke-width="0.5"/>
<path d="M477.69 267.62L477.69 241.87"
fill="none" stroke="black" stroke-width="0.5"/>
<path d="M477.69 241.87L467.78 241.87"
fill="none" stroke="black" stroke-width="0.5"/>
<path d="M467.78 241.87L467.78 267.62"
fill="none" stroke="black" stroke-width="0.5"/>
<path d="M472.76 241.87L472.76 235.93"
fill="none" stroke="black" stroke-width="0.5"/>
<path d="M467.78 235.93L477.69 235.93"
fill="none" stroke="black" stroke-width="0.5"/>
<path d="M477.69 235.93L472.76 229.83"
fill="none" stroke="black" stroke-width="0.5"/>
<path d="M472.76 229.83L467.78 235.93"
fill="none" stroke="black" stroke-width="0.5"/>
<path d="M472.76 235.93L472.76 224.04"
fill="none" stroke="black" stroke-width="0.5"/>
<path d="M467.78 229.98L477.69 229.98"
fill="none" stroke="black" stroke-width="0.5"/>
<path d="M467.78 224.04L477.69 224.04"
fill="none" stroke="blue" stroke-width="0.5"/>
<path d="M466 232.88L461.8 228.68"
fill="none" stroke="blue" stroke-width="0.5"/>
<path d="M461.8 228.68L464.86 231.19"
fill="none" stroke="blue" stroke-width="0.5"/>
<path d="M461.8 228.68L464.29 231.75"
fill="none" stroke="blue" stroke-width="0.5"/>
<path d="M464.86 231.19L464.29 231.75"
fill="none" stroke="blue" stroke-width="0.5"/>
<path d="M464.86 233.91L460.66 229.71"
fill="none" stroke="blue" stroke-width="0.5"/>
<path d="M460.66 229.71L463.72 232.23"
fill="none" stroke="blue" stroke-width="0.5"/>
<path d="M460.66 229.71L463.15 232.79"
fill="none" stroke="blue" stroke-width="0.5"/>
<path d="M463.72 232.23L463.15 232.79"
fill="none" stroke="blue" stroke-width="0.5"/>
<path d="M472.73 288.61L472.73 267.62"
fill="none" stroke="black" stroke-width="0.5"/>
<path d="M472.73 280.69L472.73 288.61"
fill="none" stroke="black" stroke-width="0.5"/>
<path d="M291.5 385.57L319.23 385.57"
fill="none" stroke="black" stroke-width="0.5"/>
<path d="M319.23 385.57L319.23 413.3"
fill="none" stroke="black" stroke-width="0.5"/>
<path d="M319.23 413.3L291.5 413.3"
fill="none" stroke="black" stroke-width="0.5"/>
<path d="M291.5 413.3L291.5 385.57"
fill="none" stroke="black" stroke-width="0.5"/>
<path d="M378.56 328.75L377.16 330.15"
fill="none" stroke="black" stroke-width="0.5"/>
<path d="M378.56 328.75L379.96 327.35"
fill="none" stroke="black" stroke-width="0.5"/>
<path d="M291.5 396.09L281.6 396.09"
fill="none" stroke="black" stroke-width="0.5"/>
<path d="M281.6 396.09L281.6 445.61"
fill="none" stroke="black" stroke-width="0.5"/>
<path d="M281.6 445.61L281.6 448.62"
fill="none" stroke="black" stroke-width="0.5"/>
<path d="M281.6 448.62L315.98 448.62"
fill="none" stroke="black" stroke-width="0.5"/>
<path d="M291.5 396.09L292.9 397.49"
fill="none" stroke="black" stroke-width="0.5"/>
<path d="M291.5 396.09L290.1 394.69"
fill="none" stroke="black" stroke-width="0.5"/>
<path d="M303.07 396.79L305.37 396.79"
fill="none" stroke="blue" stroke-width="0.5"/>
<path d="M305.37 396.79L305.37 390.85"
fill="none" stroke="blue" stroke-width="0.5"/>
<path d="M305.37 390.85L307.35 390.85"
fill="none" stroke="blue" stroke-width="0.5"/>
<path d="M307.35 390.85L307.35 396.79"
fill="none" stroke="blue" stroke-width="0.5"/>
<path d="M307.35 396.79L309.33 396.79"
fill="none" stroke="blue" stroke-width="0.5"/>
<path d="M426.09 325.41L426.09 332.1"
fill="none" stroke="black" stroke-width="0.5"/>
<path d="M427.99 359.82L428.35 359.82 428.35 392.75 427.99 392.75 427.99 359.82Z"
fill-rule="evenodd" fill="black"/>
<path d="M428.35 392.75L427.99 392.75 427.99 348.73 428.35 348.37 428.35 392.75Z"
fill-rule="evenodd" fill="black"/>
<path d="M428.35 348.37L427.99 348.73 380.81 348.73 380.46 348.37 428.35 348.37Z"
fill-rule="evenodd" fill="black"/>
<path d="M380.46 348.37L380.81 348.73 380.81 353.14 380.46 353.14 380.46 348.37Z"
fill-rule="evenodd" fill="black"/>
<path d="M427.99 399.44L428.35 399.44 428.35 406.16 427.99 405.81 427.99 399.44Z"
fill-rule="evenodd" fill="black"/>
<path d="M427.99 405.81L428.35 406.16 380.46 406.16 380.81 405.81 427.99 405.81Z"
fill-rule="evenodd" fill="black"/>
<path d="M380.81 405.81L380.46 406.16 380.46 399.44 380.81 399.44 380.81 405.81Z"
fill-rule="evenodd" fill="black"/>
<path d="M394.11 348.55L394.11 405.98"
fill="none" stroke="black" stroke-width="0.5"/>
<path d="M380.81 353.14L380.46 353.14 380.46 348.37 380.81 348.73 380.81 353.14Z"
fill-rule="evenodd" fill="black"/>
<path d="M380.81 348.73L380.46 348.37 428.35 348.37 427.99 348.73 380.81 348.73Z"
fill-rule="evenodd" fill="black"/>
<path d="M427.99 348.73L428.35 348.37 428.35 353.14 427.99 353.14 427.99 348.73Z"
fill-rule="evenodd" fill="black"/>
<path d="M380.46 359.82L380.81 359.82 380.81 392.75 380.46 392.75 380.46 359.82Z"
fill-rule="evenodd" fill="black"/>
<path d="M380.46 399.44L380.81 399.44 380.81 405.81 380.46 406.16 380.46 399.44Z"
fill-rule="evenodd" fill="black"/>
<path d="M380.46 406.16L380.81 405.81 427.99 405.81 428.35 406.16 380.46 406.16Z"
fill-rule="evenodd" fill="black"/>
<path d="M428.35 406.16L427.99 405.81 427.99 399.44 428.35 399.44 428.35 406.16Z"
fill-rule="evenodd" fill="black"/>
<path d="M380.81 392.75L380.46 392.75 380.46 359.82 380.81 359.82 380.81 392.75Z"
fill-rule="evenodd" fill="black"/>
<path d="M432.93 355.95L428.17 355.95"
fill="none" stroke="black" stroke-width="0.5"/>
<path d="M380.64 392.75L380.64 399.44"
fill="none" stroke="black" stroke-width="0.5"/>
<path d="M380.64 353.14L380.64 359.82"
fill="none" stroke="black" stroke-width="0.5"/>
<path d="M428.17 392.75L428.17 399.44"
fill="none" stroke="black" stroke-width="0.5"/>
<path d="M444.72 280.69L444.72 272.77"
fill="none" stroke="black" stroke-width="0.5"/>
<path d="M432.93 355.95L441.05 355.95"
fill="none" stroke="black" stroke-width="0.5"/>
<path d="M472.73 288.61L472.73 277.26"
fill="none" stroke="black" stroke-width="0.5"/>
<path d="M319.23 395.39L380.64 395.39"
fill="none" stroke="black" stroke-width="0.5"/>
<path d="M380.64 395.39L382.04 393.99"
fill="none" stroke="black" stroke-width="0.5"/>
<path d="M380.64 395.39L379.24 396.79"
fill="none" stroke="black" stroke-width="0.5"/>
<path d="M369.77 355.95L380.64 355.95"
fill="none" stroke="black" stroke-width="0.5"/>
<path d="M369.77 355.95L342.19 355.95"
fill="none" stroke="black" stroke-width="0.5"/>
<path d="M328.01 355.95L333.95 355.95"
fill="none" stroke="black" stroke-width="0.5"/>
<path d="M333.95 355.95L334.13 355.24M334.13 355.24L334.62 354.69M334.62 354.69L335.3 354.43M335.3 354.43L336.03 354.52M336.03 354.52L336.64 354.94M336.64 354.94L336.98 355.59M336.98 355.59L336.98 356.32M336.98 356.32L336.64 356.97M336.64 356.97L336.03 357.39M336.03 357.39L335.3 357.48M335.3 357.48L334.62 357.21M334.62 357.21L334.13 356.67M334.13 356.67L333.95 355.95"
fill="none" stroke="black" stroke-width="0.5"/>
<path d="M339.13 355.95L339.3 355.24M339.3 355.24L339.79 354.69M339.79 354.69L340.48 354.43M340.48 354.43L341.2 354.52M341.2 354.52L341.81 354.94M341.81 354.94L342.15 355.59M342.15 355.59L342.15 356.32M342.15 356.32L341.81 356.97M341.81 356.97L341.2 357.39M341.2 357.39L340.48 357.48M340.48 357.48L339.79 357.21M339.79 357.21L339.3 356.67M339.3 356.67L339.13 355.95"
fill="none" stroke="black" stroke-width="0.5"/>
<path d="M328.01 355.95L298.39 355.95"
fill="none" stroke="black" stroke-width="0.5"/>
<path d="M292.46 353.97L298.39 355.95"
fill="none" stroke="black" stroke-width="0.5"/>
<path d="M292.46 355.95L288.5 355.95"
fill="none" stroke="black" stroke-width="0.5"/>
<path d="M288.5 352.17L288.5 360.09"
fill="none" stroke="blue" stroke-width="0.5"/>
<path d="M328.01 289.14L298.39 289.14"
fill="none" stroke="black" stroke-width="0.5"/>
<path d="M292.46 287.16L298.39 289.14"
fill="none" stroke="black" stroke-width="0.5"/>
<path d="M292.46 289.14L288.5 289.14"
fill="none" stroke="black" stroke-width="0.5"/>
<path d="M288.5 285.36L288.5 293.28"
fill="none" stroke="blue" stroke-width="0.5"/>
<path d="M328.01 289.14L378.56 289.14"
fill="none" stroke="black" stroke-width="0.5"/>
<path d="M378.56 328.75L362.71 328.75"
fill="none" stroke="black" stroke-width="0.5"/>
<path d="M362.71 328.75L362.71 395.39"
fill="none" stroke="black" stroke-width="0.5"/>
<path d="M444.72 280.69L444.72 355.95"
fill="none" stroke="black" stroke-width="0.5"/>
<path d="M444.72 355.95L441.05 355.95"
fill="none" stroke="black" stroke-width="0.5"/>
<path d="M430.85 288.61L472.73 288.61"
fill="none" stroke="black" stroke-width="0.5"/>
<path d="M361.72 395.39L361.91 394.81M361.91 394.81L362.41 394.45M362.41 394.45L363.02 394.45M363.02 394.45L363.52 394.81M363.52 394.81L363.7 395.39M363.7 395.39L363.52 395.98M363.52 395.98L363.02 396.34M363.02 396.34L362.41 396.34M362.41 396.34L361.91 395.98M361.91 395.98L361.72 395.39"
fill="none" stroke="blue" stroke-width="0.5"/>
<path d="M438.85 218.49L438.85 211.56M443.31 211.56L443.31 218.49M438.85 214.86L443.31 214.86M445.85 211.56L445.85 218.49M445.85 218.49L449.68 218.49M451.27 212.88L451.91 212.55M451.91 212.55L452.86 211.56M452.86 211.56L452.86 218.49"
fill="none" stroke="black" stroke-width="0.5"/>
<path d="M364.57 442.68L363.93 442.01M363.93 442.01L362.98 441.68M362.98 441.68L361.7 441.68M361.7 441.68L360.75 442.01M360.75 442.01L360.11 442.68M360.11 442.68L360.11 443.34M360.11 443.34L360.43 444M360.43 444L360.75 444.33M360.75 444.33L361.39 444.66M361.39 444.66L363.3 445.32M363.3 445.32L363.93 445.65M363.93 445.65L364.25 445.98M364.25 445.98L364.57 446.64M364.57 446.64L364.57 447.63M364.57 447.63L363.93 448.29M363.93 448.29L362.98 448.62M362.98 448.62L361.7 448.62M361.7 448.62L360.75 448.29M360.75 448.29L360.11 447.63M366.48 448.62L366.48 441.68M366.48 441.68L369.35 441.68M369.35 441.68L370.3 442.01M370.3 442.01L370.62 442.34M370.62 442.34L370.94 443.01M370.94 443.01L370.94 443.67M370.94 443.67L370.62 444.33M370.62 444.33L370.3 444.66M370.3 444.66L369.35 444.99M366.48 444.99L369.35 444.99M369.35 444.99L370.3 445.32M370.3 445.32L370.62 445.65M370.62 445.65L370.94 446.31M370.94 446.31L370.94 447.3M370.94 447.3L370.62 447.96M370.62 447.96L370.3 448.29M370.3 448.29L369.35 448.62M369.35 448.62L366.48 448.62M373.17 443.01L373.81 442.68M373.81 442.68L374.76 441.68M374.76 441.68L374.76 448.62"
fill="none" stroke="black" stroke-width="0.5"/>
<path d="M405.71 332.62L405.71 325.69M405.71 325.69L407.94 325.69M407.94 325.69L408.89 326.02M408.89 326.02L409.53 326.68M409.53 326.68L409.85 327.34M409.85 327.34L410.17 328.33M410.17 328.33L410.17 329.98M410.17 329.98L409.85 330.97M409.85 330.97L409.53 331.63M409.53 331.63L408.89 332.29M408.89 332.29L407.94 332.62M407.94 332.62L405.71 332.62M413.03 325.69L416.54 325.69M416.54 325.69L414.63 328.33M414.63 328.33L415.58 328.33M415.58 328.33L416.22 328.66M416.22 328.66L416.54 328.99M416.54 328.99L416.86 329.98M416.86 329.98L416.86 330.64M416.86 330.64L416.54 331.63M416.54 331.63L415.9 332.29M415.9 332.29L414.95 332.62M414.95 332.62L413.99 332.62M413.99 332.62L413.03 332.29M413.03 332.29L412.72 331.96M412.72 331.96L412.4 331.3M419.09 331.96L418.77 332.29M418.77 332.29L419.09 332.62M419.09 332.62L419.41 332.29M421.95 327.01L422.59 326.68M422.59 326.68L423.55 325.69M423.55 325.69L423.55 332.62"
fill="none" stroke="black" stroke-width="0.5"/>
<path d="M408.52 282.21L408.52 289.14M406.29 282.21L410.75 282.21"
fill="none" stroke="black" stroke-width="0.5"/>
<path d="M382.56 292.6L382.56 285.66M382.56 285.66L384.79 285.66M384.79 285.66L385.75 285.99M385.75 285.99L386.38 286.65M386.38 286.65L386.7 287.32M386.7 287.32L387.02 288.31M387.02 288.31L387.02 289.96M387.02 289.96L386.7 290.95M386.7 290.95L386.38 291.61M386.38 291.61L385.75 292.27M385.75 292.27L384.79 292.6M384.79 292.6L382.56 292.6"
fill="none" stroke="black" stroke-width="0.5"/>
<path d="M388.4 326.82L388.08 326.15M388.08 326.15L387.45 325.49M387.45 325.49L386.81 325.16M386.81 325.16L385.54 325.16M385.54 325.16L384.9 325.49M384.9 325.49L384.26 326.15M384.26 326.15L383.94 326.82M383.94 326.82L383.62 327.81M383.62 327.81L383.62 329.46M383.62 329.46L383.94 330.45M383.94 330.45L384.26 331.11M384.26 331.11L384.9 331.77M384.9 331.77L385.54 332.1M385.54 332.1L386.81 332.1M386.81 332.1L387.45 331.77M387.45 331.77L388.08 331.11M388.08 331.11L388.4 330.45"
fill="none" stroke="black" stroke-width="0.5"/>
<path d="M467.6 218.6L467.6 211.66M472.06 211.66L472.06 218.6M467.6 214.97L472.06 214.97M474.61 211.66L474.61 218.6M474.61 218.6L478.43 218.6M480.34 213.32L480.34 212.98M480.34 212.98L480.66 212.32M480.66 212.32L480.98 211.99M480.98 211.99L481.62 211.66M481.62 211.66L482.89 211.66M482.89 211.66L483.53 211.99M483.53 211.99L483.85 212.32M483.85 212.32L484.16 212.98M484.16 212.98L484.16 213.65M484.16 213.65L483.85 214.31M483.85 214.31L483.21 215.3M483.21 215.3L480.02 218.6M480.02 218.6L484.48 218.6"
fill="none" stroke="black" stroke-width="0.5"/>
<path d="M298.98 396.79L298.98 389.86M298.98 389.86L303.13 389.86M298.98 393.16L301.53 393.16"
fill="none" stroke="black" stroke-width="0.5"/>
<path d="M407.79 399.97L407.79 393.03M407.79 393.03L410.02 393.03M410.02 393.03L410.97 393.36M410.97 393.36L411.61 394.02M411.61 394.02L411.93 394.68M411.93 394.68L412.25 395.67M412.25 395.67L412.25 397.32M412.25 397.32L411.93 398.31M411.93 398.31L411.61 398.97M411.61 398.97L410.97 399.63M410.97 399.63L410.02 399.97M410.02 399.97L407.79 399.97M415.11 393.03L418.62 393.03M418.62 393.03L416.71 395.67M416.71 395.67L417.66 395.67M417.66 395.67L418.3 396M418.3 396L418.62 396.33M418.62 396.33L418.94 397.32M418.94 397.32L418.94 397.98M418.94 397.98L418.62 398.97M418.62 398.97L417.98 399.63M417.98 399.63L417.02 399.97M417.02 399.97L416.07 399.97M416.07 399.97L415.11 399.63M415.11 399.63L414.79 399.3M414.79 399.3L414.48 398.64M421.16 399.3L420.85 399.63M420.85 399.63L421.16 399.97M421.16 399.97L421.48 399.63M424.35 394.68L424.35 394.35M424.35 394.35L424.67 393.69M424.67 393.69L424.99 393.36M424.99 393.36L425.62 393.03M425.62 393.03L426.9 393.03M426.9 393.03L427.54 393.36M427.54 393.36L427.85 393.69M427.85 393.69L428.17 394.35M428.17 394.35L428.17 395.01M428.17 395.01L427.85 395.67M427.85 395.67L427.22 396.66M427.22 396.66L424.03 399.97M424.03 399.97L428.49 399.97"
fill="none" stroke="black" stroke-width="0.5"/>
<path d="M410.59 349.55L410.59 356.48M408.36 349.55L412.82 349.55"
fill="none" stroke="black" stroke-width="0.5"/>
<path d="M384.64 359.94L384.64 353M384.64 353L386.87 353M386.87 353L387.83 353.33M387.83 353.33L388.46 353.99M388.46 353.99L388.78 354.66M388.78 354.66L389.1 355.65M389.1 355.65L389.1 357.3M389.1 357.3L388.78 358.29M388.78 358.29L388.46 358.95M388.46 358.95L387.83 359.61M387.83 359.61L386.87 359.94M386.87 359.94L384.64 359.94"
fill="none" stroke="black" stroke-width="0.5"/>
<path d="M390.48 394.16L390.16 393.49M390.16 393.49L389.53 392.83M389.53 392.83L388.89 392.5M388.89 392.5L387.61 392.5M387.61 392.5L386.98 392.83M386.98 392.83L386.34 393.49M386.34 393.49L386.02 394.16M386.02 394.16L385.7 395.15M385.7 395.15L385.7 396.8M385.7 396.8L386.02 397.79M386.02 397.79L386.34 398.45M386.34 398.45L386.98 399.11M386.98 399.11L387.61 399.44M387.61 399.44L388.89 399.44M388.89 399.44L389.53 399.11M389.53 399.11L390.16 398.45M390.16 398.45L390.48 397.79"
fill="none" stroke="black" stroke-width="0.5"/>
<path d="M329.58 351.74L333.09 347.12M333.09 351.74L329.58 347.12M335 346.13L335.63 345.8M335.63 345.8L336.59 344.81M336.59 344.81L336.59 351.74"
fill="none" stroke="black" stroke-width="0.5"/>
<path d="M342.38 352.22L345.89 347.6M345.89 352.22L342.38 347.6M348.12 346.94L348.12 346.61M348.12 346.61L348.43 345.95M348.43 345.95L348.75 345.62M348.75 345.62L349.39 345.29M349.39 345.29L350.66 345.29M350.66 345.29L351.3 345.62M351.3 345.62L351.62 345.95M351.62 345.95L351.94 346.61M351.94 346.61L351.94 347.27M351.94 347.27L351.62 347.93M351.62 347.93L350.98 348.92M350.98 348.92L347.8 352.22M347.8 352.22L352.26 352.22"
fill="none" stroke="black" stroke-width="0.5"/>
<path d="M302.85 344.46L302.22 343.8M302.22 343.8L301.26 343.47M301.26 343.47L299.99 343.47M299.99 343.47L299.03 343.8M299.03 343.8L298.39 344.46M298.39 344.46L298.39 345.12M298.39 345.12L298.71 345.78M298.71 345.78L299.03 346.11M299.03 346.11L299.67 346.44M299.67 346.44L301.58 347.1M301.58 347.1L302.22 347.43M302.22 347.43L302.54 347.76M302.54 347.76L302.85 348.42M302.85 348.42L302.85 349.41M302.85 349.41L302.22 350.07M302.22 350.07L301.26 350.4M301.26 350.4L299.99 350.4M299.99 350.4L299.03 350.07M299.03 350.07L298.39 349.41M304.77 350.4L307.31 343.47M307.31 343.47L309.86 350.4M305.72 348.09L308.91 348.09M312.41 343.47L315.91 343.47M315.91 343.47L314 346.11M314 346.11L314.96 346.11M314.96 346.11L315.6 346.44M315.6 346.44L315.91 346.77M315.91 346.77L316.23 347.76M316.23 347.76L316.23 348.42M316.23 348.42L315.91 349.41M315.91 349.41L315.28 350.07M315.28 350.07L314.32 350.4M314.32 350.4L313.37 350.4M313.37 350.4L312.41 350.07M312.41 350.07L312.09 349.74M312.09 349.74L311.77 349.08"
fill="none" stroke="black" stroke-width="0.5"/>
<path d="M302.85 277.65L302.22 276.99M302.22 276.99L301.26 276.66M301.26 276.66L299.99 276.66M299.99 276.66L299.03 276.99M299.03 276.99L298.39 277.65M298.39 277.65L298.39 278.31M298.39 278.31L298.71 278.97M298.71 278.97L299.03 279.3M299.03 279.3L299.67 279.63M299.67 279.63L301.58 280.29M301.58 280.29L302.22 280.62M302.22 280.62L302.54 280.95M302.54 280.95L302.85 281.61M302.85 281.61L302.85 282.6M302.85 282.6L302.22 283.26M302.22 283.26L301.26 283.59M301.26 283.59L299.99 283.59M299.99 283.59L299.03 283.26M299.03 283.26L298.39 282.6M304.77 283.59L307.31 276.66M307.31 276.66L309.86 283.59M305.72 281.28L308.91 281.28M311.77 277.98L312.41 277.65M312.41 277.65L313.37 276.66M313.37 276.66L313.37 283.59"
fill="none" stroke="black" stroke-width="0.5"/>
<path d="M192.04 594.12L192.04 5.88"
fill="none" stroke="black" stroke-width="0.5"/>
<path d="M192.04 5.88L607.96 5.88"
fill="none" stroke="black" stroke-width="0.5"/>
<path d="M607.96 5.88L607.96 594.12"
fill="none" stroke="black" stroke-width="0.5"/>
<path d="M607.96 594.12L192.04 594.12"
fill="none" stroke="black" stroke-width="0.5"/>
</svg>
