<?xml version="1.0" encoding="UTF-8"?>
<svg xmlns="http://www.w3.org/2000/svg" width="800.000" height="600.000" viewBox="0.0 0.0 800.000 600.000" version="1.1">
  <title>Produce by Acme CAD Converter</title>
  <desc>Produce by Acme CAD Converter</desc>
<path d="M460.01 168.38L460.01 167.79 457.52 165.3 460.01 168.38Z"
fill-rule="evenodd" fill="black"/>
<path d="M460.01 167.79L460.01 167.34 457.52 165.3 460.01 167.79Z"
fill-rule="evenodd" fill="black"/>
<path d="M460.01 168.38L460.31 168.08 460.01 167.79 460.01 168.38Z"
fill-rule="evenodd" fill="black"/>
<path d="M460.01 167.79L460.31 168.08 460.01 167.34 460.01 167.79Z"
fill-rule="evenodd" fill="black"/>
<path d="M460.31 168.08L460.31 167.58 460.01 167.34 460.31 168.08Z"
fill-rule="evenodd" fill="black"/>
<path d="M460.31 168.08L460.58 167.81 460.31 167.58 460.31 168.08Z"
fill-rule="evenodd" fill="black"/>
<path d="M458.87 169.41L458.87 168.83 456.38 166.33 458.87 169.41Z"
fill-rule="evenodd" fill="black"/>
<path d="M458.87 168.83L458.87 168.38 456.38 166.33 458.87 168.83Z"
fill-rule="evenodd" fill="black"/>
<path d="M458.87 169.41L459.17 169.12 458.87 168.83 458.87 169.41Z"
fill-rule="evenodd" fill="black"/>
<path d="M458.87 168.83L459.17 169.12 458.87 168.38 458.87 168.83Z"
fill-rule="evenodd" fill="black"/>
<path d="M459.17 169.12L459.17 168.62 458.87 168.38 459.17 169.12Z"
fill-rule="evenodd" fill="black"/>
<path d="M459.17 169.12L459.44 168.85 459.17 168.62 459.17 169.12Z"
fill-rule="evenodd" fill="black"/>
<path d="M488.06 168.38L488.06 167.79 485.57 165.3 488.06 168.38Z"
fill-rule="evenodd" fill="black"/>
<path d="M488.06 167.79L488.06 167.34 485.57 165.3 488.06 167.79Z"
fill-rule="evenodd" fill="black"/>
<path d="M488.06 168.38L488.35 168.08 488.06 167.79 488.06 168.38Z"
fill-rule="evenodd" fill="black"/>
<path d="M488.06 167.79L488.35 168.08 488.06 167.34 488.06 167.79Z"
fill-rule="evenodd" fill="black"/>
<path d="M488.35 168.08L488.35 167.58 488.06 167.34 488.35 168.08Z"
fill-rule="evenodd" fill="black"/>
<path d="M488.35 168.08L488.63 167.81 488.35 167.58 488.35 168.08Z"
fill-rule="evenodd" fill="black"/>
<path d="M486.92 169.41L486.92 168.83 484.43 166.33 486.92 169.41Z"
fill-rule="evenodd" fill="black"/>
<path d="M486.92 168.83L486.92 168.38 484.43 166.33 486.92 168.83Z"
fill-rule="evenodd" fill="black"/>
<path d="M486.92 169.41L487.21 169.12 486.92 168.83 486.92 169.41Z"
fill-rule="evenodd" fill="black"/>
<path d="M486.92 168.83L487.21 169.12 486.92 168.38 486.92 168.83Z"
fill-rule="evenodd" fill="black"/>
<path d="M487.21 169.12L487.21 168.62 486.92 168.38 487.21 169.12Z"
fill-rule="evenodd" fill="black"/>
<path d="M487.21 169.12L487.49 168.85 487.21 168.62 487.21 169.12Z"
fill-rule="evenodd" fill="black"/>
<path d="M347.29 277.96L347.29 276.56 347 277.26 347.29 277.96Z"
fill-rule="evenodd" fill="black"/>
<path d="M347.29 277.96L347.99 278.25 347.29 276.56 347.29 277.96Z"
fill-rule="evenodd" fill="black"/>
<path d="M347.99 278.25L347.99 276.27 347.29 276.56 347.99 278.25Z"
fill-rule="evenodd" fill="black"/>
<path d="M347.99 278.25L348.69 277.96 347.99 276.27 347.99 278.25Z"
fill-rule="evenodd" fill="black"/>
<path d="M348.69 277.96L348.69 276.56 347.99 276.27 348.69 277.96Z"
fill-rule="evenodd" fill="black"/>
<path d="M348.69 277.96L348.98 277.26 348.69 276.56 348.69 277.96Z"
fill-rule="evenodd" fill="black"/>
<path d="M410.35 237.82L410.35 236.42 410.06 237.12 410.35 237.82Z"
fill-rule="evenodd" fill="black"/>
<path d="M410.35 237.82L411.05 238.11 410.35 236.42 410.35 237.82Z"
fill-rule="evenodd" fill="black"/>
<path d="M411.05 238.11L411.05 236.13 410.35 236.42 411.05 238.11Z"
fill-rule="evenodd" fill="black"/>
<path d="M411.05 238.11L411.75 237.82 411.05 236.13 411.05 238.11Z"
fill-rule="evenodd" fill="black"/>
<path d="M411.75 237.82L411.75 236.42 411.05 236.13 411.75 237.82Z"
fill-rule="evenodd" fill="black"/>
<path d="M411.75 237.82L412.04 237.12 411.75 236.42 411.75 237.82Z"
fill-rule="evenodd" fill="black"/>
<path d="M468.48 209.39L468.48 204.24"
fill="none" stroke="black" stroke-width="0.5"/>
<path d="M463.51 204.24L473.41 204.24"
fill="none" stroke="black" stroke-width="0.5"/>
<path d="M473.41 204.24L473.41 178.49"
fill="none" stroke="black" stroke-width="0.5"/>
<path d="M473.41 178.49L463.51 178.49"
fill="none" stroke="black" stroke-width="0.5"/>
<path d="M463.51 178.49L463.51 204.24"
fill="none" stroke="black" stroke-width="0.5"/>
<path d="M468.48 178.49L468.48 172.55"
fill="none" stroke="black" stroke-width="0.5"/>
<path d="M463.51 172.55L473.41 172.55"
fill="none" stroke="black" stroke-width="0.5"/>
<path d="M473.41 172.55L468.48 166.45"
fill="none" stroke="black" stroke-width="0.5"/>
<path d="M468.48 166.45L463.51 172.55"
fill="none" stroke="black" stroke-width="0.5"/>
<path d="M468.48 172.55L468.48 160.66"
fill="none" stroke="black" stroke-width="0.5"/>
<path d="M463.51 166.61L473.41 166.61"
fill="none" stroke="black" stroke-width="0.5"/>
<path d="M463.51 160.66L473.41 160.66"
fill="none" stroke="blue" stroke-width="0.5"/>
<path d="M461.72 169.5L457.52 165.3"
fill="none" stroke="blue" stroke-width="0.5"/>
<path d="M457.52 165.3L460.58 167.81"
fill="none" stroke="blue" stroke-width="0.5"/>
<path d="M457.52 165.3L460.01 168.38"
fill="none" stroke="blue" stroke-width="0.5"/>
<path d="M460.58 167.81L460.01 168.38"
fill="none" stroke="blue" stroke-width="0.5"/>
<path d="M460.58 170.54L456.38 166.33"
fill="none" stroke="blue" stroke-width="0.5"/>
<path d="M456.38 166.33L459.44 168.85"
fill="none" stroke="blue" stroke-width="0.5"/>
<path d="M456.38 166.33L458.87 169.41"
fill="none" stroke="blue" stroke-width="0.5"/>
<path d="M459.44 168.85L458.87 169.41"
fill="none" stroke="blue" stroke-width="0.5"/>
<path d="M335.78 329.78L353.61 329.78"
fill="none" stroke="black" stroke-width="0.5"/>
<path d="M362.35 329.78L372.26 329.78"
fill="none" stroke="black" stroke-width="0.5"/>
<path d="M362.35 329.78L353.61 325.83"
fill="none" stroke="black" stroke-width="0.5"/>
<path d="M357.98 327.81L357.98 324.07"
fill="none" stroke="black" stroke-width="0.5"/>
<path d="M359.47 328.48L359.47 324.07"
fill="none" stroke="black" stroke-width="0.5"/>
<path d="M356.52 324.07L361.5 324.07"
fill="none" stroke="black" stroke-width="0.5"/>
<path d="M361.5 324.07L361.5 324.92"
fill="none" stroke="black" stroke-width="0.5"/>
<path d="M356.52 324.07L356.52 324.92"
fill="none" stroke="black" stroke-width="0.5"/>
<path d="M372.26 324.92L372.26 334.82"
fill="none" stroke="blue" stroke-width="0.5"/>
<path d="M406.11 240.99L406.47 240.99 406.47 273.92 406.11 273.92 406.11 240.99Z"
fill-rule="evenodd" fill="black"/>
<path d="M406.47 273.92L406.11 273.92 406.11 229.89 406.47 229.53 406.47 273.92Z"
fill-rule="evenodd" fill="black"/>
<path d="M406.47 229.53L406.11 229.89 358.93 229.89 358.57 229.53 406.47 229.53Z"
fill-rule="evenodd" fill="black"/>
<path d="M358.57 229.53L358.93 229.89 358.93 234.3 358.57 234.3 358.57 229.53Z"
fill-rule="evenodd" fill="black"/>
<path d="M406.11 280.6L406.47 280.6 406.47 287.33 406.11 286.97 406.11 280.6Z"
fill-rule="evenodd" fill="black"/>
<path d="M406.11 286.97L406.47 287.33 358.57 287.33 358.93 286.97 406.11 286.97Z"
fill-rule="evenodd" fill="black"/>
<path d="M358.93 286.97L358.57 287.33 358.57 280.6 358.93 280.6 358.93 286.97Z"
fill-rule="evenodd" fill="black"/>
<path d="M372.22 229.71L372.22 287.15"
fill="none" stroke="black" stroke-width="0.5"/>
<path d="M358.93 234.3L358.57 234.3 358.57 229.53 358.93 229.89 358.93 234.3Z"
fill-rule="evenodd" fill="black"/>
<path d="M358.93 229.89L358.57 229.53 406.47 229.53 406.11 229.89 358.93 229.89Z"
fill-rule="evenodd" fill="black"/>
<path d="M406.11 229.89L406.47 229.53 406.47 234.3 406.11 234.3 406.11 229.89Z"
fill-rule="evenodd" fill="black"/>
<path d="M358.57 240.99L358.93 240.99 358.93 273.92 358.57 273.92 358.57 240.99Z"
fill-rule="evenodd" fill="black"/>
<path d="M358.57 280.6L358.93 280.6 358.93 286.97 358.57 287.33 358.57 280.6Z"
fill-rule="evenodd" fill="black"/>
<path d="M358.57 287.33L358.93 286.97 406.11 286.97 406.47 287.33 358.57 287.33Z"
fill-rule="evenodd" fill="black"/>
<path d="M406.47 287.33L406.11 286.97 406.11 280.6 406.47 280.6 406.47 287.33Z"
fill-rule="evenodd" fill="black"/>
<path d="M358.93 273.92L358.57 273.92 358.57 240.99 358.93 240.99 358.93 273.92Z"
fill-rule="evenodd" fill="black"/>
<path d="M411.05 237.12L406.29 237.12"
fill="none" stroke="black" stroke-width="0.5"/>
<path d="M358.75 273.92L358.75 280.6"
fill="none" stroke="black" stroke-width="0.5"/>
<path d="M358.75 234.3L358.75 240.99"
fill="none" stroke="black" stroke-width="0.5"/>
<path d="M491.55 204.24L501.45 204.24"
fill="none" stroke="black" stroke-width="0.5"/>
<path d="M501.45 204.24L501.45 178.49"
fill="none" stroke="black" stroke-width="0.5"/>
<path d="M501.45 178.49L491.55 178.49"
fill="none" stroke="black" stroke-width="0.5"/>
<path d="M491.55 178.49L491.55 204.24"
fill="none" stroke="black" stroke-width="0.5"/>
<path d="M496.53 178.49L496.53 172.55"
fill="none" stroke="black" stroke-width="0.5"/>
<path d="M491.55 172.55L501.45 172.55"
fill="none" stroke="black" stroke-width="0.5"/>
<path d="M501.45 172.55L496.53 166.45"
fill="none" stroke="black" stroke-width="0.5"/>
<path d="M496.53 166.45L491.55 172.55"
fill="none" stroke="black" stroke-width="0.5"/>
<path d="M496.53 172.55L496.53 160.66"
fill="none" stroke="black" stroke-width="0.5"/>
<path d="M491.55 166.61L501.45 166.61"
fill="none" stroke="black" stroke-width="0.5"/>
<path d="M491.55 160.66L501.45 160.66"
fill="none" stroke="blue" stroke-width="0.5"/>
<path d="M489.77 169.5L485.57 165.3"
fill="none" stroke="blue" stroke-width="0.5"/>
<path d="M485.57 165.3L488.63 167.81"
fill="none" stroke="blue" stroke-width="0.5"/>
<path d="M485.57 165.3L488.06 168.38"
fill="none" stroke="blue" stroke-width="0.5"/>
<path d="M488.63 167.81L488.06 168.38"
fill="none" stroke="blue" stroke-width="0.5"/>
<path d="M488.63 170.54L484.43 166.33"
fill="none" stroke="blue" stroke-width="0.5"/>
<path d="M484.43 166.33L487.49 168.85"
fill="none" stroke="blue" stroke-width="0.5"/>
<path d="M484.43 166.33L486.92 169.41"
fill="none" stroke="blue" stroke-width="0.5"/>
<path d="M487.49 168.85L486.92 169.41"
fill="none" stroke="blue" stroke-width="0.5"/>
<path d="M496.5 225.76L496.5 204.24"
fill="none" stroke="black" stroke-width="0.5"/>
<path d="M496.5 217.31L496.5 225.76"
fill="none" stroke="black" stroke-width="0.5"/>
<path d="M311.31 266.74L339.04 266.74"
fill="none" stroke="black" stroke-width="0.5"/>
<path d="M339.04 266.74L339.04 294.47"
fill="none" stroke="black" stroke-width="0.5"/>
<path d="M339.04 294.47L311.31 294.47"
fill="none" stroke="black" stroke-width="0.5"/>
<path d="M311.31 294.47L311.31 266.74"
fill="none" stroke="black" stroke-width="0.5"/>
<path d="M358.75 277.26L357.35 278.66"
fill="none" stroke="black" stroke-width="0.5"/>
<path d="M358.75 277.26L360.15 275.86"
fill="none" stroke="black" stroke-width="0.5"/>
<path d="M311.31 277.26L301.41 277.26"
fill="none" stroke="black" stroke-width="0.5"/>
<path d="M301.41 277.26L301.41 326.77"
fill="none" stroke="black" stroke-width="0.5"/>
<path d="M301.41 326.77L301.41 329.78"
fill="none" stroke="black" stroke-width="0.5"/>
<path d="M301.41 329.78L335.78 329.78"
fill="none" stroke="black" stroke-width="0.5"/>
<path d="M311.31 277.26L312.71 278.66"
fill="none" stroke="black" stroke-width="0.5"/>
<path d="M311.31 277.26L309.91 275.86"
fill="none" stroke="black" stroke-width="0.5"/>
<path d="M322.87 277.96L325.17 277.96"
fill="none" stroke="blue" stroke-width="0.5"/>
<path d="M325.17 277.96L325.17 272.02"
fill="none" stroke="blue" stroke-width="0.5"/>
<path d="M325.17 272.02L327.15 272.02"
fill="none" stroke="blue" stroke-width="0.5"/>
<path d="M327.15 272.02L327.15 277.96"
fill="none" stroke="blue" stroke-width="0.5"/>
<path d="M327.15 277.96L329.14 277.96"
fill="none" stroke="blue" stroke-width="0.5"/>
<path d="M358.75 237.65L329.14 237.65"
fill="none" stroke="black" stroke-width="0.5"/>
<path d="M323.21 235.67L329.14 237.65"
fill="none" stroke="black" stroke-width="0.5"/>
<path d="M323.21 237.65L319.24 237.65"
fill="none" stroke="black" stroke-width="0.5"/>
<path d="M319.24 233.87L319.24 241.79"
fill="none" stroke="blue" stroke-width="0.5"/>
<path d="M406.29 273.92L406.29 280.6"
fill="none" stroke="black" stroke-width="0.5"/>
<path d="M483.45 240.99L483.81 240.99 483.81 273.92 483.45 273.92 483.45 240.99Z"
fill-rule="evenodd" fill="black"/>
<path d="M483.81 273.92L483.45 273.92 483.45 229.89 483.81 229.53 483.81 273.92Z"
fill-rule="evenodd" fill="black"/>
<path d="M483.81 229.53L483.45 229.89 436.27 229.89 435.91 229.53 483.81 229.53Z"
fill-rule="evenodd" fill="black"/>
<path d="M435.91 229.53L436.27 229.89 436.27 234.3 435.91 234.3 435.91 229.53Z"
fill-rule="evenodd" fill="black"/>
<path d="M483.45 280.6L483.81 280.6 483.81 287.33 483.45 286.97 483.45 280.6Z"
fill-rule="evenodd" fill="black"/>
<path d="M483.45 286.97L483.81 287.33 435.91 287.33 436.27 286.97 483.45 286.97Z"
fill-rule="evenodd" fill="black"/>
<path d="M436.27 286.97L435.91 287.33 435.91 280.6 436.27 280.6 436.27 286.97Z"
fill-rule="evenodd" fill="black"/>
<path d="M449.56 229.71L449.56 287.15"
fill="none" stroke="black" stroke-width="0.5"/>
<path d="M436.27 234.3L435.91 234.3 435.91 229.53 436.27 229.89 436.27 234.3Z"
fill-rule="evenodd" fill="black"/>
<path d="M436.27 229.89L435.91 229.53 483.81 229.53 483.45 229.89 436.27 229.89Z"
fill-rule="evenodd" fill="black"/>
<path d="M483.45 229.89L483.81 229.53 483.81 234.3 483.45 234.3 483.45 229.89Z"
fill-rule="evenodd" fill="black"/>
<path d="M435.91 240.99L436.27 240.99 436.27 273.92 435.91 273.92 435.91 240.99Z"
fill-rule="evenodd" fill="black"/>
<path d="M435.91 280.6L436.27 280.6 436.27 286.97 435.91 287.33 435.91 280.6Z"
fill-rule="evenodd" fill="black"/>
<path d="M435.91 287.33L436.27 286.97 483.45 286.97 483.81 287.33 435.91 287.33Z"
fill-rule="evenodd" fill="black"/>
<path d="M483.81 287.33L483.45 286.97 483.45 280.6 483.81 280.6 483.81 287.33Z"
fill-rule="evenodd" fill="black"/>
<path d="M436.27 273.92L435.91 273.92 435.91 240.99 436.27 240.99 436.27 273.92Z"
fill-rule="evenodd" fill="black"/>
<path d="M488.39 237.12L483.63 237.12"
fill="none" stroke="black" stroke-width="0.5"/>
<path d="M436.09 273.92L436.09 280.6"
fill="none" stroke="black" stroke-width="0.5"/>
<path d="M436.09 234.3L436.09 240.99"
fill="none" stroke="black" stroke-width="0.5"/>
<path d="M483.63 273.92L483.63 280.6"
fill="none" stroke="black" stroke-width="0.5"/>
<path d="M411.05 237.12L411.05 217.31"
fill="none" stroke="black" stroke-width="0.5"/>
<path d="M411.05 217.31L468.48 217.31"
fill="none" stroke="black" stroke-width="0.5"/>
<path d="M468.48 217.31L468.48 209.39"
fill="none" stroke="black" stroke-width="0.5"/>
<path d="M488.39 237.12L496.5 237.12"
fill="none" stroke="black" stroke-width="0.5"/>
<path d="M496.5 237.12L496.5 225.76"
fill="none" stroke="black" stroke-width="0.5"/>
<path d="M358.75 277.26L339.04 277.26"
fill="none" stroke="black" stroke-width="0.5"/>
<path d="M426.09 276.56L436.09 276.56"
fill="none" stroke="black" stroke-width="0.5"/>
<path d="M436.09 276.56L437.49 275.16"
fill="none" stroke="black" stroke-width="0.5"/>
<path d="M436.09 276.56L434.69 277.96"
fill="none" stroke="black" stroke-width="0.5"/>
<path d="M347.99 277.26L347.99 293.1"
fill="none" stroke="black" stroke-width="0.5"/>
<path d="M347.99 293.1L426.09 293.1"
fill="none" stroke="black" stroke-width="0.5"/>
<path d="M426.09 293.1L426.09 276.56"
fill="none" stroke="black" stroke-width="0.5"/>
<path d="M411.05 237.12L416.99 237.12"
fill="none" stroke="black" stroke-width="0.5"/>
<path d="M425.23 237.12L436.09 237.12"
fill="none" stroke="black" stroke-width="0.5"/>
<path d="M416.99 237.12L417.16 236.4M417.16 236.4L417.65 235.85M417.65 235.85L418.34 235.59M418.34 235.59L419.06 235.68M419.06 235.68L419.67 236.1M419.67 236.1L420.01 236.75M420.01 236.75L420.01 237.48M420.01 237.48L419.67 238.13M419.67 238.13L419.06 238.55M419.06 238.55L418.34 238.64M418.34 238.64L417.65 238.38M417.65 238.38L417.16 237.83M417.16 237.83L416.99 237.12"
fill="none" stroke="black" stroke-width="0.5"/>
<path d="M422.16 237.12L422.34 236.4M422.34 236.4L422.82 235.85M422.82 235.85L423.51 235.59M423.51 235.59L424.24 235.68M424.24 235.68L424.84 236.1M424.84 236.1L425.18 236.75M425.18 236.75L425.18 237.48M425.18 237.48L424.84 238.13M424.84 238.13L424.24 238.55M424.24 238.55L423.51 238.64M423.51 238.64L422.82 238.38M422.82 238.38L422.34 237.83M422.34 237.83L422.16 237.12"
fill="none" stroke="black" stroke-width="0.5"/>
<path d="M410.06 237.12L410.24 236.54M410.24 236.54L410.74 236.18M410.74 236.18L411.35 236.18M411.35 236.18L411.85 236.54M411.85 236.54L412.04 237.12M412.04 237.12L411.85 237.7M411.85 237.7L411.35 238.06M411.35 238.06L410.74 238.06M410.74 238.06L410.24 237.7M410.24 237.7L410.06 237.12"
fill="none" stroke="blue" stroke-width="0.5"/>
<path d="M347 277.26L347.19 276.68M347.19 276.68L347.68 276.32M347.68 276.32L348.29 276.32M348.29 276.32L348.79 276.68M348.79 276.68L348.98 277.26M348.98 277.26L348.79 277.84M348.79 277.84L348.29 278.2M348.29 278.2L347.68 278.2M347.68 278.2L347.19 277.84M347.19 277.84L347 277.26"
fill="none" stroke="blue" stroke-width="0.5"/>
<path d="M462.61 155.11L462.61 148.18M467.07 148.18L467.07 155.11M462.61 151.48L467.07 151.48M469.62 148.18L469.62 155.11M469.62 155.11L473.44 155.11M475.04 149.5L475.67 149.17M475.67 149.17L476.63 148.18M476.63 148.18L476.63 155.11"
fill="none" stroke="black" stroke-width="0.5"/>
<path d="M384.38 323.84L383.74 323.18M383.74 323.18L382.78 322.85M382.78 322.85L381.51 322.85M381.51 322.85L380.55 323.18M380.55 323.18L379.92 323.84M379.92 323.84L379.92 324.5M379.92 324.5L380.24 325.16M380.24 325.16L380.55 325.49M380.55 325.49L381.19 325.82M381.19 325.82L383.1 326.48M383.1 326.48L383.74 326.81M383.74 326.81L384.06 327.14M384.06 327.14L384.38 327.8M384.38 327.8L384.38 328.79M384.38 328.79L383.74 329.45M383.74 329.45L382.78 329.78M382.78 329.78L381.51 329.78M381.51 329.78L380.55 329.45M380.55 329.45L379.92 328.79M386.29 329.78L386.29 322.85M386.29 322.85L389.16 322.85M389.16 322.85L390.11 323.18M390.11 323.18L390.43 323.51M390.43 323.51L390.75 324.17M390.75 324.17L390.75 324.83M390.75 324.83L390.43 325.49M390.43 325.49L390.11 325.82M390.11 325.82L389.16 326.15M386.29 326.15L389.16 326.15M389.16 326.15L390.11 326.48M390.11 326.48L390.43 326.81M390.43 326.81L390.75 327.47M390.75 327.47L390.75 328.46M390.75 328.46L390.43 329.12M390.43 329.12L390.11 329.45M390.11 329.45L389.16 329.78M389.16 329.78L386.29 329.78M392.98 324.17L393.61 323.84M393.61 323.84L394.57 322.85M394.57 322.85L394.57 329.78"
fill="none" stroke="black" stroke-width="0.5"/>
<path d="M385.9 281.13L385.9 274.2M385.9 274.2L388.13 274.2M388.13 274.2L389.09 274.53M389.09 274.53L389.72 275.19M389.72 275.19L390.04 275.85M390.04 275.85L390.36 276.84M390.36 276.84L390.36 278.49M390.36 278.49L390.04 279.48M390.04 279.48L389.72 280.14M389.72 280.14L389.09 280.8M389.09 280.8L388.13 281.13M388.13 281.13L385.9 281.13M393.23 274.2L396.73 274.2M396.73 274.2L394.82 276.84M394.82 276.84L395.78 276.84M395.78 276.84L396.41 277.17M396.41 277.17L396.73 277.5M396.73 277.5L397.05 278.49M397.05 278.49L397.05 279.15M397.05 279.15L396.73 280.14M396.73 280.14L396.1 280.8M396.1 280.8L395.14 281.13M395.14 281.13L394.18 281.13M394.18 281.13L393.23 280.8M393.23 280.8L392.91 280.47M392.91 280.47L392.59 279.81M399.28 280.47L398.96 280.8M398.96 280.8L399.28 281.13M399.28 281.13L399.6 280.8M402.15 275.52L402.78 275.19M402.78 275.19L403.74 274.2M403.74 274.2L403.74 281.13"
fill="none" stroke="black" stroke-width="0.5"/>
<path d="M388.71 230.71L388.71 237.65M386.48 230.71L390.94 230.71"
fill="none" stroke="black" stroke-width="0.5"/>
<path d="M362.76 241.1L362.76 234.17M362.76 234.17L364.99 234.17M364.99 234.17L365.94 234.5M365.94 234.5L366.58 235.16M366.58 235.16L366.9 235.82M366.9 235.82L367.22 236.81M367.22 236.81L367.22 238.46M367.22 238.46L366.9 239.45M366.9 239.45L366.58 240.11M366.58 240.11L365.94 240.77M365.94 240.77L364.99 241.1M364.99 241.1L362.76 241.1"
fill="none" stroke="black" stroke-width="0.5"/>
<path d="M368.6 275.32L368.28 274.66M368.28 274.66L367.64 274M367.64 274L367 273.67M367 273.67L365.73 273.67M365.73 273.67L365.09 274M365.09 274L364.46 274.66M364.46 274.66L364.14 275.32M364.14 275.32L363.82 276.31M363.82 276.31L363.82 277.96M363.82 277.96L364.14 278.95M364.14 278.95L364.46 279.61M364.46 279.61L365.09 280.27M365.09 280.27L365.73 280.6M365.73 280.6L367 280.6M367 280.6L367.64 280.27M367.64 280.27L368.28 279.61M368.28 279.61L368.6 278.95"
fill="none" stroke="black" stroke-width="0.5"/>
<path d="M491.37 155.22L491.37 148.29M495.83 148.29L495.83 155.22M491.37 151.59L495.83 151.59M498.37 148.29L498.37 155.22M498.37 155.22L502.2 155.22M504.11 149.94L504.11 149.61M504.11 149.61L504.43 148.95M504.43 148.95L504.75 148.62M504.75 148.62L505.38 148.29M505.38 148.29L506.66 148.29M506.66 148.29L507.29 148.62M507.29 148.62L507.61 148.95M507.61 148.95L507.93 149.61M507.93 149.61L507.93 150.27M507.93 150.27L507.61 150.93M507.61 150.93L506.98 151.92M506.98 151.92L503.79 155.22M503.79 155.22L508.25 155.22"
fill="none" stroke="black" stroke-width="0.5"/>
<path d="M318.79 277.96L318.79 271.03M318.79 271.03L322.93 271.03M318.79 274.33L321.34 274.33"
fill="none" stroke="black" stroke-width="0.5"/>
<path d="M333.59 226.15L332.96 225.49M332.96 225.49L332 225.16M332 225.16L330.73 225.16M330.73 225.16L329.77 225.49M329.77 225.49L329.14 226.15M329.14 226.15L329.14 226.81M329.14 226.81L329.45 227.47M329.45 227.47L329.77 227.8M329.77 227.8L330.41 228.13M330.41 228.13L332.32 228.79M332.32 228.79L332.96 229.12M332.96 229.12L333.28 229.45M333.28 229.45L333.59 230.11M333.59 230.11L333.59 231.1M333.59 231.1L332.96 231.76M332.96 231.76L332 232.09M332 232.09L330.73 232.09M330.73 232.09L329.77 231.76M329.77 231.76L329.14 231.1M335.51 232.09L338.05 225.16M338.05 225.16L340.6 232.09M336.46 229.78L339.65 229.78M342.51 226.48L343.15 226.15M343.15 226.15L344.11 225.16M344.11 225.16L344.11 232.09"
fill="none" stroke="black" stroke-width="0.5"/>
<path d="M463.24 281.13L463.24 274.2M463.24 274.2L465.47 274.2M465.47 274.2L466.43 274.53M466.43 274.53L467.07 275.19M467.07 275.19L467.38 275.85M467.38 275.85L467.7 276.84M467.7 276.84L467.7 278.49M467.7 278.49L467.38 279.48M467.38 279.48L467.07 280.14M467.07 280.14L466.43 280.8M466.43 280.8L465.47 281.13M465.47 281.13L463.24 281.13M470.57 274.2L474.07 274.2M474.07 274.2L472.16 276.84M472.16 276.84L473.12 276.84M473.12 276.84L473.75 277.17M473.75 277.17L474.07 277.5M474.07 277.5L474.39 278.49M474.39 278.49L474.39 279.15M474.39 279.15L474.07 280.14M474.07 280.14L473.44 280.8M473.44 280.8L472.48 281.13M472.48 281.13L471.52 281.13M471.52 281.13L470.57 280.8M470.57 280.8L470.25 280.47M470.25 280.47L469.93 279.81M476.62 280.47L476.3 280.8M476.3 280.8L476.62 281.13M476.62 281.13L476.94 280.8M479.81 275.85L479.81 275.52M479.81 275.52L480.13 274.86M480.13 274.86L480.44 274.53M480.44 274.53L481.08 274.2M481.08 274.2L482.36 274.2M482.36 274.2L482.99 274.53M482.99 274.53L483.31 274.86M483.31 274.86L483.63 275.52M483.63 275.52L483.63 276.18M483.63 276.18L483.31 276.84M483.31 276.84L482.67 277.83M482.67 277.83L479.49 281.13M479.49 281.13L483.95 281.13"
fill="none" stroke="black" stroke-width="0.5"/>
<path d="M466.05 230.71L466.05 237.65M463.82 230.71L468.28 230.71"
fill="none" stroke="black" stroke-width="0.5"/>
<path d="M440.1 241.1L440.1 234.17M440.1 234.17L442.33 234.17M442.33 234.17L443.28 234.5M443.28 234.5L443.92 235.16M443.92 235.16L444.24 235.82M444.24 235.82L444.56 236.81M444.56 236.81L444.56 238.46M444.56 238.46L444.24 239.45M444.24 239.45L443.92 240.11M443.92 240.11L443.28 240.77M443.28 240.77L442.33 241.1M442.33 241.1L440.1 241.1"
fill="none" stroke="black" stroke-width="0.5"/>
<path d="M445.94 275.32L445.62 274.66M445.62 274.66L444.98 274M444.98 274L444.34 273.67M444.34 273.67L443.07 273.67M443.07 273.67L442.43 274M442.43 274L441.8 274.66M441.8 274.66L441.48 275.32M441.48 275.32L441.16 276.31M441.16 276.31L441.16 277.96M441.16 277.96L441.48 278.95M441.48 278.95L441.8 279.61M441.8 279.61L442.43 280.27M442.43 280.27L443.07 280.6M443.07 280.6L444.34 280.6M444.34 280.6L444.98 280.27M444.98 280.27L445.62 279.61M445.62 279.61L445.94 278.95"
fill="none" stroke="black" stroke-width="0.5"/>
<path d="M412.62 232.9L416.12 228.28M416.12 232.9L412.62 228.28M418.03 227.29L418.67 226.96M418.67 226.96L419.62 225.97M419.62 225.97L419.62 232.9"
fill="none" stroke="black" stroke-width="0.5"/>
<path d="M425.42 233.39L428.92 228.77M428.92 233.39L425.42 228.77M431.15 228.11L431.15 227.78M431.15 227.78L431.47 227.12M431.47 227.12L431.79 226.79M431.79 226.79L432.42 226.46M432.42 226.46L433.7 226.46M433.7 226.46L434.33 226.79M434.33 226.79L434.65 227.12M434.65 227.12L434.97 227.78M434.97 227.78L434.97 228.44M434.97 228.44L434.65 229.1M434.65 229.1L434.02 230.09M434.02 230.09L430.83 233.39M430.83 233.39L435.29 233.39"
fill="none" stroke="black" stroke-width="0.5"/>
<path d="M192.04 594.12L192.04 5.88"
fill="none" stroke="black" stroke-width="0.5"/>
<path d="M192.04 5.88L607.96 5.88"
fill="none" stroke="black" stroke-width="0.5"/>
<path d="M607.96 5.88L607.96 594.12"
fill="none" stroke="black" stroke-width="0.5"/>
<path d="M607.96 594.12L192.04 594.12"
fill="none" stroke="black" stroke-width="0.5"/>
</svg>
