<?xml version="1.0" encoding="UTF-8"?>
<svg xmlns="http://www.w3.org/2000/svg" width="800.000" height="600.000" viewBox="0.0 0.0 800.000 600.000" version="1.1">
  <title>Produce by Acme CAD Converter</title>
  <desc>Produce by Acme CAD Converter</desc>
<path d="M456.8 306.72L456.8 306.22 456.53 306.45 456.8 306.72Z"
fill-rule="evenodd" fill="black"/>
<path d="M457.1 307.02L457.1 306.43 456.8 306.72 457.1 307.02Z"
fill-rule="evenodd" fill="black"/>
<path d="M456.8 306.72L457.1 306.43 456.8 306.22 456.8 306.72Z"
fill-rule="evenodd" fill="black"/>
<path d="M457.1 306.43L457.1 305.98 456.8 306.22 457.1 306.43Z"
fill-rule="evenodd" fill="black"/>
<path d="M457.1 307.02L459.59 303.94 457.1 306.43 457.1 307.02Z"
fill-rule="evenodd" fill="black"/>
<path d="M457.1 306.43L459.59 303.94 457.1 305.98 457.1 306.43Z"
fill-rule="evenodd" fill="black"/>
<path d="M457.94 307.76L457.94 307.26 457.67 307.49 457.94 307.76Z"
fill-rule="evenodd" fill="black"/>
<path d="M458.23 308.05L458.23 307.47 457.94 307.76 458.23 308.05Z"
fill-rule="evenodd" fill="black"/>
<path d="M457.94 307.76L458.23 307.47 457.94 307.26 457.94 307.76Z"
fill-rule="evenodd" fill="black"/>
<path d="M458.23 307.47L458.23 307.02 457.94 307.26 458.23 307.47Z"
fill-rule="evenodd" fill="black"/>
<path d="M458.23 308.05L460.73 304.98 458.23 307.47 458.23 308.05Z"
fill-rule="evenodd" fill="black"/>
<path d="M458.23 307.47L460.73 304.98 458.23 307.02 458.23 307.47Z"
fill-rule="evenodd" fill="black"/>
<path d="M327.15 343.98L354.88 343.98"
fill="none" stroke="black" stroke-width="0.5"/>
<path d="M354.88 343.98L354.88 371.71"
fill="none" stroke="black" stroke-width="0.5"/>
<path d="M354.88 371.71L327.15 371.71"
fill="none" stroke="black" stroke-width="0.5"/>
<path d="M327.15 371.71L327.15 343.98"
fill="none" stroke="black" stroke-width="0.5"/>
<path d="M327.15 354.5L317.25 354.5"
fill="none" stroke="black" stroke-width="0.5"/>
<path d="M317.25 354.5L317.25 403.06"
fill="none" stroke="black" stroke-width="0.5"/>
<path d="M327.15 354.5L328.56 355.9"
fill="none" stroke="black" stroke-width="0.5"/>
<path d="M327.15 354.5L325.75 353.1"
fill="none" stroke="black" stroke-width="0.5"/>
<path d="M338.72 355.2L341.02 355.2"
fill="none" stroke="blue" stroke-width="0.5"/>
<path d="M341.02 355.2L341.02 349.26"
fill="none" stroke="blue" stroke-width="0.5"/>
<path d="M341.02 349.26L343 349.26"
fill="none" stroke="blue" stroke-width="0.5"/>
<path d="M343 349.26L343 355.2"
fill="none" stroke="blue" stroke-width="0.5"/>
<path d="M343 355.2L344.98 355.2"
fill="none" stroke="blue" stroke-width="0.5"/>
<path d="M431.95 359.82L432.31 359.82 432.31 392.75 431.95 392.75 431.95 359.82Z"
fill-rule="evenodd" fill="black"/>
<path d="M432.31 392.75L431.95 392.75 431.95 348.73 432.31 348.37 432.31 392.75Z"
fill-rule="evenodd" fill="black"/>
<path d="M432.31 348.37L431.95 348.73 384.78 348.73 384.42 348.37 432.31 348.37Z"
fill-rule="evenodd" fill="black"/>
<path d="M384.42 348.37L384.78 348.73 384.78 353.14 384.42 353.14 384.42 348.37Z"
fill-rule="evenodd" fill="black"/>
<path d="M431.95 399.44L432.31 399.44 432.31 406.16 431.95 405.81 431.95 399.44Z"
fill-rule="evenodd" fill="black"/>
<path d="M431.95 405.81L432.31 406.16 384.42 406.16 384.78 405.81 431.95 405.81Z"
fill-rule="evenodd" fill="black"/>
<path d="M384.78 405.81L384.42 406.16 384.42 399.44 384.78 399.44 384.78 405.81Z"
fill-rule="evenodd" fill="black"/>
<path d="M398.07 348.55L398.07 405.98"
fill="none" stroke="black" stroke-width="0.5"/>
<path d="M384.78 353.14L384.42 353.14 384.42 348.37 384.78 348.73 384.78 353.14Z"
fill-rule="evenodd" fill="black"/>
<path d="M384.78 348.73L384.42 348.37 432.31 348.37 431.95 348.73 384.78 348.73Z"
fill-rule="evenodd" fill="black"/>
<path d="M431.95 348.73L432.31 348.37 432.31 353.14 431.95 353.14 431.95 348.73Z"
fill-rule="evenodd" fill="black"/>
<path d="M384.42 359.82L384.78 359.82 384.78 392.75 384.42 392.75 384.42 359.82Z"
fill-rule="evenodd" fill="black"/>
<path d="M384.42 399.44L384.78 399.44 384.78 405.81 384.42 406.16 384.42 399.44Z"
fill-rule="evenodd" fill="black"/>
<path d="M384.42 406.16L384.78 405.81 431.95 405.81 432.31 406.16 384.42 406.16Z"
fill-rule="evenodd" fill="black"/>
<path d="M432.31 406.16L431.95 405.81 431.95 399.44 432.31 399.44 432.31 406.16Z"
fill-rule="evenodd" fill="black"/>
<path d="M384.78 392.75L384.42 392.75 384.42 359.82 384.78 359.82 384.78 392.75Z"
fill-rule="evenodd" fill="black"/>
<path d="M436.89 355.95L432.13 355.95"
fill="none" stroke="black" stroke-width="0.5"/>
<path d="M384.6 392.75L384.6 399.44"
fill="none" stroke="black" stroke-width="0.5"/>
<path d="M384.6 353.14L384.6 359.82"
fill="none" stroke="black" stroke-width="0.5"/>
<path d="M432.13 392.75L432.13 393.41"
fill="none" stroke="black" stroke-width="0.5"/>
<path d="M436.89 355.95L445.01 355.95"
fill="none" stroke="black" stroke-width="0.5"/>
<path d="M373.73 355.95L384.6 355.95"
fill="none" stroke="black" stroke-width="0.5"/>
<path d="M448.68 355.95L445.01 355.95"
fill="none" stroke="black" stroke-width="0.5"/>
<path d="M448.68 348.03L448.68 342.88"
fill="none" stroke="black" stroke-width="0.5"/>
<path d="M443.7 342.88L453.6 342.88"
fill="none" stroke="black" stroke-width="0.5"/>
<path d="M453.6 342.88L453.6 317.13"
fill="none" stroke="black" stroke-width="0.5"/>
<path d="M453.6 317.13L443.7 317.13"
fill="none" stroke="black" stroke-width="0.5"/>
<path d="M443.7 317.13L443.7 342.88"
fill="none" stroke="black" stroke-width="0.5"/>
<path d="M448.68 317.13L448.68 311.19"
fill="none" stroke="black" stroke-width="0.5"/>
<path d="M443.7 311.19L453.6 311.19"
fill="none" stroke="black" stroke-width="0.5"/>
<path d="M453.6 311.19L448.68 305.09"
fill="none" stroke="black" stroke-width="0.5"/>
<path d="M448.68 305.09L443.7 311.19"
fill="none" stroke="black" stroke-width="0.5"/>
<path d="M448.68 311.19L448.68 299.31"
fill="none" stroke="black" stroke-width="0.5"/>
<path d="M443.7 305.25L453.6 305.25"
fill="none" stroke="black" stroke-width="0.5"/>
<path d="M443.7 299.31L453.6 299.31"
fill="none" stroke="blue" stroke-width="0.5"/>
<path d="M448.68 355.95L448.68 348.03"
fill="none" stroke="black" stroke-width="0.5"/>
<path d="M384.6 355.95L386 354.55"
fill="none" stroke="black" stroke-width="0.5"/>
<path d="M384.6 355.95L383.2 357.35"
fill="none" stroke="black" stroke-width="0.5"/>
<path d="M466.77 395.39L455.03 395.39"
fill="none" stroke="black" stroke-width="0.5"/>
<path d="M434.11 395.39L442.83 395.39"
fill="none" stroke="black" stroke-width="0.5"/>
<path d="M442.83 395.39L443.01 394.68M443.01 394.68L443.49 394.13M443.49 394.13L444.18 393.87M444.18 393.87L444.91 393.96M444.91 393.96L445.51 394.38M445.51 394.38L445.86 395.03M445.86 395.03L445.86 395.76M445.86 395.76L445.51 396.41M445.51 396.41L444.91 396.83M444.91 396.83L444.18 396.92M444.18 396.92L443.49 396.66M443.49 396.66L443.01 396.11M443.01 396.11L442.83 395.39"
fill="none" stroke="black" stroke-width="0.5"/>
<path d="M451.97 395.39L452.14 394.68M452.14 394.68L452.63 394.13M452.63 394.13L453.32 393.87M453.32 393.87L454.04 393.96M454.04 393.96L454.65 394.38M454.65 394.38L454.99 395.03M454.99 395.03L454.99 395.76M454.99 395.76L454.65 396.41M454.65 396.41L454.04 396.83M454.04 396.83L453.32 396.92M453.32 396.92L452.63 396.66M452.63 396.66L452.14 396.11M452.14 396.11L451.97 395.39"
fill="none" stroke="black" stroke-width="0.5"/>
<path d="M430.15 395.39L430.35 394.53M430.35 394.53L430.9 393.85M430.9 393.85L431.69 393.46M431.69 393.46L432.57 393.46M432.57 393.46L433.37 393.85M433.37 393.85L433.92 394.53M433.92 394.53L434.11 395.39M434.11 395.39L433.92 396.25M433.92 396.25L433.37 396.94M433.37 396.94L432.57 397.32M432.57 397.32L431.69 397.32M431.69 397.32L430.9 396.94M430.9 396.94L430.35 396.25M430.35 396.25L430.15 395.39"
fill="none" stroke="blue" stroke-width="0.5"/>
<path d="M432.13 397.37L432.13 399.44"
fill="none" stroke="black" stroke-width="0.5"/>
<path d="M373.73 395.39L373.73 409.96"
fill="none" stroke="black" stroke-width="0.5"/>
<path d="M373.73 409.96L466.77 409.96"
fill="none" stroke="black" stroke-width="0.5"/>
<path d="M466.77 409.96L466.77 395.39"
fill="none" stroke="black" stroke-width="0.5"/>
<path d="M317.25 403.06L300.7 403.06"
fill="none" stroke="black" stroke-width="0.5"/>
<path d="M291.96 403.06L282.05 403.06"
fill="none" stroke="black" stroke-width="0.5"/>
<path d="M291.96 403.06L300.7 399.12"
fill="none" stroke="black" stroke-width="0.5"/>
<path d="M296.33 401.09L296.33 397.35"
fill="none" stroke="black" stroke-width="0.5"/>
<path d="M294.84 401.76L294.84 397.35"
fill="none" stroke="black" stroke-width="0.5"/>
<path d="M297.79 397.35L292.81 397.35"
fill="none" stroke="black" stroke-width="0.5"/>
<path d="M292.81 397.35L292.81 398.2"
fill="none" stroke="black" stroke-width="0.5"/>
<path d="M297.79 397.35L297.79 398.2"
fill="none" stroke="black" stroke-width="0.5"/>
<path d="M282.05 398.2L282.05 408.1"
fill="none" stroke="blue" stroke-width="0.5"/>
<path d="M373.73 395.39L383.2 395.39"
fill="none" stroke="black" stroke-width="0.5"/>
<path d="M383.2 395.39L384.6 395.39"
fill="none" stroke="black" stroke-width="0.5"/>
<path d="M373.73 355.95L354.88 355.95"
fill="none" stroke="black" stroke-width="0.5"/>
<path d="M444.37 393.86L444.45 393.86M444.45 393.86L444.53 393.86M444.53 393.86L444.62 393.86M444.62 393.86L444.7 393.86M444.7 393.86L444.78 393.86M444.78 393.86L444.86 393.86M444.86 393.86L444.94 393.87M444.94 393.87L445.01 393.87M445.01 393.87L445.09 393.87M445.09 393.87L445.16 393.87M445.16 393.87L445.24 393.87M445.24 393.87L445.31 393.88M445.31 393.88L445.38 393.88M445.38 393.88L445.45 393.88M445.45 393.88L445.52 393.89M445.52 393.89L445.59 393.89M445.59 393.89L445.66 393.9M445.66 393.9L445.73 393.9M445.73 393.9L445.8 393.9M445.8 393.9L445.86 393.91M445.86 393.91L445.93 393.91M445.93 393.91L445.99 393.92M445.99 393.92L446.05 393.92M446.05 393.92L446.11 393.93M446.11 393.93L446.17 393.93M446.17 393.93L446.23 393.94M446.23 393.94L446.29 393.95M446.29 393.95L446.35 393.95M446.35 393.95L446.41 393.96M446.41 393.96L446.47 393.97M446.47 393.97L446.52 393.97M446.52 393.97L446.58 393.98M446.58 393.98L446.63 393.99M446.63 393.99L446.68 394M446.68 394L446.74 394M446.74 394L446.79 394.01M446.79 394.01L446.84 394.02M446.84 394.02L446.89 394.03M446.89 394.03L446.94 394.04M446.94 394.04L446.99 394.04M446.99 394.04L447.03 394.05M447.03 394.05L447.08 394.06M447.08 394.06L447.13 394.07M447.13 394.07L447.17 394.08M447.17 394.08L447.22 394.09M447.22 394.09L447.26 394.1M447.26 394.1L447.3 394.11M447.3 394.11L447.35 394.12M447.35 394.12L447.39 394.13M447.39 394.13L447.43 394.14M447.43 394.14L447.51 394.16M447.51 394.16L447.59 394.18M447.59 394.18L447.66 394.21M447.66 394.21L447.74 394.23M447.74 394.23L447.81 394.25M447.81 394.25L447.87 394.28M447.87 394.28L447.94 394.3M447.94 394.3L448 394.33M448 394.33L448.06 394.35M448.06 394.35L448.12 394.38M448.12 394.38L448.18 394.4M448.18 394.4L448.23 394.43M448.23 394.43L448.29 394.46M448.29 394.46L448.34 394.49M448.34 394.49L448.39 394.52M448.39 394.52L448.43 394.55M448.43 394.55L448.48 394.57M448.48 394.57L448.52 394.6M448.52 394.6L448.57 394.63M448.57 394.63L448.61 394.66M448.61 394.66L448.65 394.7M448.65 394.7L448.68 394.73M448.68 394.73L448.72 394.76M448.72 394.76L448.76 394.79M448.76 394.79L448.79 394.82M448.79 394.82L448.83 394.85M448.83 394.85L448.86 394.89M448.86 394.89L448.89 394.92M448.89 394.92L448.92 394.95M448.92 394.95L448.95 394.99M448.95 394.99L448.98 395.02M448.98 395.02L449.03 395.09M449.03 395.09L449.09 395.15M449.09 395.15L449.14 395.22M449.14 395.22L449.19 395.29M449.19 395.29L449.29 395.43M449.29 395.43L449.34 395.5M449.34 395.5L449.39 395.56M449.39 395.56L449.44 395.63M449.44 395.63L449.5 395.7M449.5 395.7L449.55 395.77M449.55 395.77L449.58 395.8M449.58 395.8L449.61 395.83M449.61 395.83L449.64 395.87M449.64 395.87L449.68 395.9M449.68 395.9L449.71 395.93M449.71 395.93L449.74 395.96M449.74 395.96L449.78 396M449.78 396L449.81 396.03M449.81 396.03L449.85 396.06M449.85 396.06L449.89 396.09M449.89 396.09L449.93 396.12M449.93 396.12L449.97 396.15M449.97 396.15L450.02 396.18M450.02 396.18L450.06 396.21M450.06 396.21L450.11 396.24M450.11 396.24L450.15 396.27M450.15 396.27L450.2 396.3M450.2 396.3L450.26 396.33M450.26 396.33L450.31 396.35M450.31 396.35L450.36 396.38M450.36 396.38L450.42 396.41M450.42 396.41L450.48 396.43M450.48 396.43L450.54 396.46M450.54 396.46L450.61 396.49M450.61 396.49L450.67 396.51M450.67 396.51L450.74 396.53M450.74 396.53L450.81 396.56M450.81 396.56L450.89 396.58M450.89 396.58L450.96 396.6M450.96 396.6L451.04 396.63M451.04 396.63L451.12 396.65M451.12 396.65L451.17 396.66M451.17 396.66L451.21 396.67M451.21 396.67L451.25 396.68M451.25 396.68L451.29 396.69M451.29 396.69L451.34 396.7M451.34 396.7L451.38 396.71M451.38 396.71L451.43 396.72M451.43 396.72L451.48 396.72M451.48 396.72L451.52 396.73M451.52 396.73L451.57 396.74M451.57 396.74L451.62 396.75M451.62 396.75L451.67 396.76M451.67 396.76L451.72 396.77M451.72 396.77L451.77 396.78M451.77 396.78L451.83 396.78M451.83 396.78L451.88 396.79M451.88 396.79L451.93 396.8M451.93 396.8L451.99 396.81M451.99 396.81L452.04 396.81M452.04 396.81L452.1 396.82M452.1 396.82L452.16 396.83M452.16 396.83L452.21 396.83M452.21 396.83L452.27 396.84M452.27 396.84L452.33 396.85M452.33 396.85L452.39 396.85M452.39 396.85L452.46 396.86M452.46 396.86L452.52 396.86M452.52 396.86L452.58 396.87M452.58 396.87L452.65 396.87M452.65 396.87L452.71 396.88M452.71 396.88L452.78 396.88M452.78 396.88L452.84 396.89M452.84 396.89L452.91 396.89M452.91 396.89L452.98 396.9M452.98 396.9L453.05 396.9M453.05 396.9L453.12 396.9M453.12 396.9L453.19 396.91M453.19 396.91L453.27 396.91"
fill="none" stroke="black" stroke-width="0.5"/>
<path d="M455.39 308.14L459.59 303.94"
fill="none" stroke="blue" stroke-width="0.5"/>
<path d="M459.59 303.94L456.53 306.45"
fill="none" stroke="blue" stroke-width="0.5"/>
<path d="M459.59 303.94L457.1 307.02"
fill="none" stroke="blue" stroke-width="0.5"/>
<path d="M456.53 306.45L457.1 307.02"
fill="none" stroke="blue" stroke-width="0.5"/>
<path d="M456.53 309.18L460.73 304.98"
fill="none" stroke="blue" stroke-width="0.5"/>
<path d="M460.73 304.98L457.67 307.49"
fill="none" stroke="blue" stroke-width="0.5"/>
<path d="M460.73 304.98L458.23 308.05"
fill="none" stroke="blue" stroke-width="0.5"/>
<path d="M457.67 307.49L458.23 308.05"
fill="none" stroke="blue" stroke-width="0.5"/>
<path d="M285.87 387.62L285.23 386.96M285.23 386.96L284.28 386.63M284.28 386.63L283 386.63M283 386.63L282.05 386.96M282.05 386.96L281.41 387.62M281.41 387.62L281.41 388.28M281.41 388.28L281.73 388.94M281.73 388.94L282.05 389.27M282.05 389.27L282.68 389.6M282.68 389.6L284.6 390.26M284.6 390.26L285.23 390.59M285.23 390.59L285.55 390.92M285.55 390.92L285.87 391.58M285.87 391.58L285.87 392.57M285.87 392.57L285.23 393.23M285.23 393.23L284.28 393.56M284.28 393.56L283 393.56M283 393.56L282.05 393.23M282.05 393.23L281.41 392.57M287.78 393.56L287.78 386.63M287.78 386.63L290.65 386.63M290.65 386.63L291.6 386.96M291.6 386.96L291.92 387.29M291.92 387.29L292.24 387.95M292.24 387.95L292.24 388.61M292.24 388.61L291.92 389.27M291.92 389.27L291.6 389.6M291.6 389.6L290.65 389.93M287.78 389.93L290.65 389.93M290.65 389.93L291.6 390.26M291.6 390.26L291.92 390.59M291.92 390.59L292.24 391.25M292.24 391.25L292.24 392.24M292.24 392.24L291.92 392.9M291.92 392.9L291.6 393.23M291.6 393.23L290.65 393.56M290.65 393.56L287.78 393.56M294.47 387.95L295.11 387.62M295.11 387.62L296.06 386.63M296.06 386.63L296.06 393.56"
fill="none" stroke="black" stroke-width="0.5"/>
<path d="M334.63 355.2L334.63 348.27M334.63 348.27L338.78 348.27M334.63 351.57L337.18 351.57"
fill="none" stroke="black" stroke-width="0.5"/>
<path d="M411.75 399.97L411.75 393.03M411.75 393.03L413.98 393.03M413.98 393.03L414.93 393.36M414.93 393.36L415.57 394.02M415.57 394.02L415.89 394.68M415.89 394.68L416.21 395.67M416.21 395.67L416.21 397.32M416.21 397.32L415.89 398.31M415.89 398.31L415.57 398.97M415.57 398.97L414.93 399.63M414.93 399.63L413.98 399.97M413.98 399.97L411.75 399.97M419.07 393.03L422.58 393.03M422.58 393.03L420.67 395.67M420.67 395.67L421.62 395.67M421.62 395.67L422.26 396M422.26 396L422.58 396.33M422.58 396.33L422.9 397.32M422.9 397.32L422.9 397.98M422.9 397.98L422.58 398.97M422.58 398.97L421.94 399.63M421.94 399.63L420.98 399.97M420.98 399.97L420.03 399.97M420.03 399.97L419.07 399.63M419.07 399.63L418.76 399.3M418.76 399.3L418.44 398.64M425.13 399.3L424.81 399.63M424.81 399.63L425.13 399.97M425.13 399.97L425.44 399.63M428.31 394.68L428.31 394.35M428.31 394.35L428.63 393.69M428.63 393.69L428.95 393.36M428.95 393.36L429.59 393.03M429.59 393.03L430.86 393.03M430.86 393.03L431.5 393.36M431.5 393.36L431.82 393.69M431.82 393.69L432.13 394.35M432.13 394.35L432.13 395.01M432.13 395.01L431.82 395.67M431.82 395.67L431.18 396.66M431.18 396.66L427.99 399.97M427.99 399.97L432.45 399.97"
fill="none" stroke="black" stroke-width="0.5"/>
<path d="M414.56 349.55L414.56 356.48M412.33 349.55L416.79 349.55"
fill="none" stroke="black" stroke-width="0.5"/>
<path d="M393.38 354.66L393.06 353.99M393.06 353.99L392.42 353.33M392.42 353.33L391.79 353M391.79 353L390.51 353M390.51 353L389.88 353.33M389.88 353.33L389.24 353.99M389.24 353.99L388.92 354.66M388.92 354.66L388.6 355.65M388.6 355.65L388.6 357.3M388.6 357.3L388.92 358.29M388.92 358.29L389.24 358.95M389.24 358.95L389.88 359.61M389.88 359.61L390.51 359.94M390.51 359.94L391.79 359.94M391.79 359.94L392.42 359.61M392.42 359.61L393.06 358.95M393.06 358.95L393.38 358.29"
fill="none" stroke="black" stroke-width="0.5"/>
<path d="M389.66 399.44L389.66 392.5M389.66 392.5L391.89 392.5M391.89 392.5L392.85 392.83M392.85 392.83L393.49 393.49M393.49 393.49L393.81 394.16M393.81 394.16L394.12 395.15M394.12 395.15L394.12 396.8M394.12 396.8L393.81 397.79M393.81 397.79L393.49 398.45M393.49 398.45L392.85 399.11M392.85 399.11L391.89 399.44M391.89 399.44L389.66 399.44"
fill="none" stroke="black" stroke-width="0.5"/>
<path d="M442.81 293.75L442.81 286.82M447.27 286.82L447.27 293.75M442.81 290.12L447.27 290.12M449.82 286.82L449.82 293.75M449.82 293.75L453.64 293.75M455.23 288.14L455.87 287.81M455.87 287.81L456.82 286.82M456.82 286.82L456.82 293.75"
fill="none" stroke="black" stroke-width="0.5"/>
<path d="M438.78 386.56L440.69 391.18M442.6 386.56L440.69 391.18M440.69 391.18L439.74 393.16M439.74 393.16L439.42 393.49M439.42 393.49L438.46 393.49M443.56 385.57L444.19 385.24M444.19 385.24L445.15 384.25M445.15 384.25L445.15 391.18"
fill="none" stroke="black" stroke-width="0.5"/>
<path d="M455.22 391.66L458.73 387.04M458.73 391.66L455.22 387.04M460.96 386.38L460.96 386.05M460.96 386.05L461.27 385.39M461.27 385.39L461.59 385.06M461.59 385.06L462.23 384.73M462.23 384.73L463.5 384.73M463.5 384.73L464.14 385.06M464.14 385.06L464.46 385.39M464.46 385.39L464.78 386.05M464.78 386.05L464.78 386.71M464.78 386.71L464.46 387.37M464.46 387.37L463.82 388.36M463.82 388.36L460.64 391.66M460.64 391.66L465.1 391.66"
fill="none" stroke="black" stroke-width="0.5"/>
<path d="M192.04 594.12L192.04 5.88"
fill="none" stroke="black" stroke-width="0.5"/>
<path d="M192.04 5.88L607.96 5.88"
fill="none" stroke="black" stroke-width="0.5"/>
<path d="M607.96 5.88L607.96 594.12"
fill="none" stroke="black" stroke-width="0.5"/>
<path d="M607.96 594.12L192.04 594.12"
fill="none" stroke="black" stroke-width="0.5"/>
</svg>
